{"glyphs":{"0":{"ha":763,"x_min":88,"x_max":671,"o":"m 671 703 l 671 257 q 585 51 671 117 q 381 -15 500 -15 q 174 51 261 -15 q 88 257 88 117 l 88 704 q 166 921 88 847 q 382 994 244 994 q 595 917 519 994 q 671 703 671 839 m 518 286 l 518 653 q 491 785 518 742 q 379 829 464 829 q 267 787 294 829 q 240 654 240 744 l 240 283 q 274 178 240 217 q 379 140 308 140 q 481 181 444 140 q 518 286 518 221 z "},"1":{"ha":346,"x_min":18,"x_max":329,"o":"m 329 0 l 175 0 l 176 760 q 133 748 161 753 q 83 742 104 743 l 63 739 l 18 872 q 45 878 28 874 q 104 908 63 882 q 176 972 146 933 l 329 972 l 329 0 z "},"2":{"ha":556,"x_min":18,"x_max":539,"o":"m 539 0 l 18 0 l 18 140 l 338 608 q 383 736 383 683 q 378 774 383 757 q 275 836 353 836 q 208 809 238 836 q 176 747 179 782 l 42 819 q 133 938 67 890 q 288 986 200 986 q 425 949 365 986 q 513 853 485 911 q 533 750 533 807 q 532 714 533 733 q 472 558 524 636 l 196 140 l 539 140 l 539 0 z "},"3":{"ha":576,"x_min":18,"x_max":560,"o":"m 18 115 l 113 224 q 174 158 132 183 q 261 132 215 132 q 369 175 331 132 q 407 279 407 218 q 206 428 407 418 l 53 428 l 314 819 l 78 819 l 78 972 l 478 972 l 478 819 l 315 574 l 322 572 q 488 474 417 553 q 560 279 560 394 q 473 69 560 156 q 264 -17 386 -17 q 124 19 189 -17 q 18 115 58 54 z "},"4":{"ha":719,"x_min":18,"x_max":703,"o":"m 607 0 l 456 0 l 456 428 l 18 428 l 286 972 l 442 972 l 265 574 l 456 574 l 456 972 l 607 972 l 607 574 l 703 574 l 676 428 l 607 428 l 607 0 z "},"5":{"ha":576,"x_min":18,"x_max":560,"o":"m 18 115 l 113 225 q 180 156 147 178 q 264 135 213 135 q 373 176 339 135 q 407 279 407 218 q 353 388 407 349 q 207 428 299 428 l 53 428 l 113 972 l 482 972 l 482 818 l 256 818 l 229 574 l 264 574 q 474 488 388 574 q 560 279 560 401 q 473 69 560 156 q 264 -17 386 -17 q 124 19 189 -17 q 18 115 58 54 z "},"6":{"ha":625,"x_min":18,"x_max":608,"o":"m 18 279 l 18 640 q 35 749 18 696 q 88 855 51 803 q 194 940 125 907 q 357 972 264 972 l 406 972 l 406 819 l 369 819 q 298 813 328 819 q 237 786 268 806 q 189 722 206 767 q 172 611 172 678 l 172 538 q 239 563 196 551 q 313 574 282 574 q 522 488 436 574 q 608 279 608 401 q 522 69 608 156 q 313 -17 436 -17 q 104 69 190 -17 q 18 279 18 156 m 169 285 l 169 279 q 211 177 169 219 q 313 135 253 135 q 414 177 372 135 q 456 279 456 219 q 414 380 456 339 q 313 421 372 421 q 212 381 254 421 q 169 285 169 342 z "},"7":{"ha":608,"x_min":18,"x_max":592,"o":"m 186 0 l 18 0 l 421 819 l 44 819 l 44 972 l 592 972 l 592 819 l 186 0 z "},"8":{"ha":626,"x_min":18,"x_max":610,"o":"m 457 279 q 417 383 457 340 q 311 425 376 425 q 212 382 253 425 q 171 279 171 339 q 212 178 171 219 q 314 136 253 136 q 416 178 375 136 q 457 279 457 219 m 453 539 q 567 431 524 500 q 610 279 610 363 q 523 69 610 156 q 314 -17 436 -17 q 105 69 192 -17 q 18 279 18 156 q 61 433 18 364 q 176 540 104 503 q 72 740 72 611 q 143 913 72 842 q 315 985 214 985 q 488 913 417 985 q 560 740 560 842 q 453 539 560 610 m 311 650 q 379 676 351 650 q 407 740 407 703 q 380 807 407 779 q 315 835 353 835 q 249 807 276 835 q 221 740 221 779 q 247 677 221 704 q 311 650 274 650 z "},"9":{"ha":625,"x_min":18,"x_max":608,"o":"m 269 0 l 221 0 l 221 140 l 275 140 q 410 202 364 140 q 457 365 457 264 l 457 439 q 444 431 456 439 q 430 422 433 424 q 415 414 426 419 q 397 406 404 408 q 376 401 389 404 q 347 397 363 399 q 314 396 332 396 q 104 482 190 396 q 18 690 18 568 q 105 900 18 814 q 314 986 192 986 q 522 900 436 986 q 608 690 608 814 l 608 332 q 592 223 608 276 q 538 117 575 169 q 432 33 501 65 q 269 0 363 0 m 213 590 q 234 569 213 590 q 314 549 256 549 q 415 591 372 549 q 457 696 457 633 q 414 793 457 751 q 314 835 371 835 q 213 792 256 835 q 171 690 171 749 q 213 590 171 632 z "}," ":{"ha":386,"x_min":0,"x_max":0,"o":""},"!":{"ha":381,"x_min":108,"x_max":269,"o":"m 240 167 l 135 167 l 108 890 q 186 986 108 986 q 269 892 269 986 l 240 167 m 260 69 q 239 21 260 42 q 189 0 218 0 q 140 21 161 0 q 119 69 119 42 q 140 119 119 99 q 189 140 161 140 q 239 119 218 140 q 260 69 260 99 z "},"\"":{"ha":592,"x_min":146,"x_max":469,"o":"m 251 711 l 165 711 l 146 965 q 178 1017 146 1000 q 210 1025 193 1025 l 239 1017 q 271 965 271 1003 l 251 711 m 450 711 l 364 711 l 344 965 q 375 1017 344 1000 q 408 1025 392 1025 l 439 1017 q 469 965 469 1003 l 450 711 z "},"#":{"ha":851,"x_min":47,"x_max":808,"o":"m 808 233 l 606 233 l 550 0 l 394 0 l 446 233 l 282 233 l 229 0 l 82 0 l 138 233 l 47 233 l 47 375 l 171 375 l 200 496 l 47 496 l 47 651 l 238 651 l 311 972 l 457 972 l 382 651 l 547 651 l 622 972 l 781 972 l 706 651 l 808 651 l 808 496 l 667 496 l 639 375 l 808 375 l 808 233 m 481 375 l 510 496 l 344 496 l 317 375 l 481 375 z "},"$":{"ha":750,"x_min":47,"x_max":707,"o":"m 451 -158 l 299 -158 l 299 -8 q 116 85 182 11 q 47 247 50 160 l 211 271 q 299 149 219 181 l 299 488 q 213 528 246 510 q 144 576 181 546 q 89 648 107 606 q 71 746 71 690 q 129 892 71 826 q 299 979 188 958 l 299 1135 l 451 1135 l 451 983 q 588 944 518 976 l 579 919 q 558 857 571 894 q 539 800 546 819 q 451 824 485 817 l 451 588 q 544 538 506 563 q 624 474 583 513 q 685 385 664 436 q 707 269 707 333 q 644 85 707 161 q 451 -10 581 8 l 451 -158 m 451 413 l 451 146 q 517 194 496 163 q 539 256 539 225 q 451 413 539 353 m 299 660 l 299 818 q 236 743 236 794 q 236 732 236 738 q 299 660 240 693 z "},"%":{"ha":951,"x_min":47,"x_max":908,"o":"m 163 -1 l 47 96 l 785 1035 l 908 943 l 163 -1 m 836 43 q 807 14 836 43 q 694 -15 778 -15 q 553 43 611 -15 q 494 185 494 101 q 553 326 494 268 q 694 385 611 385 q 836 326 778 385 q 894 185 894 268 q 836 43 894 101 m 729 151 q 735 158 729 151 q 742 185 742 165 q 729 218 742 204 q 694 232 717 232 q 660 218 672 232 q 647 185 647 204 q 660 151 647 165 q 694 138 672 138 q 729 151 717 138 m 404 668 q 375 639 404 668 q 263 610 346 610 q 121 668 179 610 q 63 810 63 726 q 121 951 63 893 q 263 1010 179 1010 q 404 951 346 1010 q 463 810 463 893 q 404 668 463 726 m 311 810 q 297 843 311 828 q 263 858 283 858 q 228 843 242 858 q 214 810 214 828 q 228 776 214 790 q 263 761 242 761 q 297 776 283 761 q 311 810 311 790 z "},"&":{"ha":778,"x_min":49,"x_max":735,"o":"m 692 106 l 669 -15 q 663 -15 667 -15 q 575 0 624 -15 q 486 58 524 17 q 417 9 465 33 q 296 -15 368 -15 q 106 72 171 -15 q 49 249 49 149 q 50 283 49 265 q 88 408 57 351 q 158 498 118 465 q 229 549 199 531 q 282 574 260 567 q 206 647 235 594 q 178 764 178 700 q 290 953 178 889 q 428 989 357 989 q 529 971 476 989 l 442 836 q 419 843 432 843 q 383 833 404 843 q 339 779 347 818 q 335 750 335 764 q 364 686 335 710 q 429 654 403 654 q 432 654 431 654 l 447 656 l 447 826 l 600 846 l 600 672 l 701 694 l 735 540 l 600 514 l 600 254 q 692 106 600 136 m 447 310 l 447 479 q 199 290 222 424 q 196 258 196 274 q 218 185 196 217 q 311 140 249 140 q 413 192 378 140 q 447 310 447 244 z "},"'":{"ha":242,"x_min":64,"x_max":189,"o":"m 169 818 l 83 818 l 64 965 q 94 1017 64 1000 q 128 1025 111 1025 l 158 1017 q 189 965 189 1003 l 169 818 z "},"(":{"ha":463,"x_min":108,"x_max":351,"o":"m 351 -49 l 275 -161 q 148 -58 188 -111 q 108 99 108 -6 l 108 871 q 149 1031 108 975 q 274 1135 189 1086 l 350 1014 q 281 961 303 1000 q 260 843 260 922 l 260 129 q 262 81 260 103 q 267 43 264 58 q 276 15 269 28 q 287 -5 283 1 q 301 -19 290 -11 q 315 -31 311 -28 q 333 -40 319 -33 q 351 -49 347 -46 z "},")":{"ha":463,"x_min":108,"x_max":351,"o":"m 185 -161 l 108 -49 q 126 -40 113 -46 q 144 -31 140 -33 q 159 -19 149 -28 q 173 -5 169 -11 q 183 15 176 1 q 193 43 190 28 q 198 81 196 58 q 200 129 200 103 l 200 843 q 178 961 200 922 q 110 1014 157 1000 l 186 1135 q 311 1031 271 1086 q 351 871 351 975 l 351 99 q 312 -58 351 -6 q 185 -161 272 -111 z "},"*":{"ha":489,"x_min":18,"x_max":472,"o":"m 436 646 l 294 550 l 243 715 l 189 550 l 53 649 l 181 751 l 18 765 l 72 908 l 206 815 l 160 972 l 326 972 l 279 815 l 410 911 l 472 764 l 304 750 l 436 646 z "},"+":{"ha":535,"x_min":47,"x_max":492,"o":"m 347 271 l 192 271 l 192 428 l 47 428 l 47 574 l 192 574 l 192 757 l 347 757 l 347 574 l 492 574 l 492 428 l 347 428 l 347 271 z "},",":{"ha":247,"x_min":1,"x_max":190,"o":"m 97 -117 l 1 -76 q 56 -42 31 -60 q 92 -14 81 -24 l 101 -4 l 85 0 q 43 67 43 19 q 65 119 43 99 q 117 140 86 140 q 121 140 119 140 q 174 111 157 139 q 190 53 190 83 q 169 -32 190 6 q 97 -117 147 -69 z "},"-":{"ha":569,"x_min":63,"x_max":507,"o":"m 507 428 l 63 428 l 63 574 l 507 574 l 507 428 z "},".":{"ha":199,"x_min":1,"x_max":142,"o":"m 142 69 q 121 21 142 42 q 71 0 100 0 q 22 21 43 0 q 1 69 1 42 q 22 119 1 99 q 71 140 43 140 q 121 119 100 140 q 142 69 142 99 z "},"/":{"ha":651,"x_min":18,"x_max":635,"o":"m 181 -158 l 18 -158 l 468 1135 l 635 1135 l 181 -158 z "},":":{"ha":189,"x_min":18,"x_max":172,"o":"m 149 453 q 138 442 149 453 q 96 431 126 431 q 43 453 65 431 q 21 506 21 475 q 43 558 21 536 q 96 581 65 581 q 149 558 126 581 q 171 506 171 536 q 149 453 171 475 m 149 284 q 161 273 149 284 q 172 229 172 261 q 149 175 172 197 q 94 153 126 153 q 41 175 64 153 q 18 229 18 197 q 40 284 18 261 q 94 307 63 307 q 149 284 126 307 z "},";":{"ha":224,"x_min":18,"x_max":207,"o":"m 185 303 q 174 292 185 303 q 133 282 164 282 q 82 303 103 282 q 61 354 61 324 q 82 406 61 385 q 133 426 103 426 q 185 406 164 426 q 206 354 206 385 q 185 303 206 324 m 114 -117 l 18 -76 q 72 -42 47 -60 q 108 -14 97 -24 l 118 -4 l 101 0 q 60 67 60 19 q 82 119 60 99 q 133 140 103 140 q 138 140 136 140 q 190 111 174 139 q 207 53 207 83 q 185 -32 207 6 q 114 -117 164 -69 z "},"<":{"ha":524,"x_min":18,"x_max":507,"o":"m 504 203 l 404 111 l 18 497 l 18 499 l 404 885 l 507 788 l 214 497 l 504 203 z "},"=":{"ha":479,"x_min":18,"x_max":463,"o":"m 463 496 l 18 496 l 18 642 l 463 642 l 463 496 m 463 283 l 18 283 l 18 429 l 463 429 l 463 283 z "},">":{"ha":524,"x_min":18,"x_max":507,"o":"m 121 111 l 21 203 l 311 497 l 18 788 l 121 885 l 507 499 l 507 497 l 121 111 z "},"?":{"ha":549,"x_min":18,"x_max":531,"o":"m 325 165 l 174 165 l 174 294 q 194 415 174 358 q 238 503 214 471 q 297 578 261 535 q 347 646 332 622 q 376 731 376 693 q 375 744 376 738 q 340 813 368 788 q 281 839 313 839 q 200 811 226 839 q 174 739 174 783 l 18 739 q 83 914 18 843 q 265 985 147 985 q 399 947 338 985 q 496 853 461 910 q 531 725 531 797 q 483 582 531 650 q 422 507 458 546 q 369 447 386 468 q 340 378 353 426 q 325 253 326 329 l 325 165 m 318 69 q 297 21 318 42 q 247 0 276 0 q 199 21 219 0 q 178 69 178 42 q 199 119 178 99 q 247 140 219 140 q 297 119 276 140 q 318 69 318 99 z "},"@":{"ha":1068,"x_min":18,"x_max":1051,"o":"m 847 225 l 846 463 q 847 522 846 501 q 856 578 849 543 q 880 633 864 613 q 927 673 896 653 q 1004 701 958 693 l 1051 576 q 1010 547 1024 567 q 994 511 996 526 q 992 467 992 496 l 992 247 q 956 90 992 158 q 867 -18 921 22 q 742 -84 814 -58 q 606 -119 671 -110 q 476 -128 542 -128 q 148 -26 278 -128 q 18 254 18 75 l 18 475 q 106 715 18 626 q 318 826 194 803 q 417 838 368 838 q 475 833 446 838 q 617 795 553 824 q 720 703 681 767 q 760 554 760 640 l 811 533 l 811 388 l 760 408 l 760 126 q 639 93 694 106 q 521 74 583 81 q 467 71 493 71 q 410 75 436 71 q 319 105 361 83 q 253 172 278 126 q 225 283 229 217 l 225 424 q 347 624 225 578 q 431 640 383 640 q 447 639 439 640 q 540 628 504 636 q 607 608 576 619 q 558 677 600 654 q 469 701 515 700 q 453 701 461 701 q 246 644 328 701 q 158 458 158 582 l 158 264 q 188 138 158 190 q 268 58 218 85 q 372 20 318 32 q 485 8 425 8 q 608 20 547 8 q 724 56 668 32 q 813 124 779 79 q 847 225 847 168 m 607 232 l 607 460 q 531 489 571 478 q 461 497 494 497 q 453 497 457 497 q 391 474 415 496 q 367 411 367 453 l 367 335 q 369 294 367 311 q 384 252 371 276 q 421 217 397 228 q 478 207 440 207 q 492 208 485 207 q 607 232 540 210 z "},"A":{"ha":732,"x_min":29,"x_max":718,"o":"m 718 0 l 536 0 l 479 254 l 256 254 l 201 0 l 29 0 l 257 972 l 472 972 l 718 0 m 443 417 l 364 717 l 292 417 l 443 417 z "},"B":{"ha":764,"x_min":108,"x_max":710,"o":"m 413 0 l 108 0 l 108 972 l 392 972 q 583 908 507 972 q 660 726 660 844 q 568 533 660 596 q 567 531 567 532 l 567 529 q 669 440 628 501 q 710 285 710 379 q 694 184 710 232 q 646 94 679 136 q 553 26 613 51 q 413 0 493 0 m 261 574 l 328 574 q 444 603 407 574 q 482 703 482 632 q 447 794 482 768 q 342 819 413 819 l 261 819 l 261 574 m 261 140 l 346 140 q 488 169 442 140 q 535 288 535 197 q 358 426 535 426 l 261 426 l 261 140 z "},"C":{"ha":597,"x_min":92,"x_max":593,"o":"m 569 176 l 593 32 q 457 -6 525 6 q 368 -14 413 -14 q 322 -11 346 -14 q 205 22 256 -6 q 123 108 154 49 q 92 254 92 167 l 92 700 q 122 860 92 806 q 213 951 151 914 q 361 986 275 986 q 379 986 369 986 q 558 940 476 982 l 515 801 q 375 825 451 825 q 281 793 317 825 q 244 713 244 761 l 244 257 q 250 212 244 232 q 268 179 256 192 q 293 157 281 167 q 328 144 306 147 q 365 140 350 142 q 408 142 381 138 q 450 148 435 146 q 494 157 465 150 q 533 167 522 164 q 569 176 544 169 z "},"D":{"ha":800,"x_min":108,"x_max":692,"o":"m 397 0 l 108 0 l 108 974 l 369 974 q 609 888 526 974 q 692 658 692 801 l 692 278 q 397 0 692 0 m 539 264 l 539 672 q 501 784 539 749 q 383 819 463 819 l 261 819 l 261 140 l 375 140 q 433 144 410 140 q 484 158 457 147 q 525 196 511 169 q 539 264 539 222 z "},"E":{"ha":646,"x_min":108,"x_max":572,"o":"m 569 0 l 108 0 l 108 972 l 572 972 l 572 819 l 261 819 l 261 574 l 451 574 l 408 428 l 261 428 l 261 139 l 569 139 l 569 0 z "},"F":{"ha":626,"x_min":108,"x_max":572,"o":"m 261 0 l 108 0 l 108 972 l 572 972 l 572 819 l 261 819 l 261 574 l 456 574 l 406 428 l 261 428 l 261 0 z "},"G":{"ha":746,"x_min":90,"x_max":661,"o":"m 661 0 l 517 0 l 508 11 q 383 -14 436 -14 q 176 56 261 -14 q 90 263 90 125 l 90 699 q 211 950 90 876 q 360 985 274 985 q 378 985 368 985 q 557 939 475 981 l 511 801 q 385 826 444 826 q 281 802 318 826 q 243 711 243 778 l 243 260 q 278 167 243 193 q 382 140 314 140 q 508 258 508 140 l 508 271 l 429 271 l 381 417 l 661 417 l 661 0 z "},"H":{"ha":817,"x_min":108,"x_max":706,"o":"m 706 0 l 554 0 l 554 428 l 261 428 l 261 0 l 108 0 l 108 972 l 261 972 l 261 574 l 554 574 l 554 972 l 706 972 l 706 0 z "},"I":{"ha":435,"x_min":85,"x_max":324,"o":"m 324 0 l 171 0 l 171 822 l 85 825 l 85 972 l 324 972 l 324 0 z "},"J":{"ha":325,"x_min":-21,"x_max":275,"o":"m 29 -51 l -21 79 q 125 217 125 79 l 125 822 l 42 825 l 42 972 l 275 972 l 275 193 q 222 6 275 61 q 29 -51 169 -50 z "},"K":{"ha":739,"x_min":110,"x_max":736,"o":"m 736 0 l 546 0 l 283 386 l 274 372 l 274 0 l 110 0 l 110 974 l 274 974 l 274 639 l 499 974 l 682 974 l 374 522 l 736 0 z "},"L":{"ha":611,"x_min":108,"x_max":610,"o":"m 610 0 l 108 0 l 108 972 l 261 972 l 261 140 l 610 140 l 610 0 z "},"M":{"ha":964,"x_min":108,"x_max":853,"o":"m 853 0 l 700 0 l 700 514 l 538 0 l 421 0 l 261 513 l 261 0 l 108 0 l 108 972 l 261 972 l 479 329 l 700 972 l 853 972 l 853 0 z "},"N":{"ha":903,"x_min":108,"x_max":792,"o":"m 792 0 l 638 0 l 261 657 l 261 0 l 108 0 l 108 972 l 261 972 l 638 319 l 638 972 l 792 972 l 792 0 z "},"O":{"ha":763,"x_min":88,"x_max":671,"o":"m 671 703 l 671 257 q 585 51 671 117 q 381 -15 500 -15 q 174 51 261 -15 q 88 257 88 117 l 88 704 q 166 921 88 847 q 382 994 244 994 q 595 917 519 994 q 671 703 671 839 m 518 286 l 518 653 q 491 785 518 742 q 379 829 464 829 q 267 787 294 829 q 240 654 240 744 l 240 283 q 274 178 240 217 q 379 140 308 140 q 481 181 444 140 q 518 286 518 221 z "},"P":{"ha":765,"x_min":108,"x_max":711,"o":"m 261 417 l 392 417 q 473 432 439 417 q 523 466 507 447 q 548 519 539 485 q 558 574 557 554 q 558 631 558 594 q 558 640 558 638 q 517 783 558 747 q 386 819 475 819 l 261 819 l 261 417 m 261 0 l 108 0 l 108 972 l 425 972 q 641 878 571 972 q 711 643 711 785 q 438 271 711 271 l 261 271 l 261 0 z "},"Q":{"ha":763,"x_min":88,"x_max":671,"o":"m 599 -31 l 579 -161 q 565 -161 572 -161 q 328 -11 383 -161 q 248 8 286 -7 q 172 52 210 24 q 110 133 133 81 q 88 257 88 186 l 88 704 q 166 921 88 847 q 382 994 244 994 q 595 917 519 994 q 671 703 671 839 l 671 257 q 613 78 671 140 q 483 1 556 15 q 524 -25 501 -19 q 599 -31 547 -31 m 518 260 l 518 701 q 513 741 518 722 q 495 783 508 760 q 452 819 482 806 q 379 832 422 832 q 268 797 296 832 q 240 701 240 761 l 240 258 q 303 140 240 140 q 301 217 301 149 l 301 242 l 454 242 l 454 218 l 454 142 q 518 260 518 142 z "},"R":{"ha":783,"x_min":108,"x_max":713,"o":"m 713 0 l 557 0 l 464 271 l 261 271 l 261 0 l 108 0 l 108 972 l 438 972 q 642 877 572 972 q 711 642 711 782 q 708 533 711 574 q 679 429 704 493 q 604 322 654 365 l 713 0 m 261 417 l 401 417 q 474 433 444 417 q 518 470 504 450 q 540 527 532 490 q 549 585 549 564 q 550 642 550 606 q 507 783 550 749 q 374 818 464 818 l 261 818 l 261 417 z "},"S":{"ha":779,"x_min":51,"x_max":711,"o":"m 51 247 l 215 271 q 265 172 222 210 q 378 135 308 135 q 503 173 463 135 q 543 256 543 211 q 517 351 543 311 q 450 417 492 392 q 359 464 408 443 q 260 508 310 485 q 168 559 210 531 q 101 635 126 588 q 75 746 75 682 q 156 915 75 843 q 389 986 238 986 q 592 944 504 986 l 583 919 q 563 857 575 894 q 543 800 550 819 q 390 831 449 831 q 274 803 311 831 q 240 740 240 778 q 240 732 240 736 q 294 665 244 696 q 413 606 344 635 q 549 538 482 576 q 664 431 617 500 q 711 269 711 363 q 629 65 711 146 q 379 -15 547 -15 q 141 65 228 -15 q 51 247 54 144 z "},"T":{"ha":558,"x_min":0,"x_max":558,"o":"m 353 0 l 200 0 l 200 818 l 0 818 l 0 972 l 558 972 l 558 818 l 353 818 l 353 0 z "},"U":{"ha":786,"x_min":103,"x_max":688,"o":"m 535 319 l 535 974 l 688 974 l 688 258 q 662 131 688 185 q 592 47 636 76 q 500 4 549 18 q 396 -10 451 -10 q 291 4 340 -10 q 198 47 242 18 q 128 131 154 76 q 103 258 103 185 l 103 974 l 256 974 l 256 319 q 284 183 256 225 q 394 140 313 140 q 506 183 478 140 q 535 319 535 225 z "},"V":{"ha":826,"x_min":108,"x_max":772,"o":"m 531 0 l 351 0 l 108 972 l 281 972 l 440 300 l 596 972 l 772 972 l 531 0 z "},"W":{"ha":1129,"x_min":108,"x_max":1075,"o":"m 889 0 l 717 0 l 593 490 l 472 0 l 294 0 l 108 972 l 276 972 l 390 350 l 539 972 l 647 972 l 796 350 l 900 972 l 1075 972 l 889 0 z "},"X":{"ha":964,"x_min":108,"x_max":910,"o":"m 910 0 l 714 0 l 503 339 l 299 0 l 108 0 l 411 486 l 125 972 l 306 972 l 510 650 l 704 972 l 886 972 l 601 499 l 910 0 z "},"Y":{"ha":761,"x_min":67,"x_max":683,"o":"m 475 -26 l 426 90 q 501 125 472 96 q 531 228 531 154 l 531 306 q 385 271 461 271 q 154 353 242 271 q 67 574 67 435 l 67 972 l 219 972 l 219 588 q 385 421 219 421 q 416 422 401 421 q 442 426 431 424 q 464 432 454 429 q 483 440 474 435 q 497 447 492 444 q 509 456 503 450 q 518 464 515 461 q 525 472 521 467 l 531 476 l 531 972 l 683 972 l 683 217 q 636 46 683 107 q 475 -26 589 -15 z "},"Z":{"ha":764,"x_min":43,"x_max":719,"o":"m 719 0 l 43 0 l 43 140 l 518 819 l 61 819 l 61 972 l 711 972 l 711 819 l 233 144 l 719 144 l 719 0 z "},"[":{"ha":443,"x_min":108,"x_max":332,"o":"m 332 -158 l 108 -158 l 108 1135 l 332 1135 l 332 989 l 261 975 l 261 1 l 332 -12 l 332 -158 z "},"\\":{"ha":779,"x_min":108,"x_max":725,"o":"m 725 -158 l 563 -158 l 108 1135 l 275 1135 l 725 -158 z "},"]":{"ha":443,"x_min":108,"x_max":332,"o":"m 332 -158 l 108 -158 l 108 -12 l 179 1 l 179 975 l 108 989 l 108 1135 l 332 1135 l 332 -158 z "},"^":{"ha":565,"x_min":108,"x_max":511,"o":"m 511 1053 l 418 999 l 313 1114 l 200 999 l 108 1053 l 314 1249 l 511 1053 z "},"_":{"ha":478,"x_min":93,"x_max":538,"o":"m 538 -104 l 93 -104 l 93 0 l 538 0 l 538 -104 z "},"`":{"ha":308,"x_min":64,"x_max":256,"o":"m 256 819 l 154 819 l 86 907 q 64 961 64 936 q 65 969 64 965 q 99 1011 71 997 q 119 1017 107 1017 q 146 1011 131 1017 q 192 969 178 1001 l 256 819 z "},"a":{"ha":636,"x_min":51,"x_max":586,"o":"m 586 414 l 586 0 q 356 -14 442 -14 q 290 -11 317 -14 q 51 215 63 14 q 51 235 51 225 l 51 350 q 147 535 51 488 q 239 557 188 557 q 254 556 247 557 q 360 541 315 553 q 433 513 404 529 q 285 601 433 601 l 297 707 q 392 701 350 707 q 464 680 435 694 q 515 650 493 665 q 550 610 538 635 q 571 566 563 585 q 582 515 579 547 q 585 465 585 483 q 586 414 586 447 m 433 135 l 433 350 q 376 378 411 365 q 300 399 340 392 q 278 400 289 400 q 233 389 253 400 q 206 331 206 372 l 206 254 q 353 126 206 126 q 433 135 389 126 z "},"b":{"ha":675,"x_min":108,"x_max":621,"o":"m 621 481 l 621 218 q 513 25 621 81 q 329 -17 431 -17 q 108 0 228 -17 l 108 972 l 261 972 l 261 694 q 372 707 321 707 q 503 681 446 707 q 621 481 621 626 m 469 215 l 469 438 q 442 519 469 490 q 378 553 414 549 q 353 553 365 553 q 308 550 329 553 q 261 531 275 543 l 261 133 q 314 125 285 125 q 392 136 349 125 q 469 215 469 156 z "},"c":{"ha":532,"x_min":50,"x_max":497,"o":"m 456 158 l 497 8 q 332 -15 408 -15 q 206 3 264 -15 q 87 88 124 31 q 50 250 50 146 l 50 428 q 89 593 50 526 q 192 686 128 660 q 308 708 244 708 q 335 707 321 708 q 494 664 414 701 l 453 532 q 329 557 381 557 q 267 544 292 557 q 203 436 203 514 l 203 235 q 235 165 203 189 q 311 139 267 140 q 329 139 319 139 q 394 143 364 139 q 456 158 433 149 z "},"d":{"ha":675,"x_min":108,"x_max":621,"o":"m 108 218 l 108 481 q 226 681 108 626 q 319 706 268 700 q 371 708 347 708 q 408 706 392 708 q 469 692 444 701 l 469 972 l 621 972 l 621 0 q 400 -17 501 -17 q 217 25 299 -17 q 108 218 108 81 m 469 135 l 469 531 q 400 551 436 547 q 378 553 389 553 q 332 547 354 553 q 280 506 300 538 q 260 425 260 475 l 260 208 q 324 138 260 161 q 397 125 357 125 q 469 135 431 125 z "},"e":{"ha":603,"x_min":49,"x_max":549,"o":"m 549 264 l 203 246 l 203 207 q 267 126 203 136 q 286 125 276 125 q 458 181 349 125 l 514 49 q 285 -17 411 -14 q 274 -17 279 -17 q 113 31 174 -17 q 49 186 49 82 l 49 471 q 119 646 49 583 q 304 708 189 708 q 484 647 419 708 q 549 475 549 585 l 549 264 m 394 399 l 394 472 q 368 536 394 514 q 303 558 342 558 q 226 531 250 558 q 203 469 203 503 l 203 386 l 394 399 z "},"f":{"ha":451,"x_min":108,"x_max":397,"o":"m 264 0 l 108 0 l 108 763 q 127 872 108 825 q 176 941 146 918 q 246 978 207 964 q 313 989 279 989 q 322 989 318 989 q 397 982 361 986 l 372 843 q 333 850 358 846 q 326 850 331 850 q 286 832 306 850 q 264 763 264 810 l 264 696 l 385 696 l 351 553 l 264 553 l 264 0 z "},"g":{"ha":622,"x_min":51,"x_max":575,"o":"m 357 -292 l 321 -172 q 395 -145 368 -172 q 422 -64 422 -118 l 422 11 q 310 -17 385 -17 q 119 50 188 -17 q 51 244 51 117 l 51 451 q 123 641 51 574 q 315 708 194 708 q 385 699 354 708 q 424 681 415 690 l 453 696 l 575 696 l 575 -89 q 357 -292 575 -292 m 422 321 l 422 438 q 310 557 422 557 q 228 524 253 557 q 204 444 204 492 l 204 265 q 310 131 204 131 q 400 175 378 131 q 422 321 422 219 z "},"h":{"ha":685,"x_min":89,"x_max":601,"o":"m 601 0 l 449 0 l 449 426 q 423 525 449 490 q 361 564 397 560 q 338 564 349 564 q 293 560 314 564 q 242 540 261 553 l 242 0 l 89 0 l 89 972 l 242 972 l 242 690 q 344 708 281 707 q 350 708 347 708 q 483 682 413 708 q 601 481 601 628 l 601 0 z "},"i":{"ha":383,"x_min":108,"x_max":272,"o":"m 192 822 q 133 847 158 822 q 108 906 108 872 q 133 962 108 938 q 192 986 158 986 q 248 962 224 986 q 272 906 272 938 q 248 847 272 872 q 192 822 224 822 m 264 0 l 111 0 l 111 696 l 264 696 l 264 0 z "},"j":{"ha":328,"x_min":-1,"x_max":260,"o":"m 100 -49 l 100 554 l 29 568 l -1 696 l 253 696 l 253 -104 q 185 -236 250 -182 q 43 -290 121 -290 l 1 -172 q 12 -171 6 -172 q 35 -162 18 -169 q 66 -142 53 -154 q 90 -106 79 -131 q 100 -49 100 -82 m 236 847 q 224 835 236 847 q 179 822 213 822 q 121 847 146 822 q 96 906 96 872 q 121 963 96 939 q 179 986 146 986 q 236 963 213 986 q 260 906 260 939 q 236 847 260 872 z "},"k":{"ha":658,"x_min":89,"x_max":661,"o":"m 661 0 l 469 0 l 261 353 l 242 333 l 242 0 l 89 0 l 89 972 l 242 972 l 242 531 l 449 722 l 561 615 l 379 461 q 661 0 582 126 z "},"l":{"ha":372,"x_min":108,"x_max":261,"o":"m 261 0 l 108 0 l 108 972 l 261 972 l 261 0 z "},"m":{"ha":1029,"x_min":108,"x_max":975,"o":"m 975 0 l 822 0 l 822 422 q 782 553 822 525 q 738 564 764 564 q 651 544 703 564 l 628 535 q 633 494 633 521 l 633 0 l 481 0 l 481 418 q 415 550 481 518 q 361 564 390 564 q 261 532 315 564 l 261 0 l 108 0 l 108 696 l 243 696 l 261 686 q 346 707 299 703 q 365 708 356 708 q 446 694 404 708 q 535 640 499 678 q 593 671 554 651 q 758 707 682 707 q 778 707 768 707 q 919 640 864 701 q 975 481 975 579 l 975 0 z "},"n":{"ha":694,"x_min":89,"x_max":601,"o":"m 601 0 l 449 0 l 449 438 q 389 549 449 518 q 335 561 364 561 q 240 536 292 561 l 240 0 l 89 0 l 89 696 l 224 696 l 242 688 q 363 708 306 708 q 483 682 426 708 q 601 481 601 628 l 601 0 z "},"o":{"ha":681,"x_min":108,"x_max":626,"o":"m 626 439 l 626 256 q 563 63 626 139 q 369 -14 499 -14 q 174 63 240 -14 q 108 256 108 140 l 108 439 q 176 641 108 571 q 369 711 243 711 q 558 638 490 711 q 626 439 626 565 m 475 242 l 475 439 q 465 505 475 479 q 437 541 456 531 q 403 554 418 551 q 369 557 389 557 q 261 439 261 557 l 261 242 q 369 136 261 136 q 445 163 415 136 q 475 242 475 189 z "},"p":{"ha":686,"x_min":108,"x_max":632,"o":"m 261 -261 l 108 -292 l 108 696 l 253 696 l 261 686 q 368 707 307 707 q 565 632 497 707 q 632 438 632 557 l 632 244 q 561 51 632 118 q 374 -17 490 -17 q 321 -14 340 -17 q 283 -4 301 -11 q 261 3 264 3 l 261 -261 m 479 281 l 479 443 q 374 557 479 557 q 289 528 317 557 q 261 450 261 500 l 261 261 q 374 136 261 136 q 458 169 438 136 q 479 281 479 203 z "},"q":{"ha":622,"x_min":51,"x_max":575,"o":"m 575 -292 l 424 -261 l 424 4 q 409 -1 421 3 q 388 -8 397 -6 q 356 -14 378 -11 q 310 -17 335 -17 q 122 51 193 -17 q 51 244 51 118 l 51 436 q 119 631 51 556 q 315 707 186 707 q 356 704 338 707 q 384 698 375 701 q 406 689 393 694 q 424 682 419 683 l 433 696 l 575 696 l 575 -292 m 424 268 l 424 435 q 310 557 424 557 q 203 421 203 557 l 203 249 q 310 136 203 136 q 401 171 379 136 q 424 268 424 206 z "},"r":{"ha":528,"x_min":85,"x_max":474,"o":"m 238 0 l 85 0 l 85 696 l 226 696 l 238 690 q 331 707 283 706 q 358 707 346 707 q 397 706 385 707 q 474 690 417 703 l 438 542 q 363 561 399 561 q 303 549 332 561 q 238 447 238 519 l 238 0 z "},"s":{"ha":599,"x_min":50,"x_max":564,"o":"m 50 176 l 203 192 q 228 144 203 167 q 307 122 254 122 q 378 145 353 122 q 403 199 403 168 q 370 263 403 239 q 290 302 338 288 q 195 335 243 317 q 110 397 147 354 q 67 507 74 440 q 65 524 65 515 q 119 649 65 592 q 304 713 178 713 q 388 702 349 713 q 443 682 426 692 l 460 672 l 415 531 q 304 563 383 563 q 247 551 265 563 q 230 527 228 540 q 232 504 232 514 q 273 466 236 483 q 357 432 310 449 q 451 390 404 415 q 531 315 499 365 q 564 196 564 265 q 499 42 564 106 q 307 -21 433 -21 q 121 36 189 -21 q 50 176 53 93 z "},"t":{"ha":381,"x_min":61,"x_max":349,"o":"m 318 104 l 272 -18 q 61 183 61 -14 l 61 972 l 217 972 l 217 696 l 349 696 l 315 553 l 217 553 l 217 183 q 243 120 217 136 q 318 104 269 104 z "},"u":{"ha":621,"x_min":50,"x_max":568,"o":"m 568 0 l 425 0 l 415 8 q 311 -15 353 -15 q 50 239 50 -15 l 50 696 l 203 696 l 203 261 q 226 167 203 197 q 311 136 249 136 q 394 170 374 136 q 415 267 415 204 l 415 696 l 568 696 l 568 0 z "},"v":{"ha":629,"x_min":17,"x_max":604,"o":"m 386 0 l 239 0 l 17 696 l 183 696 l 313 271 l 439 696 l 604 696 l 386 0 z "},"w":{"ha":986,"x_min":17,"x_max":961,"o":"m 736 0 l 590 0 l 490 371 l 389 0 l 240 0 l 17 696 l 183 696 l 310 271 l 422 696 l 567 696 l 683 271 l 797 696 l 961 696 l 736 0 z "},"x":{"ha":765,"x_min":85,"x_max":711,"o":"m 700 0 l 518 0 l 396 194 l 275 0 l 85 0 l 301 346 l 85 696 l 278 696 l 397 497 l 522 696 l 711 696 l 490 347 l 700 0 z "},"y":{"ha":703,"x_min":51,"x_max":656,"o":"m 386 -292 l 326 -171 q 391 -149 363 -171 q 419 -78 419 -126 l 419 3 q 306 -17 357 -17 q 117 49 183 -17 q 51 244 51 115 l 51 696 l 204 696 l 204 286 q 227 167 204 199 q 306 136 250 136 q 393 166 367 136 q 419 286 419 196 l 419 504 q 470 640 419 578 q 599 708 521 701 l 656 583 q 594 545 615 574 q 572 482 572 517 l 572 -85 q 530 -227 572 -175 q 386 -292 488 -279 z "},"z":{"ha":672,"x_min":108,"x_max":618,"o":"m 618 0 l 108 0 l 108 144 l 399 551 l 121 551 l 121 696 l 604 696 l 604 557 l 313 144 l 618 144 l 618 0 z "},"{":{"ha":504,"x_min":108,"x_max":450,"o":"m 450 -24 l 407 -161 q 291 -108 331 -140 q 231 -12 251 -76 q 211 167 211 53 l 211 343 q 189 403 211 369 q 152 451 167 438 q 108 492 138 465 q 175 561 142 518 q 208 642 208 604 l 208 788 q 251 1044 208 963 q 407 1142 294 1125 l 447 1014 q 386 979 411 1014 q 361 868 361 944 l 361 633 q 281 493 361 574 q 364 351 364 410 l 364 121 q 385 9 364 42 q 450 -24 407 -24 z "},"|":{"ha":372,"x_min":108,"x_max":261,"o":"m 261 -158 l 108 -158 l 108 1135 l 261 1135 l 261 -158 z "},"}":{"ha":504,"x_min":108,"x_max":450,"o":"m 151 -161 l 108 -24 q 173 9 151 -24 q 194 121 194 42 l 194 351 q 278 493 194 410 q 197 633 197 574 l 197 868 q 172 979 197 944 q 111 1014 147 1014 l 151 1142 q 307 1044 264 1125 q 350 788 350 963 l 350 642 q 383 561 350 604 q 450 492 417 518 q 406 451 421 465 q 369 403 392 438 q 347 343 347 369 l 347 167 q 327 -12 347 53 q 267 -108 307 -76 q 151 -161 228 -140 z "},"~":{"ha":749,"x_min":108,"x_max":694,"o":"m 633 526 l 694 428 q 593 356 650 371 q 538 349 565 349 q 481 357 508 349 q 371 389 425 372 q 294 400 332 400 q 261 399 278 400 q 167 346 207 392 l 108 443 q 213 514 154 500 q 271 522 243 522 q 326 515 299 522 q 436 486 382 501 q 515 475 476 475 q 544 476 531 475 q 633 526 596 482 z "},"¡":{"ha":381,"x_min":108,"x_max":269,"o":"m 108 96 l 135 819 l 240 819 l 269 94 q 186 0 269 0 q 108 96 108 0 m 189 846 q 140 867 161 846 q 119 917 119 888 q 140 965 119 944 q 189 986 161 986 q 239 965 218 986 q 260 917 260 944 q 239 867 260 888 q 189 846 218 846 z "},"¢":{"ha":610,"x_min":108,"x_max":556,"o":"m 456 -158 l 304 -158 l 304 -7 q 264 3 276 -1 q 145 88 182 31 q 108 250 108 146 l 108 428 q 162 614 108 544 q 304 701 215 683 l 304 865 l 456 865 l 456 697 q 553 664 503 688 l 511 532 q 456 550 472 546 l 456 143 q 514 158 494 150 l 556 8 q 456 -10 497 -6 l 456 -158 m 304 157 l 304 531 q 261 436 261 497 l 261 235 q 304 157 261 179 z "},"£":{"ha":663,"x_min":108,"x_max":608,"o":"m 608 0 l 108 0 l 108 140 q 226 186 186 140 q 267 313 267 232 q 247 421 267 353 l 140 421 l 140 572 l 199 572 q 174 715 174 644 q 249 910 174 836 q 442 985 325 985 q 593 950 538 985 l 546 813 q 442 839 499 839 q 378 823 404 839 q 342 783 353 807 q 328 742 332 758 q 325 713 325 726 q 353 572 325 646 l 585 572 l 585 421 l 403 421 q 419 317 419 356 q 419 307 419 311 q 406 223 415 254 q 371 140 397 192 l 608 140 l 608 0 z "},"¤":{"ha":704,"x_min":108,"x_max":650,"o":"m 542 175 l 488 231 q 381 206 440 206 q 274 231 317 206 l 222 174 l 118 281 l 168 326 q 138 449 138 368 q 164 558 138 499 l 108 611 l 224 718 l 269 667 q 381 693 311 693 q 488 667 461 693 l 540 719 l 650 611 l 596 565 q 604 544 599 558 q 613 522 610 529 q 619 503 615 515 q 624 478 622 490 q 625 449 625 465 q 622 410 625 428 q 617 384 619 393 q 606 356 614 375 q 596 328 599 338 l 644 282 l 542 175 m 482 449 q 452 522 482 492 q 381 551 422 551 q 308 522 338 551 q 278 449 278 492 q 308 378 278 407 q 381 349 338 349 q 452 378 422 349 q 482 449 482 407 z "},"¥":{"ha":818,"x_min":108,"x_max":764,"o":"m 513 0 l 358 0 l 358 283 l 217 283 l 217 429 l 358 429 l 358 438 l 331 496 l 217 496 l 217 642 l 263 642 l 108 972 l 269 972 l 417 642 l 453 642 l 601 972 l 764 972 l 608 642 l 661 642 l 661 496 l 539 496 l 513 438 l 513 429 l 661 429 l 661 283 l 513 283 l 513 0 z "},"§":{"ha":825,"x_min":108,"x_max":769,"o":"m 108 -11 l 267 -11 q 309 -95 267 -56 q 435 -135 351 -135 q 509 -127 474 -135 q 578 -89 544 -119 q 611 -8 611 -58 q 583 67 611 36 q 511 118 556 99 q 414 155 467 138 q 309 197 361 172 q 215 255 257 221 q 147 347 172 289 q 128 463 128 397 q 128 485 128 474 q 178 618 132 561 q 133 750 133 674 q 214 918 133 847 q 446 989 294 989 q 649 947 561 989 l 639 922 q 617 862 631 897 q 597 804 604 826 q 449 843 521 843 q 323 816 356 843 q 290 746 290 789 q 324 685 290 711 q 407 644 357 660 q 517 604 457 629 q 629 550 576 579 q 721 463 682 521 q 768 328 760 406 q 769 292 769 310 q 764 219 769 257 q 736 128 753 160 q 768 8 768 79 q 687 -197 768 -119 q 436 -274 606 -274 q 198 -194 285 -274 q 108 -11 111 -114 m 610 238 q 619 306 619 274 q 575 401 619 358 q 477 464 531 443 q 367 505 424 485 q 300 533 311 525 q 282 453 282 506 q 333 351 282 388 q 479 287 385 315 q 610 238 574 258 z "},"¨":{"ha":308,"x_min":0,"x_max":308,"o":"m 124 983 q 106 940 124 958 q 61 922 88 922 q 18 940 36 922 q 0 983 0 958 q 18 1028 0 1010 q 61 1046 36 1046 q 106 1028 88 1046 q 124 983 124 1010 m 290 940 q 281 931 290 940 q 246 922 272 922 q 201 940 219 922 q 183 985 183 958 q 201 1029 183 1011 q 246 1047 219 1047 q 290 1029 272 1047 q 308 985 308 1011 q 290 940 308 958 z "},"©":{"ha":1111,"x_min":35,"x_max":1075,"o":"m 557 -176 q 188 -26 340 -176 q 35 346 35 124 q 186 714 35 565 q 557 863 338 863 q 925 714 775 863 q 1075 346 1075 565 q 924 -26 1075 124 q 557 -176 772 -176 m 557 -28 q 817 78 711 -28 q 922 346 922 183 q 815 607 922 500 q 557 714 708 714 q 295 610 401 714 q 189 346 189 506 q 295 77 189 182 q 557 -28 401 -28 m 683 243 l 832 243 q 735 83 810 143 q 563 22 660 22 q 345 113 425 22 q 265 343 265 203 q 344 570 265 476 q 560 664 424 664 q 738 604 661 664 q 831 449 814 544 l 683 449 q 640 491 676 472 q 557 510 603 510 q 447 463 483 510 q 411 344 411 415 q 449 224 411 272 q 558 175 488 175 q 645 194 607 175 q 683 243 683 214 z "},"ª":{"ha":536,"x_min":108,"x_max":482,"o":"m 482 771 l 482 543 q 368 528 415 532 q 331 528 350 528 q 268 531 300 528 q 183 556 215 536 q 130 617 151 575 q 108 721 108 658 q 189 864 108 828 q 254 879 221 879 q 360 847 306 879 q 360 851 360 849 q 358 876 360 869 q 344 894 356 883 q 308 903 333 906 q 238 900 283 901 l 251 985 q 286 986 269 986 q 436 944 397 986 q 482 771 482 899 m 360 640 l 360 743 q 296 769 325 763 q 275 774 285 774 q 244 764 258 774 q 222 713 222 751 q 313 636 222 636 q 360 640 333 636 z "},"«":{"ha":726,"x_min":58,"x_max":725,"o":"m 418 206 l 318 111 l 58 371 l 58 372 l 318 632 l 419 532 l 253 371 l 418 206 m 724 206 l 624 111 l 364 371 l 364 372 l 624 632 l 725 532 l 558 371 l 724 206 z "},"­":{"ha":569,"x_min":63,"x_max":507,"o":"m 507 428 l 63 428 l 63 574 l 507 574 l 507 428 z "},"®":{"ha":1111,"x_min":35,"x_max":1075,"o":"m 771 54 l 621 54 l 539 318 l 531 318 l 531 54 l 386 54 l 386 661 l 543 661 q 760 488 760 661 q 756 432 760 454 q 731 382 751 410 q 671 335 710 354 l 771 54 m 531 435 l 561 435 q 611 485 611 435 q 601 524 611 507 q 574 540 592 540 l 531 540 l 531 435 m 557 -176 q 188 -26 340 -176 q 35 346 35 124 q 186 714 35 565 q 557 863 338 863 q 925 714 775 863 q 1075 346 1075 565 q 924 -26 1075 124 q 557 -176 772 -176 m 557 -28 q 817 78 711 -28 q 922 346 922 183 q 815 607 922 500 q 557 714 708 714 q 295 610 401 714 q 189 346 189 506 q 295 77 189 182 q 557 -28 401 -28 z "},"¯":{"ha":469,"x_min":108,"x_max":415,"o":"m 415 860 l 108 860 l 108 986 l 415 986 l 415 860 z "},"°":{"ha":563,"x_min":108,"x_max":508,"o":"m 450 643 q 421 614 450 643 q 308 585 392 585 q 167 643 225 585 q 108 785 108 701 q 167 926 108 868 q 308 985 225 985 q 450 926 392 985 q 508 785 508 868 q 450 643 508 701 m 379 785 q 360 834 379 813 q 308 856 340 856 q 257 834 276 856 q 238 785 238 813 q 257 735 238 756 q 308 714 276 714 q 360 735 340 714 q 379 785 379 756 z "},"±":{"ha":607,"x_min":108,"x_max":553,"o":"m 553 289 l 108 289 l 108 425 l 260 425 l 260 483 l 108 483 l 108 607 l 260 607 l 260 757 l 400 757 l 400 607 l 553 607 l 553 483 l 400 483 l 400 425 l 553 425 l 553 289 z "},"´":{"ha":308,"x_min":64,"x_max":256,"o":"m 165 817 l 64 817 l 128 967 q 174 1008 142 999 q 200 1014 189 1014 q 221 1008 213 1014 q 254 967 249 994 q 256 958 256 963 q 233 904 256 933 l 165 817 z "},"µ":{"ha":664,"x_min":51,"x_max":617,"o":"m 617 38 l 478 -8 l 475 -6 q 469 1 474 -4 q 460 10 464 6 q 358 -17 425 -17 q 328 -15 344 -17 q 204 17 257 -6 l 204 -292 l 51 -279 l 51 696 l 204 696 l 204 154 q 257 136 211 147 q 329 128 297 128 q 338 128 333 128 q 425 271 425 133 l 425 690 l 579 708 l 579 96 q 617 38 583 57 z "},"¶":{"ha":1003,"x_min":108,"x_max":949,"o":"m 949 -276 l 806 -276 l 806 883 l 711 885 l 711 -275 l 565 -276 l 565 342 l 354 342 q 274 351 310 342 q 213 378 238 360 q 169 417 188 397 q 140 471 150 438 q 122 529 129 504 q 113 596 115 554 q 109 661 110 638 q 108 728 108 685 q 172 954 108 867 q 367 1042 236 1042 l 949 1042 l 949 -276 z "},"¸":{"ha":369,"x_min":93,"x_max":429,"o":"m 93 -293 l 140 -192 q 249 -226 192 -226 q 307 -213 282 -226 q 332 -171 332 -200 q 304 -133 332 -142 q 288 -131 297 -131 q 228 -147 263 -131 l 167 -178 l 118 -108 l 203 0 l 300 0 l 263 -53 q 310 -43 289 -43 q 393 -77 357 -43 q 429 -171 429 -111 q 367 -285 429 -247 q 235 -322 306 -322 q 93 -293 172 -322 z "},"»":{"ha":721,"x_min":0,"x_max":667,"o":"m 407 111 l 307 206 l 472 371 l 306 532 l 407 632 l 667 372 l 667 371 l 407 111 m 101 111 l 1 206 l 167 371 l 0 532 l 101 632 l 361 372 l 361 371 l 101 111 z "},"¿":{"ha":676,"x_min":110,"x_max":622,"o":"m 467 246 l 622 246 q 558 71 622 142 q 375 0 493 0 q 241 38 303 0 q 144 132 179 75 q 110 260 110 188 q 157 403 110 335 q 218 478 182 439 q 271 538 254 517 q 301 607 288 558 q 315 732 314 656 l 315 819 l 467 819 l 467 690 q 447 570 467 626 q 403 482 426 514 q 344 406 379 450 q 293 339 308 363 q 264 254 264 292 q 265 239 264 247 q 300 172 272 197 q 360 146 328 146 q 440 174 414 146 q 467 246 467 201 m 393 844 q 343 865 364 844 q 322 915 322 886 q 343 964 322 943 q 393 985 364 985 q 442 964 421 985 q 463 915 463 943 q 442 865 463 886 q 393 844 421 844 z "},"À":{"ha":732,"x_min":29,"x_max":718,"o":"m 718 0 l 536 0 l 479 254 l 256 254 l 201 0 l 29 0 l 257 972 l 472 972 l 718 0 m 443 417 l 364 717 l 292 417 l 443 417 m 397 1018 l 296 1018 l 228 1106 q 206 1160 206 1135 q 207 1169 206 1164 q 240 1210 213 1196 q 261 1215 249 1215 q 288 1211 272 1215 q 333 1168 319 1200 l 397 1018 z "},"Á":{"ha":732,"x_min":29,"x_max":718,"o":"m 718 0 l 536 0 l 479 254 l 256 254 l 201 0 l 29 0 l 257 972 l 472 972 l 718 0 m 443 417 l 364 717 l 292 417 l 443 417 m 419 1015 l 318 1015 l 382 1165 q 428 1208 396 1197 q 454 1213 443 1213 q 475 1207 467 1213 q 508 1167 503 1193 q 510 1157 510 1161 q 488 1103 510 1132 l 419 1015 z "},"Â":{"ha":732,"x_min":29,"x_max":718,"o":"m 718 0 l 536 0 l 479 254 l 256 254 l 201 0 l 29 0 l 257 972 l 472 972 l 718 0 m 443 417 l 364 717 l 292 417 l 443 417 m 569 1069 l 476 1015 l 371 1131 l 258 1015 l 167 1069 l 372 1265 l 569 1069 z "},"Ã":{"ha":732,"x_min":29,"x_max":718,"o":"m 718 0 l 536 0 l 479 254 l 256 254 l 201 0 l 29 0 l 257 972 l 472 972 l 718 0 m 443 417 l 364 717 l 292 417 l 443 417 m 563 1175 l 621 1085 q 526 1017 574 1029 q 488 1011 506 1011 q 439 1021 463 1011 q 358 1056 399 1038 q 293 1069 328 1069 q 275 1069 283 1069 q 188 1019 229 1064 l 133 1110 q 231 1178 182 1164 q 272 1183 253 1183 q 319 1175 297 1183 q 400 1142 360 1158 q 465 1126 431 1126 q 481 1128 474 1126 q 563 1175 524 1132 z "},"Ä":{"ha":732,"x_min":29,"x_max":718,"o":"m 718 0 l 536 0 l 479 254 l 256 254 l 201 0 l 29 0 l 257 972 l 472 972 l 718 0 m 443 417 l 364 717 l 292 417 l 443 417 m 333 1076 q 315 1033 333 1051 q 271 1015 297 1015 q 228 1033 246 1015 q 210 1076 210 1051 q 228 1121 210 1103 q 271 1139 246 1139 q 315 1121 297 1139 q 333 1076 333 1103 m 500 1033 q 491 1024 500 1033 q 456 1015 482 1015 q 411 1033 429 1015 q 393 1078 393 1051 q 411 1122 393 1104 q 456 1140 429 1140 q 500 1122 482 1140 q 518 1078 518 1104 q 500 1033 518 1051 z "},"Å":{"ha":732,"x_min":29,"x_max":718,"o":"m 718 0 l 536 0 l 479 254 l 256 254 l 201 0 l 29 0 l 256 968 q 217 1069 217 1011 q 260 1174 217 1131 q 365 1218 304 1218 q 470 1174 426 1218 q 514 1069 514 1131 q 474 968 514 1011 l 718 0 m 443 417 l 364 717 l 292 417 l 443 417 m 335 1040 q 341 1034 335 1040 q 365 1028 347 1028 q 394 1040 383 1028 q 406 1069 406 1051 q 394 1099 406 1088 q 365 1110 383 1110 q 335 1099 347 1110 q 324 1069 324 1088 q 335 1040 324 1051 z "},"Æ":{"ha":1136,"x_min":108,"x_max":1082,"o":"m 1079 0 l 617 0 l 618 271 l 428 271 l 289 0 l 108 0 l 617 972 l 1082 972 l 1082 819 l 771 819 l 771 574 l 982 574 l 935 428 l 771 428 l 771 140 l 1079 140 l 1079 0 m 618 417 l 618 642 l 504 417 l 618 417 z "},"Ç":{"ha":597,"x_min":92,"x_max":593,"o":"m 174 -293 l 221 -192 q 329 -226 272 -226 q 388 -213 363 -226 q 413 -171 413 -200 q 385 -133 413 -142 q 368 -131 378 -131 q 308 -147 343 -131 l 247 -178 l 199 -108 l 279 -6 q 92 254 92 35 l 92 700 q 122 860 92 806 q 213 951 151 914 q 361 986 275 986 q 379 986 369 986 q 558 940 476 982 l 515 801 q 375 825 451 825 q 281 793 317 825 q 244 713 244 761 l 244 257 q 250 212 244 232 q 268 179 256 192 q 293 157 281 167 q 328 144 306 147 q 365 140 350 142 q 408 142 381 138 q 450 148 435 146 q 494 157 465 150 q 533 167 522 164 q 569 176 544 169 l 593 32 q 369 -14 479 -12 l 343 -53 q 390 -43 369 -43 q 474 -77 438 -43 q 510 -171 510 -111 q 448 -285 510 -247 q 315 -322 386 -322 q 174 -293 253 -322 z "},"È":{"ha":646,"x_min":108,"x_max":572,"o":"m 569 0 l 108 0 l 108 972 l 572 972 l 572 819 l 261 819 l 261 574 l 451 574 l 408 428 l 261 428 l 261 139 l 569 139 l 569 0 m 389 1017 l 288 1017 l 219 1104 q 197 1158 197 1133 q 199 1167 197 1163 q 232 1208 204 1194 q 253 1214 240 1214 q 279 1208 264 1214 q 325 1167 311 1199 l 389 1017 z "},"É":{"ha":646,"x_min":108,"x_max":572,"o":"m 569 0 l 108 0 l 108 972 l 572 972 l 572 819 l 261 819 l 261 574 l 451 574 l 408 428 l 261 428 l 261 139 l 569 139 l 569 0 m 431 1014 l 329 1014 l 393 1164 q 439 1206 407 1196 q 465 1211 454 1211 q 486 1206 478 1211 q 519 1164 514 1192 q 521 1156 521 1160 q 499 1101 521 1131 l 431 1014 z "},"Ê":{"ha":646,"x_min":108,"x_max":572,"o":"m 569 0 l 108 0 l 108 972 l 572 972 l 572 819 l 261 819 l 261 574 l 451 574 l 408 428 l 261 428 l 261 139 l 569 139 l 569 0 m 544 1069 l 451 1015 l 346 1131 l 233 1015 l 142 1069 l 347 1265 l 544 1069 z "},"Ë":{"ha":646,"x_min":108,"x_max":572,"o":"m 569 0 l 108 0 l 108 972 l 572 972 l 572 819 l 261 819 l 261 574 l 451 574 l 408 428 l 261 428 l 261 139 l 569 139 l 569 0 m 306 1076 q 288 1033 306 1051 q 243 1015 269 1015 q 200 1033 218 1015 q 182 1076 182 1051 q 200 1121 182 1103 q 243 1139 218 1139 q 288 1121 269 1139 q 306 1076 306 1103 m 472 1033 q 463 1024 472 1033 q 428 1015 454 1015 q 383 1033 401 1015 q 365 1078 365 1051 q 383 1122 365 1104 q 428 1140 401 1140 q 472 1122 454 1140 q 490 1078 490 1104 q 472 1033 490 1051 z "},"Ì":{"ha":458,"x_min":108,"x_max":347,"o":"m 347 0 l 194 0 l 194 822 l 108 825 l 108 972 l 347 972 l 347 0 m 344 1017 l 243 1017 l 175 1104 q 153 1158 153 1133 q 154 1167 153 1163 q 188 1208 160 1194 q 208 1214 196 1214 q 235 1208 219 1214 q 281 1167 267 1199 l 344 1017 z "},"Í":{"ha":532,"x_min":108,"x_max":421,"o":"m 347 0 l 194 0 l 194 822 l 108 825 l 108 972 l 347 972 l 347 0 m 331 1014 l 229 1014 l 293 1164 q 339 1206 307 1196 q 365 1211 354 1211 q 386 1206 378 1211 q 419 1164 414 1192 q 421 1156 421 1160 q 399 1101 421 1131 l 331 1014 z "},"Î":{"ha":622,"x_min":108,"x_max":511,"o":"m 389 0 l 236 0 l 236 822 l 150 825 l 150 972 l 389 972 l 389 0 m 511 1069 l 418 1015 l 313 1131 l 200 1015 l 108 1069 l 314 1265 l 511 1069 z "},"Ï":{"ha":528,"x_min":108,"x_max":417,"o":"m 364 0 l 211 0 l 211 822 l 125 825 l 125 972 l 364 972 l 364 0 m 232 1074 q 214 1031 232 1049 q 169 1013 196 1013 q 126 1031 144 1013 q 108 1074 108 1049 q 126 1118 108 1100 q 169 1136 144 1136 q 214 1118 196 1136 q 232 1074 232 1100 m 399 1031 q 390 1022 399 1031 q 354 1013 381 1013 q 310 1031 328 1013 q 292 1075 292 1049 q 310 1119 292 1101 q 354 1138 328 1138 q 399 1119 381 1138 q 417 1075 417 1101 q 399 1031 417 1049 z "},"Ð":{"ha":894,"x_min":108,"x_max":840,"o":"m 465 0 l 176 0 l 176 549 l 108 549 l 108 694 l 176 694 l 176 974 l 438 974 q 665 898 583 974 q 758 694 747 822 l 840 694 l 840 549 l 760 549 l 760 278 q 465 0 760 0 m 607 264 l 607 549 l 329 549 l 329 140 l 443 140 q 501 144 478 140 q 552 158 525 147 q 593 196 579 169 q 607 264 607 222 m 329 694 l 606 694 q 451 819 596 819 l 329 819 l 329 694 z "},"Ñ":{"ha":903,"x_min":108,"x_max":792,"o":"m 792 0 l 638 0 l 261 657 l 261 0 l 108 0 l 108 972 l 261 972 l 638 319 l 638 972 l 792 972 l 792 0 m 649 1174 l 707 1083 q 613 1015 660 1028 q 574 1010 592 1010 q 525 1019 549 1010 q 444 1054 485 1036 q 379 1068 414 1068 q 361 1067 369 1068 q 274 1018 315 1063 l 219 1108 q 317 1175 268 1163 q 358 1182 339 1182 q 406 1172 383 1182 q 486 1139 446 1157 q 551 1125 517 1125 q 567 1126 560 1125 q 649 1174 610 1131 z "},"Ò":{"ha":763,"x_min":88,"x_max":671,"o":"m 671 703 l 671 257 q 585 51 671 117 q 381 -15 500 -15 q 174 51 261 -15 q 88 257 88 117 l 88 704 q 166 921 88 847 q 382 994 244 994 q 595 917 519 994 q 671 703 671 839 m 518 286 l 518 653 q 491 785 518 742 q 379 829 464 829 q 267 787 294 829 q 240 654 240 744 l 240 283 q 274 178 240 217 q 379 140 308 140 q 481 181 444 140 q 518 286 518 221 m 419 1017 l 318 1017 l 250 1104 q 228 1158 228 1133 q 229 1167 228 1163 q 263 1208 235 1194 q 283 1214 271 1214 q 310 1208 294 1214 q 356 1167 342 1199 l 419 1017 z "},"Ó":{"ha":763,"x_min":88,"x_max":671,"o":"m 671 703 l 671 257 q 585 51 671 117 q 381 -15 500 -15 q 174 51 261 -15 q 88 257 88 117 l 88 704 q 166 921 88 847 q 382 994 244 994 q 595 917 519 994 q 671 703 671 839 m 518 286 l 518 653 q 491 785 518 742 q 379 829 464 829 q 267 787 294 829 q 240 654 240 744 l 240 283 q 274 178 240 217 q 379 140 308 140 q 481 181 444 140 q 518 286 518 221 m 458 1014 l 357 1014 l 421 1164 q 467 1206 435 1196 q 493 1211 482 1211 q 514 1206 506 1211 q 547 1164 542 1192 q 549 1156 549 1160 q 526 1101 549 1131 l 458 1014 z "},"Ô":{"ha":763,"x_min":88,"x_max":671,"o":"m 671 703 l 671 257 q 585 51 671 117 q 381 -15 500 -15 q 174 51 261 -15 q 88 257 88 117 l 88 704 q 166 921 88 847 q 382 994 244 994 q 595 917 519 994 q 671 703 671 839 m 518 286 l 518 653 q 491 785 518 742 q 379 829 464 829 q 267 787 294 829 q 240 654 240 744 l 240 283 q 274 178 240 217 q 379 140 308 140 q 481 181 444 140 q 518 286 518 221 m 583 1069 l 490 1015 l 385 1131 l 272 1015 l 181 1069 l 386 1265 l 583 1069 z "},"Õ":{"ha":763,"x_min":88,"x_max":671,"o":"m 671 703 l 671 257 q 585 51 671 117 q 381 -15 500 -15 q 174 51 261 -15 q 88 257 88 117 l 88 704 q 166 921 88 847 q 382 994 244 994 q 595 917 519 994 q 671 703 671 839 m 518 286 l 518 653 q 491 785 518 742 q 379 829 464 829 q 267 787 294 829 q 240 654 240 744 l 240 283 q 274 178 240 217 q 379 140 308 140 q 481 181 444 140 q 518 286 518 221 m 583 1176 l 642 1086 q 547 1018 594 1031 q 508 1013 526 1013 q 460 1022 483 1013 q 381 1057 419 1039 q 314 1071 349 1071 q 294 1069 304 1071 q 208 1021 250 1065 l 154 1111 q 251 1178 203 1165 q 293 1185 274 1185 q 340 1175 318 1185 q 419 1142 381 1160 q 486 1128 451 1128 q 503 1129 494 1128 q 583 1176 544 1133 z "},"Ö":{"ha":763,"x_min":88,"x_max":671,"o":"m 671 703 l 671 257 q 585 51 671 117 q 381 -15 500 -15 q 174 51 261 -15 q 88 257 88 117 l 88 704 q 166 921 88 847 q 382 994 244 994 q 595 917 519 994 q 671 703 671 839 m 518 286 l 518 653 q 491 785 518 742 q 379 829 464 829 q 267 787 294 829 q 240 654 240 744 l 240 283 q 274 178 240 217 q 379 140 308 140 q 481 181 444 140 q 518 286 518 221 m 346 1076 q 328 1033 346 1051 q 283 1015 310 1015 q 240 1033 258 1015 q 222 1076 222 1051 q 240 1121 222 1103 q 283 1139 258 1139 q 328 1121 310 1139 q 346 1076 346 1103 m 513 1033 q 503 1024 513 1033 q 468 1015 494 1015 q 424 1033 442 1015 q 406 1078 406 1051 q 424 1122 406 1104 q 468 1140 442 1140 q 513 1122 494 1140 q 531 1078 531 1104 q 513 1033 531 1051 z "},"×":{"ha":600,"x_min":108,"x_max":546,"o":"m 544 303 l 447 218 l 326 361 l 207 217 l 113 303 l 243 463 l 108 622 l 207 706 l 326 563 l 446 707 l 546 626 l 410 463 l 544 303 z "},"Ø":{"ha":779,"x_min":108,"x_max":725,"o":"m 271 -158 l 108 -158 l 188 68 q 119 257 119 139 l 119 704 q 198 921 119 847 q 414 994 276 994 q 506 983 461 994 l 558 1135 l 725 1135 l 642 900 q 703 703 703 824 l 703 257 q 617 51 703 117 q 413 -15 532 -15 q 324 -6 364 -15 l 271 -158 m 272 313 l 450 825 q 411 829 433 829 q 299 787 326 829 q 272 654 272 744 l 272 313 m 550 286 l 550 636 l 376 143 q 411 140 386 140 q 513 181 476 140 q 550 286 550 221 z "},"Ù":{"ha":786,"x_min":103,"x_max":688,"o":"m 535 319 l 535 974 l 688 974 l 688 258 q 662 131 688 185 q 592 47 636 76 q 500 4 549 18 q 396 -10 451 -10 q 291 4 340 -10 q 198 47 242 18 q 128 131 154 76 q 103 258 103 185 l 103 974 l 256 974 l 256 319 q 284 183 256 225 q 394 140 313 140 q 506 183 478 140 q 535 319 535 225 m 447 1017 l 346 1017 l 278 1104 q 256 1158 256 1133 q 257 1167 256 1163 q 290 1208 263 1194 q 311 1214 299 1214 q 338 1208 322 1214 q 383 1167 369 1199 l 447 1017 z "},"Ú":{"ha":786,"x_min":103,"x_max":688,"o":"m 535 319 l 535 974 l 688 974 l 688 258 q 662 131 688 185 q 592 47 636 76 q 500 4 549 18 q 396 -10 451 -10 q 291 4 340 -10 q 198 47 242 18 q 128 131 154 76 q 103 258 103 185 l 103 974 l 256 974 l 256 319 q 284 183 256 225 q 394 140 313 140 q 506 183 478 140 q 535 319 535 225 m 446 1015 l 344 1015 l 408 1165 q 454 1208 422 1197 q 481 1213 469 1213 q 501 1207 493 1213 q 535 1167 529 1193 q 536 1157 536 1161 q 514 1103 536 1132 l 446 1015 z "},"Û":{"ha":786,"x_min":103,"x_max":688,"o":"m 535 319 l 535 974 l 688 974 l 688 258 q 662 131 688 185 q 592 47 636 76 q 500 4 549 18 q 396 -10 451 -10 q 291 4 340 -10 q 198 47 242 18 q 128 131 154 76 q 103 258 103 185 l 103 974 l 256 974 l 256 319 q 284 183 256 225 q 394 140 313 140 q 506 183 478 140 q 535 319 535 225 m 596 1069 l 503 1015 l 397 1131 l 285 1015 l 193 1069 l 399 1265 l 596 1069 z "},"Ü":{"ha":786,"x_min":103,"x_max":688,"o":"m 535 319 l 535 974 l 688 974 l 688 258 q 662 131 688 185 q 592 47 636 76 q 500 4 549 18 q 396 -10 451 -10 q 291 4 340 -10 q 198 47 242 18 q 128 131 154 76 q 103 258 103 185 l 103 974 l 256 974 l 256 319 q 284 183 256 225 q 394 140 313 140 q 506 183 478 140 q 535 319 535 225 m 363 1076 q 344 1033 363 1051 q 300 1015 326 1015 q 257 1033 275 1015 q 239 1076 239 1051 q 257 1121 239 1103 q 300 1139 275 1139 q 344 1121 326 1139 q 363 1076 363 1103 m 529 1033 q 520 1024 529 1033 q 485 1015 511 1015 q 440 1033 458 1015 q 422 1078 422 1051 q 440 1122 422 1104 q 485 1140 458 1140 q 529 1122 511 1140 q 547 1078 547 1104 q 529 1033 547 1051 z "},"Ý":{"ha":761,"x_min":67,"x_max":683,"o":"m 475 -26 l 426 90 q 501 125 472 96 q 531 228 531 154 l 531 306 q 385 271 461 271 q 154 353 242 271 q 67 574 67 435 l 67 972 l 219 972 l 219 588 q 385 421 219 421 q 416 422 401 421 q 442 426 431 424 q 464 432 454 429 q 483 440 474 435 q 497 447 492 444 q 509 456 503 450 q 518 464 515 461 q 525 472 521 467 l 531 476 l 531 972 l 683 972 l 683 217 q 636 46 683 107 q 475 -26 589 -15 m 426 1015 l 325 1015 l 389 1165 q 435 1208 403 1197 q 461 1213 450 1213 q 482 1207 474 1213 q 515 1167 510 1193 q 517 1157 517 1161 q 494 1103 517 1132 l 426 1015 z "},"Þ":{"ha":686,"x_min":108,"x_max":632,"o":"m 258 0 l 108 0 l 108 972 l 258 972 l 258 683 q 368 707 311 707 q 565 632 497 707 q 632 438 632 557 q 560 234 632 307 q 374 161 489 161 q 258 193 304 161 l 258 0 m 374 306 q 448 337 415 306 q 481 439 481 368 q 455 523 481 485 q 374 561 429 561 q 294 528 331 561 q 258 442 258 494 q 292 338 258 369 q 374 306 326 306 z "},"ß":{"ha":783,"x_min":108,"x_max":729,"o":"m 260 0 l 108 0 l 108 746 q 169 911 108 849 q 332 974 231 974 q 471 937 415 974 q 543 850 526 900 q 553 786 553 818 q 550 746 553 767 q 503 661 539 693 l 475 663 q 461 621 461 642 q 472 578 461 597 q 503 537 482 560 q 546 496 525 514 q 597 451 567 478 q 649 400 628 424 q 706 316 685 361 q 729 214 726 271 q 729 204 729 208 q 700 97 729 151 q 583 -3 663 25 q 486 -18 535 -18 q 425 -11 456 -18 q 289 51 344 6 l 356 192 q 436 139 394 154 q 489 129 465 129 q 506 131 497 129 q 549 157 535 136 q 568 214 568 183 q 503 338 568 271 q 447 392 483 357 q 388 447 410 426 q 342 501 367 468 q 310 563 318 535 q 304 607 304 582 q 306 628 304 617 q 331 704 308 665 q 392 736 372 704 q 403 772 403 754 q 397 797 403 785 q 343 828 383 828 q 260 703 260 828 l 260 0 z "},"à":{"ha":697,"x_min":108,"x_max":643,"o":"m 643 414 l 643 0 q 413 -14 499 -14 q 347 -11 374 -14 q 108 215 119 14 q 108 235 108 225 l 108 350 q 204 535 108 488 q 296 557 244 557 q 311 556 304 557 q 417 541 372 553 q 490 513 461 529 q 342 601 490 601 l 354 707 q 449 701 407 707 q 521 680 492 694 q 572 650 550 665 q 607 610 594 635 q 628 566 619 585 q 639 515 636 547 q 642 465 642 483 q 643 414 643 447 m 490 135 l 490 350 q 433 378 468 365 q 358 399 397 392 q 335 400 346 400 q 290 389 310 400 q 263 331 263 372 l 263 254 q 410 126 263 126 q 490 135 446 126 m 419 750 l 318 750 l 250 838 q 228 892 228 867 q 229 900 228 896 q 263 942 235 928 q 283 947 271 947 q 310 942 294 947 q 356 900 342 932 l 419 750 z "},"á":{"ha":697,"x_min":108,"x_max":643,"o":"m 643 414 l 643 0 q 413 -14 499 -14 q 347 -11 374 -14 q 108 215 119 14 q 108 235 108 225 l 108 350 q 204 535 108 488 q 296 557 244 557 q 311 556 304 557 q 417 541 372 553 q 490 513 461 529 q 342 601 490 601 l 354 707 q 449 701 407 707 q 521 680 492 694 q 572 650 550 665 q 607 610 594 635 q 628 566 619 585 q 639 515 636 547 q 642 465 642 483 q 643 414 643 447 m 490 135 l 490 350 q 433 378 468 365 q 358 399 397 392 q 335 400 346 400 q 290 389 310 400 q 263 331 263 372 l 263 254 q 410 126 263 126 q 490 135 446 126 m 460 747 l 358 747 l 422 897 q 468 939 436 929 q 494 944 483 944 q 515 939 507 944 q 549 897 543 925 q 550 889 550 893 q 528 835 550 864 l 460 747 z "},"â":{"ha":697,"x_min":108,"x_max":643,"o":"m 643 414 l 643 0 q 413 -14 499 -14 q 347 -11 374 -14 q 108 215 119 14 q 108 235 108 225 l 108 350 q 204 535 108 488 q 296 557 244 557 q 311 556 304 557 q 417 541 372 553 q 490 513 461 529 q 342 601 490 601 l 354 707 q 449 701 407 707 q 521 680 492 694 q 572 650 550 665 q 607 610 594 635 q 628 566 619 585 q 639 515 636 547 q 642 465 642 483 q 643 414 643 447 m 490 135 l 490 350 q 433 378 468 365 q 358 399 397 392 q 335 400 346 400 q 290 389 310 400 q 263 331 263 372 l 263 254 q 410 126 263 126 q 490 135 446 126 m 592 801 l 499 747 l 393 863 l 281 747 l 189 801 l 394 997 l 592 801 z "},"ã":{"ha":697,"x_min":108,"x_max":643,"o":"m 643 414 l 643 0 q 413 -14 499 -14 q 347 -11 374 -14 q 108 215 119 14 q 108 235 108 225 l 108 350 q 204 535 108 488 q 296 557 244 557 q 311 556 304 557 q 417 541 372 553 q 490 513 461 529 q 342 601 490 601 l 354 707 q 449 701 407 707 q 521 680 492 694 q 572 650 550 665 q 607 610 594 635 q 628 566 619 585 q 639 515 636 547 q 642 465 642 483 q 643 414 643 447 m 490 135 l 490 350 q 433 378 468 365 q 358 399 397 392 q 335 400 346 400 q 290 389 310 400 q 263 331 263 372 l 263 254 q 410 126 263 126 q 490 135 446 126 m 572 913 l 631 822 q 536 754 583 767 q 497 749 515 749 q 449 758 472 749 q 369 793 408 775 q 303 807 338 807 q 283 806 293 807 q 197 757 239 801 l 143 847 q 240 914 192 901 q 282 921 263 921 q 329 911 307 921 q 408 878 369 896 q 475 864 440 864 q 492 865 483 864 q 572 913 533 869 z "},"ä":{"ha":697,"x_min":108,"x_max":643,"o":"m 643 414 l 643 0 q 413 -14 499 -14 q 347 -11 374 -14 q 108 215 119 14 q 108 235 108 225 l 108 350 q 204 535 108 488 q 296 557 244 557 q 311 556 304 557 q 417 541 372 553 q 490 513 461 529 q 342 601 490 601 l 354 707 q 449 701 407 707 q 521 680 492 694 q 572 650 550 665 q 607 610 594 635 q 628 566 619 585 q 639 515 636 547 q 642 465 642 483 q 643 414 643 447 m 490 135 l 490 350 q 433 378 468 365 q 358 399 397 392 q 335 400 346 400 q 290 389 310 400 q 263 331 263 372 l 263 254 q 410 126 263 126 q 490 135 446 126 m 360 810 q 342 767 360 785 q 297 749 324 749 q 254 767 272 749 q 236 810 236 785 q 254 854 236 836 q 297 872 272 872 q 342 854 324 872 q 360 810 360 836 m 526 767 q 517 758 526 767 q 482 749 508 749 q 438 767 456 749 q 419 811 419 785 q 438 856 419 838 q 482 874 456 874 q 526 856 508 874 q 544 811 544 838 q 526 767 544 785 z "},"å":{"ha":697,"x_min":108,"x_max":643,"o":"m 643 414 l 643 0 q 413 -14 499 -14 q 347 -11 374 -14 q 108 215 119 14 q 108 235 108 225 l 108 350 q 204 535 108 488 q 296 557 244 557 q 311 556 304 557 q 417 541 372 553 q 490 513 461 529 q 342 601 490 601 l 342 603 q 251 652 288 610 q 214 750 214 694 q 258 855 214 811 q 363 899 301 899 q 467 855 424 899 q 511 750 511 811 q 497 689 511 719 q 581 644 549 672 q 625 572 613 615 q 640 498 638 528 q 643 414 643 468 m 490 135 l 490 350 q 433 378 468 365 q 358 399 397 392 q 335 400 346 400 q 290 389 310 400 q 263 331 263 372 l 263 254 q 410 126 263 126 q 490 135 446 126 m 333 720 q 339 714 333 720 q 363 708 344 708 q 392 720 381 708 q 403 750 403 732 q 392 779 403 768 q 363 790 381 790 q 333 779 344 790 q 321 750 321 768 q 333 720 321 732 z "},"æ":{"ha":1044,"x_min":108,"x_max":990,"o":"m 990 264 l 644 246 l 644 207 q 708 126 644 136 q 728 125 718 125 q 900 181 790 125 l 956 49 q 726 -17 853 -14 q 708 -17 718 -17 q 615 -3 657 -17 q 540 -10 567 -7 q 464 -14 513 -12 q 428 -14 444 -14 q 386 -14 404 -14 q 315 -6 357 -11 q 247 12 274 0 q 192 42 221 24 q 147 88 163 61 q 119 151 131 114 q 108 235 108 189 l 108 350 q 204 535 108 488 q 296 557 244 557 q 311 556 304 557 q 417 541 372 553 q 490 513 461 529 q 342 601 490 601 l 354 707 q 568 653 499 707 q 746 708 636 708 q 926 647 861 708 q 990 475 990 585 l 990 264 m 490 135 l 490 350 q 433 378 468 365 q 358 399 397 392 q 335 400 346 400 q 290 389 310 400 q 263 331 263 372 l 263 254 q 410 126 263 126 q 490 135 446 126 m 836 399 l 836 472 q 810 536 836 514 q 744 558 783 558 q 668 531 692 558 q 644 469 644 503 l 644 386 l 836 399 z "},"ç":{"ha":532,"x_min":50,"x_max":497,"o":"m 124 -293 l 171 -192 q 279 -226 222 -226 q 338 -213 313 -226 q 363 -171 363 -200 q 335 -133 363 -142 q 318 -131 328 -131 q 258 -147 293 -131 l 197 -178 l 149 -108 l 231 -4 q 218 -1 226 -3 q 206 3 210 1 q 87 88 124 31 q 50 250 50 146 l 50 428 q 89 593 50 526 q 192 686 128 660 q 308 708 244 708 q 335 707 321 708 q 494 664 414 701 l 453 532 q 329 557 381 557 q 267 544 292 557 q 203 436 203 514 l 203 235 q 235 165 203 189 q 311 139 267 140 q 329 139 319 139 q 394 143 364 139 q 456 158 433 149 l 497 8 q 329 -14 410 -14 q 319 -14 324 -14 l 293 -53 q 340 -43 319 -43 q 424 -77 388 -43 q 460 -171 460 -111 q 398 -285 460 -247 q 265 -322 336 -322 q 124 -293 203 -322 z "},"è":{"ha":663,"x_min":108,"x_max":608,"o":"m 608 264 l 263 246 l 263 207 q 328 126 263 136 q 346 125 336 125 q 518 181 408 125 l 574 49 q 344 -17 471 -14 q 333 -17 339 -17 q 172 31 233 -17 q 108 186 108 82 l 108 471 q 178 646 108 583 q 364 708 249 708 q 544 647 479 708 q 608 475 608 585 l 608 264 m 454 399 l 454 472 q 428 536 454 514 q 363 558 401 558 q 286 531 310 558 q 263 469 263 503 l 263 386 l 454 399 m 408 750 l 307 750 l 239 838 q 217 892 217 867 q 218 900 217 896 q 251 942 224 928 q 272 947 260 947 q 299 942 283 947 q 344 900 331 932 l 408 750 z "},"é":{"ha":663,"x_min":108,"x_max":608,"o":"m 608 264 l 263 246 l 263 207 q 328 126 263 136 q 346 125 336 125 q 518 181 408 125 l 574 49 q 344 -17 471 -14 q 333 -17 339 -17 q 172 31 233 -17 q 108 186 108 82 l 108 471 q 178 646 108 583 q 364 708 249 708 q 544 647 479 708 q 608 475 608 585 l 608 264 m 454 399 l 454 472 q 428 536 454 514 q 363 558 401 558 q 286 531 310 558 q 263 469 263 503 l 263 386 l 454 399 m 435 747 l 333 747 l 397 897 q 443 939 411 929 q 469 944 458 944 q 490 939 482 944 q 524 897 518 925 q 525 889 525 893 q 503 835 525 864 l 435 747 z "},"ê":{"ha":663,"x_min":108,"x_max":608,"o":"m 608 264 l 263 246 l 263 207 q 328 126 263 136 q 346 125 336 125 q 518 181 408 125 l 574 49 q 344 -17 471 -14 q 333 -17 339 -17 q 172 31 233 -17 q 108 186 108 82 l 108 471 q 178 646 108 583 q 364 708 249 708 q 544 647 479 708 q 608 475 608 585 l 608 264 m 454 399 l 454 472 q 428 536 454 514 q 363 558 401 558 q 286 531 310 558 q 263 469 263 503 l 263 386 l 454 399 m 581 801 l 488 747 l 382 863 l 269 747 l 178 801 l 383 997 l 581 801 z "},"ë":{"ha":746,"x_min":49,"x_max":549,"o":"m 549 264 l 203 246 l 203 207 q 267 126 203 136 q 286 125 276 125 q 458 181 349 125 l 514 49 q 285 -17 411 -14 q 274 -17 279 -17 q 113 31 174 -17 q 49 186 49 82 l 49 471 q 119 646 49 583 q 304 708 189 708 q 484 647 419 708 q 549 475 549 585 l 549 264 m 394 399 l 394 472 q 368 536 394 514 q 303 558 342 558 q 226 531 250 558 q 203 469 203 503 l 203 386 l 394 399 m 269 810 q 251 767 269 785 q 207 749 233 749 q 164 767 182 749 q 146 810 146 785 q 164 854 146 836 q 207 872 182 872 q 251 854 233 872 q 269 810 269 836 m 436 767 q 427 758 436 767 q 392 749 418 749 q 347 767 365 749 q 329 811 329 785 q 347 856 329 838 q 392 874 365 874 q 436 856 418 874 q 454 811 454 838 q 436 767 454 785 z "},"ì":{"ha":381,"x_min":108,"x_max":326,"o":"m 300 750 l 199 750 l 131 838 q 108 892 108 867 q 110 900 108 896 q 143 942 115 928 q 164 947 151 947 q 190 942 175 947 q 236 900 222 932 l 300 750 m 326 0 l 174 0 l 174 696 l 326 696 l 326 0 z "},"í":{"ha":386,"x_min":108,"x_max":332,"o":"m 242 747 l 140 747 l 204 897 q 250 939 218 929 q 276 944 265 944 q 297 939 289 944 q 331 897 325 925 q 332 889 332 893 q 310 835 332 864 l 242 747 m 261 0 l 108 0 l 108 696 l 261 696 l 261 0 z "},"î":{"ha":321,"x_min":-50,"x_max":353,"o":"m 353 801 l 260 747 l 154 863 l 42 747 l -50 801 l 156 997 l 353 801 m 229 0 l 76 0 l 76 696 l 229 696 l 229 0 z "},"ï":{"ha":471,"x_min":108,"x_max":417,"o":"m 232 810 q 214 767 232 785 q 169 749 196 749 q 126 767 144 749 q 108 810 108 785 q 126 854 108 836 q 169 872 144 872 q 214 854 196 872 q 232 810 232 836 m 399 767 q 390 758 399 767 q 354 749 381 749 q 310 767 328 749 q 292 811 292 785 q 310 856 292 838 q 354 874 328 874 q 399 856 381 874 q 417 811 417 838 q 399 767 417 785 m 335 0 l 182 0 l 182 696 l 335 696 l 335 0 z "},"ñ":{"ha":675,"x_min":108,"x_max":621,"o":"m 621 0 l 468 0 l 468 438 q 408 549 468 518 q 354 561 383 561 q 260 536 311 561 l 260 0 l 108 0 l 108 696 l 243 696 l 261 688 q 382 708 325 708 q 503 682 446 708 q 621 481 621 628 l 621 0 m 557 914 l 615 824 q 521 756 568 768 q 482 750 500 750 q 433 760 457 750 q 353 794 393 776 q 288 808 322 808 q 269 808 278 808 q 182 758 224 803 l 128 849 q 225 917 176 903 q 267 922 247 922 q 314 914 292 922 q 394 881 354 897 q 460 865 425 865 q 475 867 468 865 q 557 914 518 871 z "},"ò":{"ha":681,"x_min":108,"x_max":626,"o":"m 626 439 l 626 256 q 563 63 626 139 q 369 -14 499 -14 q 174 63 240 -14 q 108 256 108 140 l 108 439 q 176 641 108 571 q 369 711 243 711 q 558 638 490 711 q 626 439 626 565 m 475 242 l 475 439 q 465 505 475 479 q 437 541 456 531 q 403 554 418 551 q 369 557 389 557 q 261 439 261 557 l 261 242 q 369 136 261 136 q 445 163 415 136 q 475 242 475 189 m 407 750 l 306 750 l 238 838 q 215 892 215 867 q 217 900 215 896 q 250 942 222 928 q 271 947 258 947 q 297 942 282 947 q 343 900 329 932 l 407 750 z "},"ó":{"ha":681,"x_min":108,"x_max":626,"o":"m 626 439 l 626 256 q 563 63 626 139 q 369 -14 499 -14 q 174 63 240 -14 q 108 256 108 140 l 108 439 q 176 641 108 571 q 369 711 243 711 q 558 638 490 711 q 626 439 626 565 m 475 242 l 475 439 q 465 505 475 479 q 437 541 456 531 q 403 554 418 551 q 369 557 389 557 q 261 439 261 557 l 261 242 q 369 136 261 136 q 445 163 415 136 q 475 242 475 189 m 433 747 l 332 747 l 396 897 q 442 939 410 929 q 468 944 457 944 q 489 939 481 944 q 522 897 517 925 q 524 889 524 893 q 501 835 524 864 l 433 747 z "},"ô":{"ha":681,"x_min":108,"x_max":626,"o":"m 626 439 l 626 256 q 563 63 626 139 q 369 -14 499 -14 q 174 63 240 -14 q 108 256 108 140 l 108 439 q 176 641 108 571 q 369 711 243 711 q 558 638 490 711 q 626 439 626 565 m 475 242 l 475 439 q 465 505 475 479 q 437 541 456 531 q 403 554 418 551 q 369 557 389 557 q 261 439 261 557 l 261 242 q 369 136 261 136 q 445 163 415 136 q 475 242 475 189 m 576 801 l 483 747 l 378 863 l 265 747 l 174 801 l 379 997 l 576 801 z "},"õ":{"ha":682,"x_min":108,"x_max":628,"o":"m 626 439 l 626 256 q 563 63 626 139 q 369 -14 499 -14 q 174 63 240 -14 q 108 256 108 140 l 108 439 q 176 641 108 571 q 369 711 243 711 q 558 638 490 711 q 626 439 626 565 m 475 242 l 475 439 q 465 505 475 479 q 437 541 456 531 q 403 554 418 551 q 369 557 389 557 q 261 439 261 557 l 261 242 q 369 136 261 136 q 445 163 415 136 q 475 242 475 189 m 569 878 l 628 788 q 533 719 581 732 q 494 714 513 714 q 446 724 469 714 q 367 758 406 740 q 300 772 335 772 q 281 772 290 772 q 194 722 236 767 l 140 813 q 238 881 189 867 q 279 886 260 886 q 326 878 304 886 q 406 844 367 861 q 472 829 438 829 q 489 831 481 829 q 569 878 531 835 z "},"ö":{"ha":681,"x_min":108,"x_max":626,"o":"m 626 439 l 626 256 q 563 63 626 139 q 369 -14 499 -14 q 174 63 240 -14 q 108 256 108 140 l 108 439 q 176 641 108 571 q 369 711 243 711 q 558 638 490 711 q 626 439 626 565 m 475 242 l 475 439 q 465 505 475 479 q 437 541 456 531 q 403 554 418 551 q 369 557 389 557 q 261 439 261 557 l 261 242 q 369 136 261 136 q 445 163 415 136 q 475 242 475 189 m 344 810 q 326 767 344 785 q 282 749 308 749 q 239 767 257 749 q 221 810 221 785 q 239 854 221 836 q 282 872 257 872 q 326 854 308 872 q 344 810 344 836 m 511 767 q 502 758 511 767 q 467 749 493 749 q 422 767 440 749 q 404 811 404 785 q 422 856 404 838 q 467 874 440 874 q 511 856 493 874 q 529 811 529 838 q 511 767 529 785 z "},"÷":{"ha":607,"x_min":108,"x_max":553,"o":"m 553 471 l 108 471 l 108 594 l 553 594 l 553 471 m 388 643 q 376 632 388 643 q 335 621 365 621 q 282 643 304 621 q 260 696 260 665 q 282 749 260 726 q 335 771 304 771 q 388 749 365 771 q 410 696 410 726 q 388 643 410 665 m 388 311 q 376 300 388 311 q 335 289 365 289 q 282 311 304 289 q 260 364 260 333 q 282 417 260 394 q 335 439 304 439 q 388 417 365 439 q 410 364 410 394 q 388 311 410 333 z "},"ø":{"ha":701,"x_min":108,"x_max":647,"o":"m 254 -93 l 108 -93 l 175 64 q 110 256 110 138 l 110 439 q 177 641 110 571 q 371 711 244 711 q 449 701 415 711 l 499 817 l 647 817 l 567 629 q 628 439 628 557 l 628 256 q 564 63 628 139 q 371 -14 500 -14 q 292 -4 325 -14 l 254 -93 m 263 265 l 386 556 q 371 557 381 557 q 263 439 263 557 l 263 265 m 476 242 l 476 421 l 353 136 l 371 136 q 447 163 417 136 q 476 242 476 189 z "},"ù":{"ha":681,"x_min":108,"x_max":626,"o":"m 626 0 l 483 0 l 474 8 q 369 -15 411 -15 q 108 239 108 -15 l 108 696 l 261 696 l 261 261 q 284 167 261 197 q 369 136 307 136 q 453 170 432 136 q 474 267 474 204 l 474 696 l 626 696 l 626 0 m 417 750 l 315 750 l 247 838 q 225 892 225 867 q 226 900 225 896 q 260 942 232 928 q 281 947 268 947 q 307 942 292 947 q 353 900 339 932 l 417 750 z "},"ú":{"ha":681,"x_min":108,"x_max":626,"o":"m 626 0 l 483 0 l 474 8 q 369 -15 411 -15 q 108 239 108 -15 l 108 696 l 261 696 l 261 261 q 284 167 261 197 q 369 136 307 136 q 453 170 432 136 q 474 267 474 204 l 474 696 l 626 696 l 626 0 m 433 747 l 332 747 l 396 897 q 442 939 410 929 q 468 944 457 944 q 489 939 481 944 q 522 897 517 925 q 524 889 524 893 q 501 835 524 864 l 433 747 z "},"û":{"ha":681,"x_min":108,"x_max":626,"o":"m 626 0 l 483 0 l 474 8 q 369 -15 411 -15 q 108 239 108 -15 l 108 696 l 261 696 l 261 261 q 284 167 261 197 q 369 136 307 136 q 453 170 432 136 q 474 267 474 204 l 474 696 l 626 696 l 626 0 m 569 801 l 476 747 l 371 863 l 258 747 l 167 801 l 372 997 l 569 801 z "},"ü":{"ha":681,"x_min":108,"x_max":626,"o":"m 626 0 l 483 0 l 474 8 q 369 -15 411 -15 q 108 239 108 -15 l 108 696 l 261 696 l 261 261 q 284 167 261 197 q 369 136 307 136 q 453 170 432 136 q 474 267 474 204 l 474 696 l 626 696 l 626 0 m 338 810 q 319 767 338 785 q 275 749 301 749 q 232 767 250 749 q 214 810 214 785 q 232 854 214 836 q 275 872 250 872 q 319 854 301 872 q 338 810 338 836 m 504 767 q 495 758 504 767 q 460 749 486 749 q 415 767 433 749 q 397 811 397 785 q 415 856 397 838 q 460 874 433 874 q 504 856 486 874 q 522 811 522 838 q 504 767 522 785 z "},"ý":{"ha":767,"x_min":108,"x_max":713,"o":"m 443 -292 l 383 -171 q 448 -149 419 -171 q 476 -78 476 -126 l 476 3 q 363 -17 414 -17 q 174 49 240 -17 q 108 244 108 115 l 108 696 l 261 696 l 261 286 q 285 167 261 199 q 363 136 308 136 q 450 166 424 136 q 476 286 476 196 l 476 504 q 527 640 476 578 q 656 708 578 701 l 713 583 q 651 545 672 574 q 629 482 629 517 l 629 -85 q 587 -227 629 -175 q 443 -292 544 -279 m 429 747 l 328 747 l 392 897 q 438 939 406 929 q 464 944 453 944 q 485 939 476 944 q 518 897 513 925 q 519 889 519 893 q 497 835 519 864 l 429 747 z "},"þ":{"ha":686,"x_min":108,"x_max":632,"o":"m 258 0 l 108 0 l 108 817 l 258 817 l 258 683 q 368 707 311 707 q 565 632 497 707 q 632 438 632 557 q 560 234 632 307 q 374 161 489 161 q 258 193 304 161 l 258 0 m 374 306 q 448 337 415 306 q 481 439 481 368 q 455 523 481 485 q 374 561 429 561 q 294 528 331 561 q 258 442 258 494 q 292 338 258 369 q 374 306 326 306 z "},"ÿ":{"ha":767,"x_min":108,"x_max":713,"o":"m 443 -292 l 383 -171 q 448 -149 419 -171 q 476 -78 476 -126 l 476 3 q 363 -17 414 -17 q 174 49 240 -17 q 108 244 108 115 l 108 696 l 261 696 l 261 286 q 285 167 261 199 q 363 136 308 136 q 450 166 424 136 q 476 286 476 196 l 476 504 q 527 640 476 578 q 656 708 578 701 l 713 583 q 651 545 672 574 q 629 482 629 517 l 629 -85 q 587 -227 629 -175 q 443 -292 544 -279 m 513 767 q 503 758 513 767 q 468 749 494 749 q 424 767 442 749 q 406 811 406 785 q 424 856 406 838 q 468 874 442 874 q 513 856 494 874 q 531 811 531 838 q 513 767 531 785 m 346 810 q 328 767 346 785 q 283 749 310 749 q 240 767 258 749 q 222 810 222 785 q 240 854 222 836 q 283 872 258 872 q 328 854 310 872 q 346 810 346 836 z "},"Ā":{"ha":732,"x_min":29,"x_max":718,"o":"m 718 0 l 536 0 l 479 254 l 256 254 l 201 0 l 29 0 l 257 972 l 472 972 l 718 0 m 443 417 l 364 717 l 292 417 l 443 417 m 511 1014 l 210 1014 l 210 1140 l 511 1140 l 511 1014 z "},"ā":{"ha":697,"x_min":108,"x_max":643,"o":"m 643 414 l 643 0 q 413 -14 499 -14 q 347 -11 374 -14 q 108 215 119 14 q 108 235 108 225 l 108 350 q 204 535 108 488 q 296 557 244 557 q 311 556 304 557 q 417 541 372 553 q 490 513 461 529 q 342 601 490 601 l 354 707 q 449 701 407 707 q 521 680 492 694 q 572 650 550 665 q 607 610 594 635 q 628 566 619 585 q 639 515 636 547 q 642 465 642 483 q 643 414 643 447 m 490 135 l 490 350 q 433 378 468 365 q 358 399 397 392 q 335 400 346 400 q 290 389 310 400 q 263 331 263 372 l 263 254 q 410 126 263 126 q 490 135 446 126 m 536 747 l 235 747 l 235 874 l 536 874 l 536 747 z "},"Ă":{"ha":732,"x_min":29,"x_max":718,"o":"m 718 0 l 536 0 l 479 254 l 256 254 l 201 0 l 29 0 l 257 972 l 472 972 l 718 0 m 443 417 l 364 717 l 292 417 l 443 417 m 525 1178 l 525 1171 q 479 1060 525 1106 q 368 1014 433 1014 q 257 1060 303 1014 q 211 1171 211 1106 l 211 1178 l 326 1178 l 326 1171 q 368 1122 326 1122 q 399 1135 388 1122 q 411 1171 411 1149 l 411 1178 l 525 1178 z "},"ă":{"ha":697,"x_min":108,"x_max":643,"o":"m 643 414 l 643 0 q 413 -14 499 -14 q 347 -11 374 -14 q 108 215 119 14 q 108 235 108 225 l 108 350 q 204 535 108 488 q 296 557 244 557 q 311 556 304 557 q 417 541 372 553 q 490 513 461 529 q 342 601 490 601 l 354 707 q 449 701 407 707 q 521 680 492 694 q 572 650 550 665 q 607 610 594 635 q 628 566 619 585 q 639 515 636 547 q 642 465 642 483 q 643 414 643 447 m 490 135 l 490 350 q 433 378 468 365 q 358 399 397 392 q 335 400 346 400 q 290 389 310 400 q 263 331 263 372 l 263 254 q 410 126 263 126 q 490 135 446 126 m 586 911 l 586 904 q 540 793 586 839 q 429 747 494 747 q 318 793 364 747 q 272 904 272 839 l 272 911 l 388 911 l 388 904 q 429 856 388 856 q 460 869 449 856 q 472 904 472 882 l 472 911 l 586 911 z "},"Ą":{"ha":899,"x_min":108,"x_max":844,"o":"m 776 -153 l 844 -226 q 784 -281 819 -265 q 692 -296 749 -296 q 642 -285 669 -296 q 592 -242 615 -274 q 571 -172 571 -211 q 571 -162 571 -167 q 700 0 575 -76 l 615 0 l 558 254 l 335 254 l 281 0 l 108 0 l 336 972 l 551 972 l 797 0 l 796 0 q 671 -161 671 -103 q 671 -168 671 -165 q 717 -201 676 -201 q 747 -190 729 -201 q 776 -153 764 -178 m 522 417 l 443 717 l 371 417 l 522 417 z "},"ą":{"ha":683,"x_min":51,"x_max":633,"o":"m 565 -153 l 633 -226 q 573 -281 608 -265 q 481 -296 538 -296 q 431 -285 458 -296 q 381 -242 404 -274 q 360 -172 360 -211 q 360 -162 360 -167 q 472 -10 364 -82 q 351 -14 411 -12 q 340 -14 346 -14 q 238 -1 286 -14 q 142 37 183 13 q 76 112 100 61 q 51 235 51 163 l 51 350 q 147 535 51 488 q 239 557 188 557 q 254 556 247 557 q 360 541 315 553 q 433 513 404 529 q 285 601 433 601 l 297 707 q 392 701 350 707 q 464 680 435 694 q 515 650 493 665 q 550 610 538 635 q 571 566 563 585 q 582 515 579 547 q 585 465 585 483 q 586 414 586 447 l 586 0 l 585 0 q 460 -161 460 -103 q 460 -168 460 -165 q 506 -201 465 -201 q 535 -190 518 -201 q 565 -153 553 -178 m 433 135 l 433 350 q 376 378 411 365 q 300 399 340 392 q 278 400 289 400 q 233 389 253 400 q 206 331 206 372 l 206 254 q 353 126 206 126 q 433 135 389 126 z "},"Ć":{"ha":597,"x_min":92,"x_max":593,"o":"m 569 176 l 593 32 q 457 -6 525 6 q 368 -14 413 -14 q 322 -11 346 -14 q 205 22 256 -6 q 123 108 154 49 q 92 254 92 167 l 92 700 q 122 860 92 806 q 213 951 151 914 q 361 986 275 986 q 379 986 369 986 q 558 940 476 982 l 515 801 q 375 825 451 825 q 281 793 317 825 q 244 713 244 761 l 244 257 q 250 212 244 232 q 268 179 256 192 q 293 157 281 167 q 328 144 306 147 q 365 140 350 142 q 408 142 381 138 q 450 148 435 146 q 494 157 465 150 q 533 167 522 164 q 569 176 544 169 m 413 1019 l 311 1019 l 375 1169 q 421 1211 389 1201 q 447 1217 436 1217 q 468 1211 460 1217 q 501 1169 496 1197 q 503 1161 503 1165 q 481 1107 503 1136 l 413 1019 z "},"ć":{"ha":610,"x_min":108,"x_max":556,"o":"m 514 158 l 556 8 q 390 -15 467 -15 q 264 3 322 -15 q 145 88 182 31 q 108 250 108 146 l 108 428 q 147 593 108 526 q 250 686 186 660 q 367 708 303 708 q 393 707 379 708 q 553 664 472 701 l 511 532 q 388 557 439 557 q 325 544 350 557 q 261 436 261 514 l 261 235 q 293 165 261 189 q 369 139 325 140 q 388 139 378 139 q 453 143 422 139 q 514 158 492 149 m 392 747 l 290 747 l 354 897 q 400 939 368 929 q 426 944 415 944 q 447 939 439 944 q 481 897 475 925 q 482 889 482 893 q 460 835 482 864 l 392 747 z "},"Ĉ":{"ha":597,"x_min":92,"x_max":593,"o":"m 544 1069 l 451 1015 l 346 1131 l 233 1015 l 142 1069 l 347 1265 l 544 1069 m 569 176 l 593 32 q 457 -6 525 6 q 368 -14 413 -14 q 322 -11 346 -14 q 205 22 256 -6 q 123 108 154 49 q 92 254 92 167 l 92 700 q 122 860 92 806 q 213 951 151 914 q 361 986 275 986 q 379 986 369 986 q 558 940 476 982 l 515 801 q 375 825 451 825 q 281 793 317 825 q 244 713 244 761 l 244 257 q 250 212 244 232 q 268 179 256 192 q 293 157 281 167 q 328 144 306 147 q 365 140 350 142 q 408 142 381 138 q 450 148 435 146 q 494 157 465 150 q 533 167 522 164 q 569 176 544 169 z "},"ĉ":{"ha":614,"x_min":108,"x_max":560,"o":"m 514 158 l 556 8 q 390 -15 467 -15 q 264 3 322 -15 q 145 88 182 31 q 108 250 108 146 l 108 428 q 147 593 108 526 q 250 686 186 660 q 367 708 303 708 q 393 707 379 708 q 553 664 472 701 l 511 532 q 388 557 439 557 q 325 544 350 557 q 261 436 261 514 l 261 235 q 293 165 261 189 q 369 139 325 140 q 388 139 378 139 q 453 143 422 139 q 514 158 492 149 m 560 803 l 467 749 l 361 864 l 249 749 l 157 803 l 363 999 l 560 803 z "},"Ċ":{"ha":597,"x_min":92,"x_max":593,"o":"m 569 176 l 593 32 q 457 -6 525 6 q 368 -14 413 -14 q 322 -11 346 -14 q 205 22 256 -6 q 123 108 154 49 q 92 254 92 167 l 92 700 q 122 860 92 806 q 213 951 151 914 q 361 986 275 986 q 379 986 369 986 q 558 940 476 982 l 515 801 q 375 825 451 825 q 281 793 317 825 q 244 713 244 761 l 244 257 q 250 212 244 232 q 268 179 256 192 q 293 157 281 167 q 328 144 306 147 q 365 140 350 142 q 408 142 381 138 q 450 148 435 146 q 494 157 465 150 q 533 167 522 164 q 569 176 544 169 m 369 1014 q 311 1039 336 1014 q 286 1097 286 1064 q 311 1153 286 1129 q 369 1178 336 1178 q 426 1153 401 1178 q 450 1097 450 1129 q 426 1039 450 1064 q 369 1014 401 1014 z "},"ċ":{"ha":610,"x_min":108,"x_max":556,"o":"m 514 158 l 556 8 q 390 -15 467 -15 q 264 3 322 -15 q 145 88 182 31 q 108 250 108 146 l 108 428 q 147 593 108 526 q 250 686 186 660 q 367 708 303 708 q 393 707 379 708 q 553 664 472 701 l 511 532 q 388 557 439 557 q 325 544 350 557 q 261 436 261 514 l 261 235 q 293 165 261 189 q 369 139 325 140 q 388 139 378 139 q 453 143 422 139 q 514 158 492 149 m 368 747 q 310 772 335 747 q 285 831 285 797 q 310 887 285 863 q 368 911 335 911 q 424 887 400 911 q 449 831 449 863 q 424 772 449 797 q 368 747 400 747 z "},"Č":{"ha":597,"x_min":92,"x_max":593,"o":"m 569 176 l 593 32 q 457 -6 525 6 q 368 -14 413 -14 q 322 -11 346 -14 q 205 22 256 -6 q 123 108 154 49 q 92 254 92 167 l 92 700 q 122 860 92 806 q 213 951 151 914 q 361 986 275 986 q 379 986 369 986 q 558 940 476 982 l 515 801 q 375 825 451 825 q 281 793 317 825 q 244 713 244 761 l 244 257 q 250 212 244 232 q 268 179 256 192 q 293 157 281 167 q 328 144 306 147 q 365 140 350 142 q 408 142 381 138 q 450 148 435 146 q 494 157 465 150 q 533 167 522 164 q 569 176 544 169 m 553 1215 l 356 1019 l 150 1215 l 242 1269 l 354 1154 l 460 1269 l 553 1215 z "},"č":{"ha":611,"x_min":108,"x_max":557,"o":"m 514 158 l 556 8 q 390 -15 467 -15 q 264 3 322 -15 q 145 88 182 31 q 108 250 108 146 l 108 428 q 147 593 108 526 q 250 686 186 660 q 367 708 303 708 q 393 707 379 708 q 553 664 472 701 l 511 532 q 388 557 439 557 q 325 544 350 557 q 261 436 261 514 l 261 235 q 293 165 261 189 q 369 139 325 140 q 388 139 378 139 q 453 143 422 139 q 514 158 492 149 m 557 950 l 360 754 l 154 950 l 246 1004 l 358 889 l 464 1004 l 557 950 z "},"Ď":{"ha":800,"x_min":108,"x_max":692,"o":"m 397 0 l 108 0 l 108 974 l 369 974 q 609 888 526 974 q 692 658 692 801 l 692 278 q 397 0 692 0 m 539 264 l 539 672 q 501 784 539 749 q 383 819 463 819 l 261 819 l 261 140 l 375 140 q 433 144 410 140 q 484 158 457 147 q 525 196 511 169 q 539 264 539 222 m 578 1215 l 381 1019 l 175 1215 l 267 1269 l 379 1154 l 485 1269 l 578 1215 z "},"ď":{"ha":903,"x_min":108,"x_max":849,"o":"m 108 218 l 108 481 q 226 681 108 626 q 319 706 268 700 q 371 708 347 708 q 408 706 392 708 q 469 692 444 701 l 469 972 l 621 972 l 621 0 q 400 -17 501 -17 q 217 25 299 -17 q 108 218 108 81 m 469 135 l 469 531 q 400 551 436 547 q 378 553 389 553 q 332 547 354 553 q 280 506 300 538 q 260 425 260 475 l 260 208 q 324 138 260 161 q 397 125 357 125 q 469 135 431 125 m 756 728 l 660 768 q 714 803 689 785 q 750 831 739 821 l 760 840 l 743 844 q 701 911 701 864 q 724 964 701 943 q 775 985 744 985 q 779 985 778 985 q 832 956 815 983 q 849 897 849 928 q 827 813 849 850 q 756 728 806 775 z "},"Đ":{"ha":800,"x_min":108,"x_max":692,"o":"m 397 0 l 108 0 l 108 974 l 369 974 q 609 888 526 974 q 692 658 692 801 l 692 278 q 397 0 692 0 m 539 264 l 539 672 q 501 784 539 749 q 383 819 463 819 l 261 819 l 261 140 l 375 140 q 433 144 410 140 q 484 158 457 147 q 525 196 511 169 q 539 264 539 222 m 544 1014 l 243 1014 l 243 1140 l 544 1140 l 544 1014 z "},"đ":{"ha":761,"x_min":108,"x_max":707,"o":"m 707 744 l 621 744 l 621 0 q 400 -17 501 -17 q 217 25 299 -17 q 108 218 108 81 l 108 481 q 226 681 108 626 q 319 706 268 700 q 371 708 347 708 q 408 706 392 708 q 469 692 444 701 l 469 744 l 382 744 l 382 890 l 469 890 l 469 972 l 621 972 l 621 890 l 707 890 l 707 744 m 469 135 l 469 531 q 400 551 436 547 q 378 553 389 553 q 332 547 354 553 q 280 506 300 538 q 260 425 260 475 l 260 208 q 324 138 260 161 q 397 125 357 125 q 469 135 431 125 z "},"Ē":{"ha":646,"x_min":108,"x_max":572,"o":"m 569 0 l 108 0 l 108 972 l 572 972 l 572 819 l 261 819 l 261 574 l 451 574 l 408 428 l 261 428 l 261 139 l 569 139 l 569 0 m 489 1014 l 188 1014 l 188 1140 l 489 1140 l 489 1014 z "},"ē":{"ha":746,"x_min":49,"x_max":549,"o":"m 549 264 l 203 246 l 203 207 q 267 126 203 136 q 286 125 276 125 q 458 181 349 125 l 514 49 q 285 -17 411 -14 q 274 -17 279 -17 q 113 31 174 -17 q 49 186 49 82 l 49 471 q 119 646 49 583 q 304 708 189 708 q 484 647 419 708 q 549 475 549 585 l 549 264 m 394 399 l 394 472 q 368 536 394 514 q 303 558 342 558 q 226 531 250 558 q 203 469 203 503 l 203 386 l 394 399 m 451 747 l 151 747 l 151 874 l 451 874 l 451 747 z "},"Ė":{"ha":646,"x_min":108,"x_max":572,"o":"m 569 0 l 108 0 l 108 972 l 572 972 l 572 819 l 261 819 l 261 574 l 451 574 l 408 428 l 261 428 l 261 139 l 569 139 l 569 0 m 356 1014 q 297 1039 322 1014 q 272 1097 272 1064 q 297 1153 272 1129 q 356 1178 322 1178 q 412 1153 388 1178 q 436 1097 436 1129 q 412 1039 436 1064 q 356 1014 388 1014 z "},"ė":{"ha":663,"x_min":108,"x_max":608,"o":"m 608 264 l 263 246 l 263 207 q 328 126 263 136 q 346 125 336 125 q 518 181 408 125 l 574 49 q 344 -17 471 -14 q 333 -17 339 -17 q 172 31 233 -17 q 108 186 108 82 l 108 471 q 178 646 108 583 q 364 708 249 708 q 544 647 479 708 q 608 475 608 585 l 608 264 m 454 399 l 454 472 q 428 536 454 514 q 363 558 401 558 q 286 531 310 558 q 263 469 263 503 l 263 386 l 454 399 m 367 747 q 308 772 333 747 q 283 831 283 797 q 308 887 283 863 q 367 911 333 911 q 423 887 399 911 q 447 831 447 863 q 423 772 447 797 q 367 747 399 747 z "},"Ę":{"ha":690,"x_min":108,"x_max":617,"o":"m 549 -153 l 617 -226 q 556 -281 592 -265 q 464 -296 521 -296 q 415 -285 442 -296 q 364 -242 388 -274 q 343 -172 343 -211 q 343 -162 343 -167 q 472 0 347 -76 l 108 0 l 108 972 l 572 972 l 572 819 l 261 819 l 261 574 l 451 574 l 408 428 l 261 428 l 261 139 l 569 139 l 569 0 l 568 0 q 443 -161 443 -103 q 443 -168 443 -165 q 489 -201 449 -201 q 519 -190 501 -201 q 549 -153 536 -178 z "},"ę":{"ha":603,"x_min":49,"x_max":549,"o":"m 358 -153 l 426 -226 q 366 -281 401 -265 q 274 -296 331 -296 q 224 -285 251 -296 q 174 -242 197 -274 q 153 -172 153 -211 q 153 -162 153 -167 q 256 -17 157 -86 q 104 38 160 -12 q 49 186 49 89 l 49 471 q 119 646 49 583 q 304 708 189 708 q 484 647 419 708 q 549 475 549 585 l 549 264 l 203 246 l 203 207 q 267 126 203 136 q 286 125 276 125 q 458 181 349 125 l 514 49 q 368 -7 447 7 q 253 -161 253 -104 q 253 -168 253 -164 q 299 -201 258 -201 q 328 -190 311 -201 q 358 -153 346 -178 m 394 399 l 394 472 q 368 536 394 514 q 303 558 342 558 q 226 531 250 558 q 203 469 203 503 l 203 386 l 394 399 z "},"Ě":{"ha":646,"x_min":108,"x_max":572,"o":"m 569 0 l 108 0 l 108 972 l 572 972 l 572 819 l 261 819 l 261 574 l 451 574 l 408 428 l 261 428 l 261 139 l 569 139 l 569 0 m 546 1215 l 349 1019 l 143 1215 l 235 1269 l 347 1154 l 453 1269 l 546 1215 z "},"ě":{"ha":663,"x_min":108,"x_max":608,"o":"m 608 264 l 263 246 l 263 207 q 328 126 263 136 q 346 125 336 125 q 518 181 408 125 l 574 49 q 344 -17 471 -14 q 333 -17 339 -17 q 172 31 233 -17 q 108 186 108 82 l 108 471 q 178 646 108 583 q 364 708 249 708 q 544 647 479 708 q 608 475 608 585 l 608 264 m 454 399 l 454 472 q 428 536 454 514 q 363 558 401 558 q 286 531 310 558 q 263 469 263 503 l 263 386 l 454 399 m 565 950 l 368 754 l 163 950 l 254 1004 l 367 889 l 472 1004 l 565 950 z "},"Ĝ":{"ha":746,"x_min":90,"x_max":661,"o":"m 661 0 l 517 0 l 508 11 q 383 -14 436 -14 q 176 56 261 -14 q 90 263 90 125 l 90 699 q 211 950 90 876 q 360 985 274 985 q 378 985 368 985 q 557 939 475 981 l 511 801 q 385 826 444 826 q 281 802 318 826 q 243 711 243 778 l 243 260 q 278 167 243 193 q 382 140 314 140 q 508 258 508 140 l 508 271 l 429 271 l 381 417 l 661 417 l 661 0 m 593 1069 l 500 1015 l 394 1131 l 282 1015 l 190 1069 l 396 1265 l 593 1069 z "},"ĝ":{"ha":686,"x_min":108,"x_max":632,"o":"m 593 803 l 500 749 l 394 864 l 282 749 l 190 803 l 396 999 l 593 803 m 414 -292 l 378 -172 q 452 -145 425 -172 q 479 -64 479 -118 l 479 11 q 367 -17 442 -17 q 176 50 244 -17 q 108 244 108 117 l 108 451 q 180 641 108 574 q 372 708 251 708 q 442 699 411 708 q 481 681 472 690 l 510 696 l 632 696 l 632 -89 q 414 -292 632 -292 m 479 321 l 479 438 q 367 557 479 557 q 285 524 310 557 q 261 444 261 492 l 261 265 q 367 131 261 131 q 457 175 435 131 q 479 321 479 219 z "},"Ğ":{"ha":746,"x_min":90,"x_max":661,"o":"m 661 0 l 517 0 l 508 11 q 383 -14 436 -14 q 176 56 261 -14 q 90 263 90 125 l 90 699 q 211 950 90 876 q 360 985 274 985 q 378 985 368 985 q 557 939 475 981 l 511 801 q 385 826 444 826 q 281 802 318 826 q 243 711 243 778 l 243 260 q 278 167 243 193 q 382 140 314 140 q 508 258 508 140 l 508 271 l 429 271 l 381 417 l 661 417 l 661 0 m 540 1175 l 540 1168 q 494 1057 540 1103 q 383 1011 447 1011 q 273 1057 319 1011 q 226 1168 226 1103 l 226 1175 l 342 1175 l 342 1168 q 383 1119 342 1119 q 415 1133 403 1119 q 426 1168 426 1146 l 426 1175 l 540 1175 z "},"ğ":{"ha":686,"x_min":108,"x_max":632,"o":"m 549 903 l 549 896 q 502 785 549 831 q 392 739 456 739 q 281 785 328 739 q 235 896 235 831 l 235 903 l 350 903 l 350 896 q 392 847 350 847 q 423 860 411 847 q 435 896 435 874 l 435 903 l 549 903 m 414 -292 l 378 -172 q 452 -145 425 -172 q 479 -64 479 -118 l 479 11 q 367 -17 442 -17 q 176 50 244 -17 q 108 244 108 117 l 108 451 q 180 641 108 574 q 372 708 251 708 q 442 699 411 708 q 481 681 472 690 l 510 696 l 632 696 l 632 -89 q 414 -292 632 -292 m 479 321 l 479 438 q 367 557 479 557 q 285 524 310 557 q 261 444 261 492 l 261 265 q 367 131 261 131 q 457 175 435 131 q 479 321 479 219 z "},"Ġ":{"ha":786,"x_min":118,"x_max":689,"o":"m 407 1013 q 349 1038 374 1013 q 324 1096 324 1063 q 349 1152 324 1128 q 407 1176 374 1176 q 463 1152 439 1176 q 488 1096 488 1128 q 463 1038 488 1063 q 407 1013 439 1013 m 689 0 l 544 0 l 536 11 q 411 -14 464 -14 q 203 56 289 -14 q 118 263 118 125 l 118 699 q 239 950 118 876 q 388 985 301 985 q 406 985 396 985 q 585 939 503 981 l 539 801 q 413 826 472 826 q 308 802 346 826 q 271 711 271 778 l 271 260 q 306 167 271 193 q 410 140 342 140 q 536 258 536 140 l 536 271 l 457 271 l 408 417 l 689 417 l 689 0 z "},"ġ":{"ha":686,"x_min":108,"x_max":632,"o":"m 389 746 q 331 771 356 746 q 306 829 306 796 q 331 885 306 861 q 389 910 356 910 q 445 885 421 910 q 469 829 469 861 q 445 771 469 796 q 389 746 421 746 m 414 -292 l 378 -172 q 452 -145 425 -172 q 479 -64 479 -118 l 479 11 q 367 -17 442 -17 q 176 50 244 -17 q 108 244 108 117 l 108 451 q 180 641 108 574 q 372 708 251 708 q 442 699 411 708 q 481 681 472 690 l 510 696 l 632 696 l 632 -89 q 414 -292 632 -292 m 479 321 l 479 438 q 367 557 479 557 q 285 524 310 557 q 261 444 261 492 l 261 265 q 367 131 261 131 q 457 175 435 131 q 479 321 479 219 z "},"Ģ":{"ha":746,"x_min":90,"x_max":661,"o":"m 661 0 l 517 0 l 508 11 q 383 -14 436 -14 q 176 56 261 -14 q 90 263 90 125 l 90 699 q 211 950 90 876 q 360 985 274 985 q 378 985 368 985 q 557 939 475 981 l 511 801 q 385 826 444 826 q 281 802 318 826 q 243 711 243 778 l 243 260 q 278 167 243 193 q 382 140 314 140 q 508 258 508 140 l 508 271 l 429 271 l 381 417 l 661 417 l 661 0 m 361 -303 l 265 -262 q 319 -228 294 -246 q 356 -200 344 -210 l 365 -190 l 349 -186 q 307 -119 307 -167 q 329 -67 307 -87 q 381 -46 350 -46 q 385 -46 383 -46 q 438 -75 421 -47 q 454 -133 454 -103 q 433 -218 454 -181 q 361 -303 411 -256 z "},"ģ":{"ha":686,"x_min":108,"x_max":632,"o":"m 414 -292 l 378 -172 q 452 -145 425 -172 q 479 -64 479 -118 l 479 11 q 367 -17 442 -17 q 176 50 244 -17 q 108 244 108 117 l 108 451 q 180 641 108 574 q 372 708 251 708 q 442 699 411 708 q 481 681 472 690 l 510 696 l 632 696 l 632 -89 q 414 -292 632 -292 m 479 321 l 479 438 q 367 557 479 557 q 285 524 310 557 q 261 444 261 492 l 261 265 q 367 131 261 131 q 457 175 435 131 q 479 321 479 219 m 389 897 l 406 893 q 447 826 447 874 q 425 772 447 794 q 374 753 404 753 q 369 753 371 753 q 317 782 333 754 q 300 840 300 810 q 322 925 300 888 q 393 1010 343 963 l 489 969 q 435 935 460 953 q 400 907 410 917 l 389 897 z "},"Ĥ":{"ha":817,"x_min":108,"x_max":706,"o":"m 706 0 l 554 0 l 554 428 l 261 428 l 261 0 l 108 0 l 108 972 l 261 972 l 261 574 l 554 574 l 554 972 l 706 972 l 706 0 m 611 1069 l 518 1015 l 413 1131 l 300 1015 l 208 1069 l 414 1265 l 611 1069 z "},"ĥ":{"ha":808,"x_min":89,"x_max":725,"o":"m 492 1069 l 399 1015 l 293 1131 l 181 1015 l 89 1069 l 294 1265 l 492 1069 m 725 0 l 572 0 l 572 426 q 547 525 572 490 q 485 564 521 560 q 461 564 472 564 q 417 560 438 564 q 365 540 385 553 l 365 0 l 213 0 l 213 972 l 365 972 l 365 690 q 468 708 404 707 q 474 708 471 708 q 607 682 536 708 q 725 481 725 628 l 725 0 z "},"Ħ":{"ha":951,"x_min":108,"x_max":840,"o":"m 774 0 l 622 0 l 622 428 l 329 428 l 329 0 l 176 0 l 176 657 l 108 657 l 108 803 l 176 803 l 176 972 l 329 972 l 329 803 l 622 803 l 622 972 l 774 972 l 774 803 l 840 803 l 840 657 l 774 657 l 774 0 m 622 574 l 622 657 l 329 657 l 329 574 l 622 574 z "},"ħ":{"ha":760,"x_min":108,"x_max":706,"o":"m 706 0 l 553 0 l 553 426 q 527 525 553 490 q 465 564 501 560 q 442 564 453 564 q 397 560 418 564 q 346 540 365 553 l 346 0 l 193 0 l 193 744 l 108 744 l 108 890 l 193 890 l 193 972 l 346 972 l 346 890 l 433 890 l 433 744 l 346 744 l 346 690 q 449 708 385 707 q 454 708 451 708 q 588 682 517 708 q 706 481 706 628 l 706 0 z "},"Ĩ":{"ha":707,"x_min":108,"x_max":596,"o":"m 442 0 l 289 0 l 289 822 l 203 825 l 203 972 l 442 972 l 442 0 m 538 1140 l 596 1050 q 501 982 549 994 q 463 976 481 976 q 414 986 438 976 q 333 1021 374 1003 q 268 1035 303 1035 q 250 1033 258 1035 q 163 985 204 1029 l 108 1075 q 206 1142 157 1129 q 247 1149 228 1149 q 294 1139 272 1149 q 375 1106 335 1124 q 440 1092 406 1092 q 456 1093 449 1092 q 538 1140 499 1097 z "},"ĩ":{"ha":650,"x_min":108,"x_max":596,"o":"m 538 864 l 596 774 q 501 706 549 718 q 463 700 481 700 q 414 710 438 700 q 333 744 374 726 q 268 758 303 758 q 250 758 258 758 q 163 708 204 753 l 108 799 q 206 867 157 853 q 247 872 228 872 q 294 864 272 872 q 375 831 335 847 q 440 815 406 815 q 456 817 449 815 q 538 864 499 821 m 407 0 l 254 0 l 254 696 l 407 696 l 407 0 z "},"Ī":{"ha":519,"x_min":108,"x_max":408,"o":"m 350 0 l 197 0 l 197 822 l 111 825 l 111 972 l 350 972 l 350 0 m 408 1014 l 108 1014 l 108 1140 l 408 1140 l 408 1014 z "},"ī":{"ha":464,"x_min":108,"x_max":410,"o":"m 410 747 l 108 747 l 108 874 l 410 874 l 410 747 m 339 0 l 186 0 l 186 696 l 339 696 l 339 0 z "},"Į":{"ha":507,"x_min":108,"x_max":396,"o":"m 328 -153 l 396 -226 q 335 -281 371 -265 q 243 -296 300 -296 q 194 -285 221 -296 q 143 -242 167 -274 q 122 -172 122 -211 q 122 -162 122 -167 q 251 0 126 -76 l 194 0 l 194 822 l 108 825 l 108 972 l 347 972 l 347 0 q 222 -161 222 -103 q 222 -168 222 -165 q 268 -201 228 -201 q 298 -190 281 -201 q 328 -153 315 -178 z "},"į":{"ha":342,"x_min":0,"x_max":274,"o":"m 206 -153 l 274 -226 q 213 -281 249 -265 q 121 -296 178 -296 q 72 -285 99 -296 q 21 -242 44 -274 q 0 -172 0 -211 q 0 -162 0 -167 q 129 0 4 -76 l 76 0 l 76 696 l 229 696 l 229 0 l 225 0 q 100 -161 100 -103 q 100 -168 100 -165 q 146 -201 106 -201 q 176 -190 158 -201 q 206 -153 193 -178 m 157 822 q 99 847 124 822 q 74 906 74 872 q 99 962 74 938 q 157 986 124 986 q 213 962 189 986 q 238 906 238 938 q 213 847 238 872 q 157 822 189 822 z "},"İ":{"ha":469,"x_min":108,"x_max":358,"o":"m 347 0 l 194 0 l 194 822 l 108 825 l 108 972 l 347 972 l 347 0 m 278 1014 q 219 1039 244 1014 q 194 1097 194 1064 q 219 1153 194 1129 q 278 1178 244 1178 q 334 1153 310 1178 q 358 1097 358 1129 q 334 1039 358 1064 q 278 1014 310 1014 z "},"ı":{"ha":256,"x_min":50,"x_max":203,"o":"m 203 0 l 50 0 l 50 696 l 203 696 l 203 0 z "},"Ĵ":{"ha":386,"x_min":-21,"x_max":336,"o":"m 29 -51 l -21 79 q 125 217 125 79 l 125 822 l 42 825 l 42 972 l 275 972 l 275 193 q 222 6 275 61 q 29 -51 169 -50 m 336 1175 l 336 1168 q 290 1057 336 1103 q 179 1011 244 1011 q 68 1057 114 1011 q 22 1168 22 1103 l 22 1175 l 138 1175 l 138 1168 q 179 1119 138 1119 q 210 1133 199 1119 q 222 1168 222 1146 l 222 1175 l 336 1175 z "},"ĵ":{"ha":565,"x_min":108,"x_max":511,"o":"m 511 803 l 418 749 l 313 864 l 200 749 l 108 803 l 314 999 l 511 803 m 261 -49 l 261 554 l 190 568 l 160 696 l 414 696 l 414 -104 q 347 -236 411 -182 q 204 -290 282 -290 l 163 -172 q 173 -171 167 -172 q 197 -162 179 -169 q 227 -142 214 -154 q 251 -106 240 -131 q 261 -49 261 -82 z "},"Ķ":{"ha":739,"x_min":110,"x_max":736,"o":"m 736 0 l 546 0 l 283 386 l 274 372 l 274 0 l 110 0 l 110 974 l 274 974 l 274 639 l 499 974 l 682 974 l 374 522 l 736 0 m 356 -303 l 260 -262 q 314 -228 289 -246 q 350 -200 339 -210 l 360 -190 l 343 -186 q 301 -119 301 -167 q 324 -67 301 -87 q 375 -46 344 -46 q 379 -46 378 -46 q 432 -75 415 -47 q 449 -133 449 -103 q 427 -218 449 -181 q 356 -303 406 -256 z "},"ķ":{"ha":658,"x_min":89,"x_max":661,"o":"m 661 0 l 469 0 l 261 353 l 242 333 l 242 0 l 89 0 l 89 972 l 242 972 l 242 531 l 449 722 l 561 615 l 379 461 q 661 0 582 126 m 322 -304 l 226 -264 q 281 -229 256 -247 q 317 -201 306 -211 l 326 -192 l 310 -187 q 268 -121 268 -168 q 290 -67 268 -89 q 342 -47 311 -47 q 346 -47 344 -47 q 399 -76 382 -49 q 415 -135 415 -104 q 394 -219 415 -182 q 322 -304 372 -257 z "},"ĸ":{"ha":722,"x_min":108,"x_max":668,"o":"m 668 133 l 622 -1 q 532 24 574 -1 q 469 75 490 50 q 408 153 447 100 l 299 304 l 261 271 l 261 0 l 108 0 l 108 711 l 261 693 l 261 463 l 475 696 l 664 696 l 411 417 l 549 222 q 614 152 588 169 q 668 133 640 135 z "},"Ĺ":{"ha":611,"x_min":108,"x_max":610,"o":"m 610 0 l 108 0 l 108 972 l 261 972 l 261 140 l 610 140 l 610 0 m 244 1015 l 143 1015 l 207 1165 q 253 1208 221 1197 q 279 1213 268 1213 q 300 1207 292 1213 q 333 1167 328 1193 q 335 1157 335 1161 q 313 1103 335 1132 l 244 1015 z "},"ĺ":{"ha":444,"x_min":108,"x_max":333,"o":"m 261 0 l 108 0 l 108 972 l 261 972 l 261 0 m 243 1019 l 142 1019 l 206 1169 q 251 1211 219 1201 q 278 1217 267 1217 q 299 1211 290 1217 q 332 1169 326 1197 q 333 1161 333 1165 q 311 1107 333 1136 l 243 1019 z "},"Ļ":{"ha":611,"x_min":108,"x_max":610,"o":"m 610 0 l 108 0 l 108 972 l 261 972 l 261 140 l 610 140 l 610 0 m 347 -304 l 251 -264 q 306 -229 281 -247 q 342 -201 331 -211 l 351 -192 l 335 -187 q 293 -121 293 -168 q 315 -67 293 -89 q 367 -47 336 -47 q 371 -47 369 -47 q 424 -76 407 -49 q 440 -135 440 -104 q 419 -219 440 -182 q 347 -304 397 -257 z "},"ļ":{"ha":410,"x_min":108,"x_max":299,"o":"m 299 0 l 146 0 l 146 972 l 299 972 l 299 0 m 204 -306 l 108 -265 q 163 -231 138 -249 q 197 -203 188 -212 l 208 -193 l 192 -189 q 150 -122 150 -169 q 172 -69 150 -90 q 224 -49 193 -49 q 228 -49 226 -49 q 281 -78 264 -50 q 297 -136 297 -106 q 276 -221 297 -183 q 204 -306 254 -258 z "},"Ľ":{"ha":739,"x_min":108,"x_max":738,"o":"m 738 0 l 236 0 l 236 972 l 389 972 l 389 140 l 738 140 l 738 0 m 511 1215 l 314 1019 l 108 1215 l 200 1269 l 313 1154 l 418 1269 l 511 1215 z "},"ľ":{"ha":622,"x_min":108,"x_max":511,"o":"m 386 0 l 233 0 l 233 972 l 386 972 l 386 0 m 511 1215 l 314 1019 l 108 1215 l 200 1269 l 313 1154 l 418 1269 l 511 1215 z "},"Ł":{"ha":814,"x_min":108,"x_max":760,"o":"m 760 0 l 258 0 l 258 429 l 158 385 l 108 497 l 258 565 l 258 972 l 411 972 l 411 635 l 513 681 l 564 568 l 411 499 l 411 140 l 760 140 l 760 0 z "},"ł":{"ha":618,"x_min":108,"x_max":564,"o":"m 418 0 l 265 0 l 265 433 l 158 385 l 108 497 l 265 568 l 265 822 l 179 825 l 179 972 l 418 972 l 418 638 l 513 681 l 564 568 l 418 501 l 418 0 z "},"Ń":{"ha":903,"x_min":108,"x_max":792,"o":"m 792 0 l 638 0 l 261 657 l 261 0 l 108 0 l 108 972 l 261 972 l 638 319 l 638 972 l 792 972 l 792 0 m 488 1014 l 386 1014 l 450 1164 q 496 1206 464 1196 q 522 1211 511 1211 q 543 1206 535 1211 q 576 1164 571 1192 q 578 1156 578 1160 q 556 1101 578 1131 l 488 1014 z "},"ń":{"ha":675,"x_min":108,"x_max":621,"o":"m 621 0 l 468 0 l 468 438 q 408 549 468 518 q 354 561 383 561 q 260 536 311 561 l 260 0 l 108 0 l 108 696 l 243 696 l 261 688 q 382 708 325 708 q 503 682 446 708 q 621 481 621 628 l 621 0 m 422 747 l 321 747 l 385 897 q 431 939 399 929 q 457 944 446 944 q 478 939 469 944 q 511 897 506 925 q 513 889 513 893 q 490 835 513 864 l 422 747 z "},"Ņ":{"ha":903,"x_min":108,"x_max":792,"o":"m 792 0 l 638 0 l 261 657 l 261 0 l 108 0 l 108 972 l 261 972 l 638 319 l 638 972 l 792 972 l 792 0 m 436 -297 l 340 -257 q 394 -222 369 -240 q 431 -194 419 -204 l 440 -185 l 424 -181 q 382 -114 382 -161 q 404 -61 382 -82 q 456 -40 425 -40 q 460 -40 458 -40 q 513 -69 496 -42 q 529 -128 529 -97 q 508 -212 529 -175 q 436 -297 486 -250 z "},"ņ":{"ha":694,"x_min":89,"x_max":601,"o":"m 601 0 l 449 0 l 449 438 q 389 549 449 518 q 335 561 364 561 q 240 536 292 561 l 240 0 l 89 0 l 89 696 l 224 696 l 242 688 q 363 708 306 708 q 483 682 426 708 q 601 481 601 628 l 601 0 m 322 -306 l 226 -265 q 281 -231 256 -249 q 317 -203 306 -212 l 326 -193 l 310 -189 q 268 -122 268 -169 q 290 -69 268 -90 q 342 -49 311 -49 q 346 -49 344 -49 q 399 -78 382 -50 q 415 -136 415 -106 q 394 -221 415 -183 q 322 -306 372 -258 z "},"Ň":{"ha":903,"x_min":108,"x_max":792,"o":"m 792 0 l 638 0 l 261 657 l 261 0 l 108 0 l 108 972 l 261 972 l 638 319 l 638 972 l 792 972 l 792 0 m 658 1215 l 461 1019 l 256 1215 l 347 1269 l 460 1154 l 565 1269 l 658 1215 z "},"ň":{"ha":675,"x_min":108,"x_max":621,"o":"m 621 0 l 468 0 l 468 438 q 408 549 468 518 q 354 561 383 561 q 260 536 311 561 l 260 0 l 108 0 l 108 696 l 243 696 l 261 688 q 382 708 325 708 q 503 682 446 708 q 621 481 621 628 l 621 0 m 585 1015 l 388 819 l 182 1015 l 274 1069 l 386 954 l 492 1069 l 585 1015 z "},"Ŋ":{"ha":903,"x_min":108,"x_max":792,"o":"m 638 319 l 638 822 l 558 825 l 558 972 l 792 972 l 792 226 q 718 18 792 86 q 546 -51 644 -50 q 521 14 538 -29 q 496 79 504 57 q 582 96 550 79 q 261 657 338 519 l 261 0 l 108 0 l 108 972 l 261 972 q 449 647 324 864 q 638 319 575 429 z "},"ŋ":{"ha":694,"x_min":89,"x_max":601,"o":"m 450 -54 l 450 453 q 426 530 450 503 q 365 558 401 557 q 347 560 356 560 q 297 556 321 560 q 240 536 265 549 l 240 0 l 89 0 l 89 696 l 225 696 l 240 690 q 294 703 258 697 q 347 707 317 707 q 385 706 365 707 q 483 682 440 703 q 601 481 601 628 l 601 -101 q 527 -238 601 -186 q 368 -290 453 -290 l 333 -171 q 346 -170 338 -171 q 374 -163 354 -169 q 410 -146 394 -157 q 438 -111 425 -135 q 450 -54 450 -87 z "},"Ō":{"ha":763,"x_min":88,"x_max":671,"o":"m 671 703 l 671 257 q 585 51 671 117 q 381 -15 500 -15 q 174 51 261 -15 q 88 257 88 117 l 88 704 q 166 921 88 847 q 382 994 244 994 q 595 917 519 994 q 671 703 671 839 m 518 286 l 518 653 q 491 785 518 742 q 379 829 464 829 q 267 787 294 829 q 240 654 240 744 l 240 283 q 274 178 240 217 q 379 140 308 140 q 481 181 444 140 q 518 286 518 221 m 524 1014 l 222 1014 l 222 1140 l 524 1140 l 524 1014 z "},"ō":{"ha":681,"x_min":108,"x_max":626,"o":"m 626 439 l 626 256 q 563 63 626 139 q 369 -14 499 -14 q 174 63 240 -14 q 108 256 108 140 l 108 439 q 176 641 108 571 q 369 711 243 711 q 558 638 490 711 q 626 439 626 565 m 475 242 l 475 439 q 465 505 475 479 q 437 541 456 531 q 403 554 418 551 q 369 557 389 557 q 261 439 261 557 l 261 242 q 369 136 261 136 q 445 163 415 136 q 475 242 475 189 m 517 747 l 217 747 l 217 874 l 517 874 l 517 747 z "},"Ő":{"ha":763,"x_min":88,"x_max":671,"o":"m 671 703 l 671 257 q 585 51 671 117 q 381 -15 500 -15 q 174 51 261 -15 q 88 257 88 117 l 88 704 q 166 921 88 847 q 382 994 244 994 q 595 917 519 994 q 671 703 671 839 m 518 286 l 518 653 q 491 785 518 742 q 379 829 464 829 q 267 787 294 829 q 240 654 240 744 l 240 283 q 274 178 240 217 q 379 140 308 140 q 481 181 444 140 q 518 286 518 221 m 499 1019 l 397 1019 l 461 1169 q 507 1211 475 1201 q 533 1217 522 1217 q 554 1211 546 1217 q 588 1169 582 1197 q 589 1161 589 1165 q 567 1107 589 1136 l 499 1019 m 303 1019 l 201 1019 l 265 1169 q 311 1211 279 1201 q 338 1217 326 1217 q 358 1211 350 1217 q 392 1169 386 1197 q 393 1161 393 1165 q 371 1107 393 1136 l 303 1019 z "},"ő":{"ha":681,"x_min":108,"x_max":626,"o":"m 626 439 l 626 256 q 563 63 626 139 q 369 -14 499 -14 q 174 63 240 -14 q 108 256 108 140 l 108 439 q 176 641 108 571 q 369 711 243 711 q 558 638 490 711 q 626 439 626 565 m 475 242 l 475 439 q 465 505 475 479 q 437 541 456 531 q 403 554 418 551 q 369 557 389 557 q 261 439 261 557 l 261 242 q 369 136 261 136 q 445 163 415 136 q 475 242 475 189 m 499 754 l 397 754 l 461 904 q 507 947 475 936 q 533 951 522 951 q 554 946 546 951 q 588 906 582 932 q 589 896 589 900 q 567 842 589 871 l 499 754 m 303 754 l 201 754 l 265 904 q 311 947 279 936 q 338 951 326 951 q 358 946 350 951 q 392 906 386 932 q 393 896 393 900 q 371 842 393 871 l 303 754 z "},"Œ":{"ha":1057,"x_min":108,"x_max":1003,"o":"m 1000 0 l 539 0 l 539 10 q 401 -15 475 -15 q 195 51 282 -15 q 108 257 108 117 l 108 704 q 187 921 108 847 q 403 994 265 994 q 539 969 481 994 l 539 972 l 1003 972 l 1003 819 l 692 819 l 692 715 l 692 703 l 692 574 l 882 574 l 839 428 l 692 428 l 692 257 l 692 242 l 692 139 l 1000 139 l 1000 0 m 539 279 l 539 653 q 512 785 539 742 q 400 829 485 829 q 288 787 315 829 q 261 654 261 744 l 261 283 q 295 178 261 217 q 400 140 329 140 q 500 178 464 140 q 539 279 536 217 z "},"œ":{"ha":1072,"x_min":108,"x_max":1018,"o":"m 960 167 l 1015 49 q 786 -17 913 -14 q 761 -17 774 -17 q 647 -4 696 -17 q 547 56 589 11 q 369 -14 492 -14 q 174 63 240 -14 q 108 256 108 140 l 108 439 q 176 641 108 571 q 369 711 243 711 q 563 631 494 711 q 662 694 617 679 q 785 708 707 708 q 953 635 888 708 q 1018 451 1018 563 l 1018 256 l 628 229 l 628 221 q 681 144 628 169 q 778 125 722 125 q 811 126 793 125 q 960 167 888 133 m 475 242 l 475 439 q 369 568 475 568 q 261 439 261 568 l 261 242 q 369 122 261 122 q 399 126 385 122 q 433 140 414 129 q 463 177 451 151 q 475 242 475 203 m 865 386 l 865 440 q 838 536 865 504 q 764 568 810 568 q 628 424 628 568 l 628 374 l 865 386 z "},"Ŕ":{"ha":783,"x_min":108,"x_max":713,"o":"m 713 0 l 557 0 l 464 271 l 261 271 l 261 0 l 108 0 l 108 972 l 438 972 q 642 877 572 972 q 711 642 711 782 q 708 533 711 574 q 679 429 704 493 q 604 322 654 365 l 713 0 m 261 417 l 401 417 q 474 433 444 417 q 518 470 504 450 q 540 527 532 490 q 549 585 549 564 q 550 642 550 606 q 507 783 550 749 q 374 818 464 818 l 261 818 l 261 417 m 417 1014 l 315 1014 l 379 1164 q 425 1206 393 1196 q 451 1211 440 1211 q 472 1206 464 1211 q 506 1164 500 1192 q 507 1156 507 1160 q 485 1101 507 1131 l 417 1014 z "},"ŕ":{"ha":551,"x_min":108,"x_max":497,"o":"m 261 0 l 108 0 l 108 696 l 250 696 l 261 690 q 354 707 307 706 q 382 707 369 707 q 421 706 408 707 q 497 690 440 703 l 461 542 q 386 561 422 561 q 326 549 356 561 q 261 447 261 519 l 261 0 m 293 747 l 192 747 l 256 897 q 301 939 269 929 q 328 944 317 944 q 349 939 340 944 q 382 897 376 925 q 383 889 383 893 q 361 835 383 864 l 293 747 z "},"Ŗ":{"ha":783,"x_min":108,"x_max":713,"o":"m 713 0 l 557 0 l 464 271 l 261 271 l 261 0 l 108 0 l 108 972 l 438 972 q 642 877 572 972 q 711 642 711 782 q 708 533 711 574 q 679 429 704 493 q 604 322 654 365 l 713 0 m 261 417 l 401 417 q 474 433 444 417 q 518 470 504 450 q 540 527 532 490 q 549 585 549 564 q 550 642 550 606 q 507 783 550 749 q 374 818 464 818 l 261 818 l 261 417 m 375 -307 l 279 -267 q 333 -232 308 -250 q 369 -204 358 -214 l 379 -194 l 363 -190 q 321 -124 321 -171 q 343 -69 321 -92 q 394 -50 364 -50 q 399 -50 397 -50 q 451 -79 435 -51 q 468 -137 468 -107 q 447 -222 468 -185 q 375 -307 425 -260 z "},"ŗ":{"ha":564,"x_min":85,"x_max":510,"o":"m 274 0 l 121 0 l 121 696 l 263 696 l 274 690 q 367 707 319 706 q 394 707 382 707 q 433 706 421 707 q 510 690 453 703 l 474 542 q 399 561 435 561 q 339 549 368 561 q 274 447 274 519 l 274 0 m 181 -304 l 85 -264 q 139 -229 114 -247 q 175 -201 164 -211 l 185 -192 l 168 -187 q 126 -121 126 -168 q 149 -67 126 -89 q 200 -47 169 -47 q 204 -47 203 -47 q 257 -76 240 -49 q 274 -135 274 -104 q 252 -219 274 -182 q 181 -304 231 -257 z "},"Ř":{"ha":783,"x_min":108,"x_max":713,"o":"m 713 0 l 557 0 l 464 271 l 261 271 l 261 0 l 108 0 l 108 972 l 438 972 q 642 877 572 972 q 711 642 711 782 q 708 533 711 574 q 679 429 704 493 q 604 322 654 365 l 713 0 m 261 417 l 401 417 q 474 433 444 417 q 518 470 504 450 q 540 527 532 490 q 549 585 549 564 q 550 642 550 606 q 507 783 550 749 q 374 818 464 818 l 261 818 l 261 417 m 592 1215 l 394 1019 l 189 1215 l 281 1269 l 393 1154 l 499 1269 l 592 1215 z "},"ř":{"ha":565,"x_min":108,"x_max":511,"o":"m 264 0 l 111 0 l 111 696 l 253 696 l 264 690 q 357 707 310 706 q 385 707 372 707 q 424 706 411 707 q 500 690 443 703 l 464 542 q 389 561 425 561 q 329 549 358 561 q 264 447 264 519 l 264 0 m 511 1015 l 314 819 l 108 1015 l 200 1069 l 313 954 l 418 1069 l 511 1015 z "},"Ś":{"ha":779,"x_min":51,"x_max":711,"o":"m 51 247 l 215 271 q 265 172 222 210 q 378 135 308 135 q 503 173 463 135 q 543 256 543 211 q 517 351 543 311 q 450 417 492 392 q 359 464 408 443 q 260 508 310 485 q 168 559 210 531 q 101 635 126 588 q 75 746 75 682 q 156 915 75 843 q 389 986 238 986 q 592 944 504 986 l 583 919 q 563 857 575 894 q 543 800 550 819 q 390 831 449 831 q 274 803 311 831 q 240 740 240 778 q 240 732 240 736 q 294 665 244 696 q 413 606 344 635 q 549 538 482 576 q 664 431 617 500 q 711 269 711 363 q 629 65 711 146 q 379 -15 547 -15 q 141 65 228 -15 q 51 247 54 144 m 433 1019 l 332 1019 l 396 1169 q 442 1211 410 1201 q 468 1217 457 1217 q 489 1211 481 1217 q 522 1169 517 1197 q 524 1161 524 1165 q 501 1107 524 1136 l 433 1019 z "},"ś":{"ha":676,"x_min":108,"x_max":622,"o":"m 108 176 l 261 192 q 287 144 261 167 q 365 122 313 122 q 436 145 411 122 q 461 199 461 168 q 428 263 461 239 q 349 302 396 288 q 253 335 301 317 q 169 397 206 354 q 125 507 132 440 q 124 524 124 515 q 178 649 124 592 q 363 713 236 713 q 446 702 407 713 q 501 682 485 692 l 518 672 l 474 531 q 363 563 442 563 q 305 551 324 563 q 288 527 286 540 q 290 504 290 514 q 331 466 294 483 q 415 432 368 449 q 510 390 463 415 q 590 315 557 365 q 622 196 622 265 q 557 42 622 106 q 365 -21 492 -21 q 179 36 247 -21 q 108 176 111 93 m 413 747 l 311 747 l 375 897 q 421 939 389 929 q 447 944 436 944 q 468 939 460 944 q 501 897 496 925 q 503 889 503 893 q 481 835 503 864 l 413 747 z "},"Ŝ":{"ha":779,"x_min":51,"x_max":711,"o":"m 51 247 l 215 271 q 265 172 222 210 q 378 135 308 135 q 503 173 463 135 q 543 256 543 211 q 517 351 543 311 q 450 417 492 392 q 359 464 408 443 q 260 508 310 485 q 168 559 210 531 q 101 635 126 588 q 75 746 75 682 q 156 915 75 843 q 389 986 238 986 q 592 944 504 986 l 583 919 q 563 857 575 894 q 543 800 550 819 q 390 831 449 831 q 274 803 311 831 q 240 740 240 778 q 240 732 240 736 q 294 665 244 696 q 413 606 344 635 q 549 538 482 576 q 664 431 617 500 q 711 269 711 363 q 629 65 711 146 q 379 -15 547 -15 q 141 65 228 -15 q 51 247 54 144 m 576 1069 l 483 1015 l 378 1131 l 265 1015 l 174 1069 l 379 1265 l 576 1069 z "},"ŝ":{"ha":676,"x_min":108,"x_max":622,"o":"m 567 803 l 474 749 l 368 864 l 256 749 l 164 803 l 369 999 l 567 803 m 108 176 l 261 192 q 287 144 261 167 q 365 122 313 122 q 436 145 411 122 q 461 199 461 168 q 428 263 461 239 q 349 302 396 288 q 253 335 301 317 q 169 397 206 354 q 125 507 132 440 q 124 524 124 515 q 178 649 124 592 q 363 713 236 713 q 446 702 407 713 q 501 682 485 692 l 518 672 l 474 531 q 363 563 442 563 q 305 551 324 563 q 288 527 286 540 q 290 504 290 514 q 331 466 294 483 q 415 432 368 449 q 510 390 463 415 q 590 315 557 365 q 622 196 622 265 q 557 42 622 106 q 365 -21 492 -21 q 179 36 247 -21 q 108 176 111 93 z "},"ş":{"ha":599,"x_min":50,"x_max":564,"o":"m 139 -293 l 186 -192 q 294 -226 238 -226 q 353 -213 328 -226 q 378 -171 378 -200 q 350 -133 378 -142 q 333 -131 343 -131 q 274 -147 308 -131 l 213 -178 l 164 -108 l 238 -14 q 101 54 150 1 q 50 176 53 107 l 203 192 q 228 144 203 167 q 307 122 254 122 q 378 145 353 122 q 403 199 403 168 q 370 263 403 239 q 290 302 338 288 q 195 335 243 317 q 110 397 147 354 q 67 507 74 440 q 65 524 65 515 q 119 649 65 592 q 304 713 178 713 q 388 702 349 713 q 443 682 426 692 l 460 672 l 415 531 q 304 563 383 563 q 247 551 265 563 q 230 527 228 540 q 232 504 232 514 q 273 466 236 483 q 357 432 310 449 q 451 390 404 415 q 531 315 499 365 q 564 196 564 265 q 505 48 564 110 q 331 -19 446 -14 l 308 -53 q 356 -43 335 -43 q 439 -77 403 -43 q 475 -171 475 -111 q 413 -285 475 -247 q 281 -322 351 -322 q 139 -293 218 -322 z "},"Š":{"ha":779,"x_min":51,"x_max":711,"o":"m 51 247 l 215 271 q 265 172 222 210 q 378 135 308 135 q 503 173 463 135 q 543 256 543 211 q 517 351 543 311 q 450 417 492 392 q 359 464 408 443 q 260 508 310 485 q 168 559 210 531 q 101 635 126 588 q 75 746 75 682 q 156 915 75 843 q 389 986 238 986 q 592 944 504 986 l 583 919 q 563 857 575 894 q 543 800 550 819 q 390 831 449 831 q 274 803 311 831 q 240 740 240 778 q 240 732 240 736 q 294 665 244 696 q 413 606 344 635 q 549 538 482 576 q 664 431 617 500 q 711 269 711 363 q 629 65 711 146 q 379 -15 547 -15 q 141 65 228 -15 q 51 247 54 144 m 615 1282 l 418 1086 l 213 1282 l 304 1336 l 417 1221 l 522 1336 l 615 1282 z "},"š":{"ha":676,"x_min":108,"x_max":622,"o":"m 108 176 l 261 192 q 287 144 261 167 q 365 122 313 122 q 436 145 411 122 q 461 199 461 168 q 428 263 461 239 q 349 302 396 288 q 253 335 301 317 q 169 397 206 354 q 125 507 132 440 q 124 524 124 515 q 178 649 124 592 q 363 713 236 713 q 446 702 407 713 q 501 682 485 692 l 518 672 l 474 531 q 363 563 442 563 q 305 551 324 563 q 288 527 286 540 q 290 504 290 514 q 331 466 294 483 q 415 432 368 449 q 510 390 463 415 q 590 315 557 365 q 622 196 622 265 q 557 42 622 106 q 365 -21 492 -21 q 179 36 247 -21 q 108 176 111 93 m 561 1014 l 364 818 l 158 1014 l 250 1068 l 363 953 l 468 1068 l 561 1014 z "},"Ţ":{"ha":558,"x_min":0,"x_max":558,"o":"m 353 0 l 200 0 l 200 818 l 0 818 l 0 972 l 558 972 l 558 818 l 353 818 l 353 0 m 254 -303 l 158 -262 q 213 -228 188 -246 q 247 -200 238 -210 l 258 -190 l 242 -186 q 200 -119 200 -167 q 222 -67 200 -87 q 274 -46 243 -46 q 278 -46 276 -46 q 331 -75 314 -47 q 347 -133 347 -103 q 326 -218 347 -181 q 254 -303 304 -256 z "},"ţ":{"ha":386,"x_min":61,"x_max":354,"o":"m 324 104 l 278 -18 q 67 183 67 -14 l 67 972 l 222 972 l 222 696 l 354 696 l 321 553 l 222 553 l 222 183 q 249 120 222 136 q 324 104 275 104 m 157 -303 l 61 -262 q 115 -228 90 -246 q 150 -200 140 -210 l 161 -190 l 144 -186 q 103 -119 103 -167 q 125 -67 103 -87 q 176 -46 146 -46 q 181 -46 179 -46 q 233 -75 217 -47 q 250 -133 250 -103 q 228 -218 250 -181 q 157 -303 207 -256 z "},"Ť":{"ha":558,"x_min":0,"x_max":558,"o":"m 353 0 l 200 0 l 200 818 l 0 818 l 0 972 l 558 972 l 558 818 l 353 818 l 353 0 m 479 1215 l 282 1019 l 76 1215 l 168 1269 l 281 1154 l 386 1269 l 479 1215 z "},"ť":{"ha":499,"x_min":61,"x_max":467,"o":"m 436 104 l 390 -18 q 179 183 179 -14 l 179 972 l 335 972 l 335 696 l 467 696 l 433 553 l 335 553 l 335 183 q 361 120 335 136 q 436 104 388 104 m 464 1215 l 267 1019 l 61 1215 l 153 1269 l 265 1154 l 371 1269 l 464 1215 z "},"Ŧ":{"ha":558,"x_min":0,"x_max":558,"o":"m 353 0 l 200 0 l 200 818 l 0 818 l 0 972 l 558 972 l 558 818 l 353 818 l 353 0 m 426 1014 l 125 1014 l 125 1140 l 426 1140 l 426 1014 z "},"ŧ":{"ha":547,"x_min":108,"x_max":493,"o":"m 463 104 l 417 -18 q 206 183 206 -14 l 206 351 l 108 351 l 108 497 l 206 497 l 206 972 l 361 972 l 361 696 l 493 696 l 460 553 l 361 553 l 361 497 l 433 497 l 433 351 l 361 351 l 361 183 q 388 120 361 136 q 463 104 414 104 z "},"Ũ":{"ha":786,"x_min":103,"x_max":688,"o":"m 535 319 l 535 974 l 688 974 l 688 258 q 662 131 688 185 q 592 47 636 76 q 500 4 549 18 q 396 -10 451 -10 q 291 4 340 -10 q 198 47 242 18 q 128 131 154 76 q 103 258 103 185 l 103 974 l 256 974 l 256 319 q 284 183 256 225 q 394 140 313 140 q 506 183 478 140 q 535 319 535 225 m 596 1178 l 654 1088 q 560 1019 607 1032 q 521 1014 539 1014 q 472 1024 496 1014 q 392 1058 432 1040 q 326 1072 361 1072 q 308 1072 317 1072 q 221 1022 263 1067 l 167 1113 q 264 1181 215 1167 q 306 1186 286 1186 q 353 1178 331 1186 q 433 1144 393 1161 q 499 1129 464 1129 q 514 1131 507 1129 q 596 1178 557 1135 z "},"ũ":{"ha":681,"x_min":108,"x_max":626,"o":"m 626 0 l 483 0 l 474 8 q 369 -15 411 -15 q 108 239 108 -15 l 108 696 l 261 696 l 261 261 q 284 167 261 197 q 369 136 307 136 q 453 170 432 136 q 474 267 474 204 l 474 696 l 626 696 l 626 0 m 564 878 l 622 788 q 528 719 575 732 q 489 714 507 714 q 440 724 464 714 q 361 758 400 740 q 294 772 329 772 q 275 772 285 772 q 189 722 231 767 l 135 813 q 232 881 183 867 q 274 886 254 886 q 321 878 299 886 q 400 844 361 861 q 467 829 432 829 q 483 831 475 829 q 564 878 525 835 z "},"Ū":{"ha":786,"x_min":103,"x_max":688,"o":"m 535 319 l 535 974 l 688 974 l 688 258 q 662 131 688 185 q 592 47 636 76 q 500 4 549 18 q 396 -10 451 -10 q 291 4 340 -10 q 198 47 242 18 q 128 131 154 76 q 103 258 103 185 l 103 974 l 256 974 l 256 319 q 284 183 256 225 q 394 140 313 140 q 506 183 478 140 q 535 319 535 225 m 543 1014 l 242 1014 l 242 1140 l 543 1140 l 543 1014 z "},"ū":{"ha":681,"x_min":108,"x_max":626,"o":"m 626 0 l 483 0 l 474 8 q 369 -15 411 -15 q 108 239 108 -15 l 108 696 l 261 696 l 261 261 q 284 167 261 197 q 369 136 307 136 q 453 170 432 136 q 474 267 474 204 l 474 696 l 626 696 l 626 0 m 511 747 l 210 747 l 210 874 l 511 874 l 511 747 z "},"Ŭ":{"ha":786,"x_min":103,"x_max":688,"o":"m 535 319 l 535 974 l 688 974 l 688 258 q 662 131 688 185 q 592 47 636 76 q 500 4 549 18 q 396 -10 451 -10 q 291 4 340 -10 q 198 47 242 18 q 128 131 154 76 q 103 258 103 185 l 103 974 l 256 974 l 256 319 q 284 183 256 225 q 394 140 313 140 q 506 183 478 140 q 535 319 535 225 m 551 1169 l 551 1163 q 505 1051 551 1097 q 394 1006 458 1006 q 284 1051 331 1006 q 238 1163 238 1097 l 238 1169 l 353 1169 l 353 1163 q 394 1114 353 1114 q 426 1127 414 1114 q 438 1163 438 1140 l 438 1169 l 551 1169 z "},"ŭ":{"ha":681,"x_min":108,"x_max":626,"o":"m 532 907 l 532 900 q 485 790 532 836 q 375 743 439 743 q 265 790 311 743 q 218 900 218 836 l 218 907 l 333 907 l 333 900 q 375 851 333 851 q 406 865 394 851 q 418 900 418 878 l 418 907 l 532 907 m 626 0 l 483 0 l 474 8 q 369 -15 411 -15 q 108 239 108 -15 l 108 696 l 261 696 l 261 261 q 284 167 261 197 q 369 136 307 136 q 453 170 432 136 q 474 267 474 204 l 474 696 l 626 696 l 626 0 z "},"Ů":{"ha":786,"x_min":103,"x_max":688,"o":"m 535 319 l 535 974 l 688 974 l 688 258 q 662 131 688 185 q 592 47 636 76 q 500 4 549 18 q 396 -10 451 -10 q 291 4 340 -10 q 198 47 242 18 q 128 131 154 76 q 103 258 103 185 l 103 974 l 256 974 l 256 319 q 284 183 256 225 q 394 140 313 140 q 506 183 478 140 q 535 319 535 225 m 365 1040 q 370 1034 365 1040 q 394 1028 376 1028 q 424 1040 413 1028 q 435 1069 435 1051 q 424 1099 435 1088 q 394 1110 413 1110 q 365 1099 376 1110 q 353 1069 353 1088 q 365 1040 353 1051 m 499 965 q 477 943 499 965 q 394 921 456 921 q 290 965 333 921 q 246 1069 246 1008 q 290 1174 246 1131 q 394 1218 333 1218 q 499 1174 456 1218 q 543 1069 543 1131 q 499 965 543 1008 z "},"ů":{"ha":681,"x_min":108,"x_max":626,"o":"m 626 0 l 483 0 l 474 8 q 369 -15 411 -15 q 108 239 108 -15 l 108 696 l 261 696 l 261 261 q 284 167 261 197 q 369 136 307 136 q 453 170 432 136 q 474 267 474 204 l 474 696 l 626 696 l 626 0 m 345 788 q 351 782 345 788 q 375 776 357 776 q 404 788 393 776 q 415 818 415 800 q 404 847 415 836 q 375 858 393 858 q 345 847 357 858 q 333 818 333 836 q 345 788 333 800 m 480 713 q 458 691 480 713 q 375 669 436 669 q 270 713 314 669 q 226 818 226 757 q 270 923 226 879 q 375 967 314 967 q 480 923 436 967 q 524 818 524 879 q 480 713 524 757 z "},"Ű":{"ha":786,"x_min":103,"x_max":688,"o":"m 535 319 l 535 974 l 688 974 l 688 258 q 662 131 688 185 q 592 47 636 76 q 500 4 549 18 q 396 -10 451 -10 q 291 4 340 -10 q 198 47 242 18 q 128 131 154 76 q 103 258 103 185 l 103 974 l 256 974 l 256 319 q 284 183 256 225 q 394 140 313 140 q 506 183 478 140 q 535 319 535 225 m 542 1019 l 440 1019 l 504 1169 q 550 1211 518 1201 q 576 1217 565 1217 q 597 1211 589 1217 q 631 1169 625 1197 q 632 1161 632 1165 q 610 1107 632 1136 l 542 1019 m 346 1019 l 244 1019 l 308 1169 q 354 1211 322 1201 q 381 1217 369 1217 q 401 1211 393 1217 q 435 1169 429 1197 q 436 1161 436 1165 q 414 1107 436 1136 l 346 1019 z "},"ű":{"ha":681,"x_min":108,"x_max":626,"o":"m 626 0 l 483 0 l 474 8 q 369 -15 411 -15 q 108 239 108 -15 l 108 696 l 261 696 l 261 261 q 284 167 261 197 q 369 136 307 136 q 453 170 432 136 q 474 267 474 204 l 474 696 l 626 696 l 626 0 m 499 754 l 397 754 l 461 904 q 507 947 475 936 q 533 951 522 951 q 554 946 546 951 q 588 906 582 932 q 589 896 589 900 q 567 842 589 871 l 499 754 m 303 754 l 201 754 l 265 904 q 311 947 279 936 q 338 951 326 951 q 358 946 350 951 q 392 906 386 932 q 393 896 393 900 q 371 842 393 871 l 303 754 z "},"Ų":{"ha":786,"x_min":103,"x_max":688,"o":"m 438 -153 l 506 -226 q 445 -281 481 -265 q 353 -296 410 -296 q 303 -285 331 -296 q 253 -242 276 -274 q 232 -172 232 -211 q 232 -162 232 -167 q 349 -7 236 -81 q 173 68 243 4 q 103 258 103 132 l 103 974 l 256 974 l 256 319 q 284 183 256 225 q 394 140 313 140 q 506 183 478 140 q 535 319 535 225 l 535 974 l 688 974 l 688 258 q 620 70 688 135 q 450 -6 553 6 q 332 -161 332 -106 q 332 -168 332 -165 q 378 -201 338 -201 q 408 -190 390 -201 q 438 -153 425 -178 z "},"ų":{"ha":668,"x_min":50,"x_max":615,"o":"m 547 -153 l 615 -226 q 555 -281 590 -265 q 463 -296 519 -296 q 413 -285 440 -296 q 363 -242 386 -274 q 342 -172 342 -211 q 342 -162 342 -167 q 471 0 346 -76 l 425 0 l 415 8 q 311 -15 353 -15 q 50 239 50 -15 l 50 696 l 203 696 l 203 261 q 226 167 203 197 q 311 136 249 136 q 394 170 374 136 q 415 267 415 204 l 415 696 l 568 696 l 568 0 l 567 0 q 442 -161 442 -103 q 442 -168 442 -165 q 488 -201 447 -201 q 517 -190 500 -201 q 547 -153 535 -178 z "},"Ÿ":{"ha":761,"x_min":67,"x_max":683,"o":"m 475 -26 l 426 90 q 501 125 472 96 q 531 228 531 154 l 531 306 q 385 271 461 271 q 154 353 242 271 q 67 574 67 435 l 67 972 l 219 972 l 219 588 q 385 421 219 421 q 416 422 401 421 q 442 426 431 424 q 464 432 454 429 q 483 440 474 435 q 497 447 492 444 q 509 456 503 450 q 518 464 515 461 q 525 472 521 467 l 531 476 l 531 972 l 683 972 l 683 217 q 636 46 683 107 q 475 -26 589 -15 m 344 1076 q 326 1033 344 1051 q 282 1015 308 1015 q 239 1033 257 1015 q 221 1076 221 1051 q 239 1121 221 1103 q 282 1139 257 1139 q 326 1121 308 1139 q 344 1076 344 1103 m 511 1033 q 502 1024 511 1033 q 467 1015 493 1015 q 422 1033 440 1015 q 404 1078 404 1051 q 422 1122 404 1104 q 467 1140 440 1140 q 511 1122 493 1140 q 529 1078 529 1104 q 511 1033 529 1051 z "},"Ź":{"ha":764,"x_min":43,"x_max":719,"o":"m 719 0 l 43 0 l 43 140 l 518 819 l 61 819 l 61 972 l 711 972 l 711 819 l 233 144 l 719 144 l 719 0 m 385 1090 l 283 1090 l 347 1240 q 393 1283 361 1272 q 419 1288 408 1288 q 440 1282 432 1288 q 474 1242 468 1268 q 475 1232 475 1236 q 453 1178 475 1207 l 385 1090 z "},"ź":{"ha":672,"x_min":108,"x_max":618,"o":"m 618 0 l 108 0 l 108 144 l 399 551 l 121 551 l 121 696 l 604 696 l 604 557 l 313 144 l 618 144 l 618 0 m 413 747 l 311 747 l 375 897 q 421 939 389 929 q 447 944 436 944 q 468 939 460 944 q 501 897 496 925 q 503 889 503 893 q 481 835 503 864 l 413 747 z "},"Ż":{"ha":764,"x_min":43,"x_max":719,"o":"m 719 0 l 43 0 l 43 140 l 518 819 l 61 819 l 61 972 l 711 972 l 711 819 l 233 144 l 719 144 l 719 0 m 400 1008 q 342 1033 367 1008 q 317 1092 317 1058 q 342 1148 317 1124 q 400 1172 367 1172 q 456 1148 432 1172 q 481 1092 481 1124 q 456 1033 481 1058 q 400 1008 432 1008 z "},"ż":{"ha":672,"x_min":108,"x_max":618,"o":"m 618 0 l 108 0 l 108 144 l 399 551 l 121 551 l 121 696 l 604 696 l 604 557 l 313 144 l 618 144 l 618 0 m 363 743 q 304 768 329 743 q 279 826 279 793 q 304 883 279 858 q 363 907 329 907 q 419 883 394 907 q 443 826 443 858 q 419 768 443 793 q 363 743 394 743 z "},"Ž":{"ha":764,"x_min":43,"x_max":719,"o":"m 719 0 l 43 0 l 43 140 l 518 819 l 61 819 l 61 972 l 711 972 l 711 819 l 233 144 l 719 144 l 719 0 m 615 1282 l 418 1086 l 213 1282 l 304 1336 l 417 1221 l 522 1336 l 615 1282 z "},"ž":{"ha":672,"x_min":108,"x_max":618,"o":"m 618 0 l 108 0 l 108 144 l 399 551 l 121 551 l 121 696 l 604 696 l 604 557 l 313 144 l 618 144 l 618 0 m 599 1014 l 401 818 l 196 1014 l 288 1068 l 400 953 l 506 1068 l 599 1014 z "},"Ș":{"ha":779,"x_min":51,"x_max":711,"o":"m 51 247 l 215 271 q 265 172 222 210 q 378 135 308 135 q 503 173 463 135 q 543 256 543 211 q 517 351 543 311 q 450 417 492 392 q 359 464 408 443 q 260 508 310 485 q 168 559 210 531 q 101 635 126 588 q 75 746 75 682 q 156 915 75 843 q 389 986 238 986 q 592 944 504 986 l 583 919 q 563 857 575 894 q 543 800 550 819 q 390 831 449 831 q 274 803 311 831 q 240 740 240 778 q 240 732 240 736 q 294 665 244 696 q 413 606 344 635 q 549 538 482 576 q 664 431 617 500 q 711 269 711 363 q 629 65 711 146 q 379 -15 547 -15 q 141 65 228 -15 q 51 247 54 144 m 364 -303 l 268 -262 q 322 -228 297 -246 q 358 -200 347 -210 l 368 -190 l 351 -186 q 310 -119 310 -167 q 332 -67 310 -87 q 383 -46 353 -46 q 388 -46 386 -46 q 440 -75 424 -47 q 457 -133 457 -103 q 435 -218 457 -181 q 364 -303 414 -256 z "},"ș":{"ha":599,"x_min":50,"x_max":564,"o":"m 50 176 l 203 192 q 228 144 203 167 q 307 122 254 122 q 378 145 353 122 q 403 199 403 168 q 370 263 403 239 q 290 302 338 288 q 195 335 243 317 q 110 397 147 354 q 67 507 74 440 q 65 524 65 515 q 119 649 65 592 q 304 713 178 713 q 388 702 349 713 q 443 682 426 692 l 460 672 l 415 531 q 304 563 383 563 q 247 551 265 563 q 230 527 228 540 q 232 504 232 514 q 273 466 236 483 q 357 432 310 449 q 451 390 404 415 q 531 315 499 365 q 564 196 564 265 q 499 42 564 106 q 307 -21 433 -21 q 121 36 189 -21 q 50 176 53 93 m 281 -304 l 185 -264 q 239 -229 214 -247 q 275 -201 264 -211 l 285 -192 l 268 -187 q 226 -121 226 -168 q 249 -67 226 -89 q 300 -47 269 -47 q 304 -47 303 -47 q 357 -76 340 -49 q 374 -135 374 -104 q 352 -219 374 -182 q 281 -304 331 -257 z "},"ˆ":{"ha":519,"x_min":64,"x_max":467,"o":"m 467 872 l 374 818 l 268 933 l 156 818 l 64 872 l 269 1068 l 467 872 z "},"ˇ":{"ha":519,"x_min":64,"x_max":467,"o":"m 467 1014 l 269 818 l 64 1014 l 156 1068 l 268 953 l 374 1068 l 467 1014 z "},"˘":{"ha":431,"x_min":64,"x_max":378,"o":"m 378 972 l 378 965 q 332 854 378 900 q 221 808 286 808 q 110 854 156 808 q 64 965 64 900 l 64 972 l 179 972 l 179 965 q 221 917 179 917 q 252 930 240 917 q 264 965 264 943 l 264 972 l 378 972 z "},"˙":{"ha":164,"x_min":0,"x_max":164,"o":"m 83 893 q 25 918 50 893 q 0 976 0 943 q 25 1033 0 1008 q 83 1057 50 1057 q 140 1033 115 1057 q 164 976 164 1008 q 140 918 164 943 q 83 893 115 893 z "},"˚":{"ha":308,"x_min":6,"x_max":303,"o":"m 124 890 q 130 884 124 890 q 154 878 136 878 q 183 890 172 878 q 194 919 194 901 q 183 949 194 938 q 154 960 172 960 q 124 949 136 960 q 113 919 113 938 q 124 890 113 901 m 259 815 q 237 793 259 815 q 154 771 215 771 q 49 815 93 771 q 6 919 6 858 q 49 1024 6 981 q 154 1068 93 1068 q 259 1024 215 1068 q 303 919 303 981 q 259 815 303 858 z "},"˛":{"ha":308,"x_min":94,"x_max":368,"o":"m 300 -149 l 368 -222 q 308 -276 343 -261 q 215 -292 272 -292 q 166 -281 193 -292 q 115 -236 139 -269 q 94 -168 94 -207 q 94 -158 94 -162 q 224 4 99 -72 l 319 4 q 194 -157 194 -99 q 194 -164 194 -161 q 240 -197 200 -197 q 270 -185 253 -197 q 300 -149 288 -174 z "},"˜":{"ha":650,"x_min":108,"x_max":596,"o":"m 538 968 l 596 878 q 501 810 549 822 q 463 804 481 804 q 414 814 438 804 q 333 849 374 831 q 268 863 303 863 q 250 861 258 863 q 163 813 204 857 l 108 903 q 206 969 157 957 q 247 976 228 976 q 294 967 272 976 q 375 933 335 951 q 440 919 406 919 q 456 921 449 919 q 538 968 499 925 z "},"˝":{"ha":400,"x_min":6,"x_max":394,"o":"m 304 792 l 203 792 l 267 942 q 313 983 281 974 q 339 989 328 989 q 360 983 351 989 q 393 942 388 969 q 394 933 394 938 q 372 879 394 908 l 304 792 m 107 789 l 6 789 l 69 939 q 115 981 83 971 q 142 986 131 986 q 163 981 154 986 q 196 939 190 967 q 197 931 197 935 q 175 876 197 906 l 107 789 z "},"΅":{"ha":471,"x_min":108,"x_max":417,"o":"m 186 936 q 179 929 186 936 q 154 922 172 922 q 122 936 136 922 q 108 968 108 950 q 122 1000 108 986 q 154 1014 136 1014 q 186 1000 172 1014 q 200 968 200 986 q 186 936 200 950 m 403 936 q 396 929 403 936 q 371 922 389 922 q 339 936 353 922 q 325 968 325 950 q 339 1000 325 986 q 371 1014 353 1014 q 403 1000 389 1014 q 417 968 417 986 q 403 936 417 950 m 311 1015 l 210 1015 l 274 1165 q 319 1208 288 1197 q 346 1213 335 1213 q 367 1207 358 1213 q 400 1167 394 1193 q 401 1157 401 1161 q 379 1103 401 1132 l 311 1015 z "},"Ά":{"ha":871,"x_min":108,"x_max":817,"o":"m 817 0 l 635 0 l 578 254 l 354 254 l 300 0 l 128 0 l 356 972 l 571 972 l 817 0 m 542 417 l 463 717 l 390 417 l 542 417 m 210 788 l 108 788 l 172 938 q 218 981 186 969 q 244 985 233 985 q 265 979 257 985 q 299 939 293 965 q 300 929 300 933 q 278 875 300 904 l 210 788 z "},"Έ":{"ha":858,"x_min":108,"x_max":804,"o":"m 210 789 l 108 789 l 172 939 q 218 981 186 971 q 244 986 233 986 q 265 981 257 986 q 299 939 293 967 q 300 931 300 935 q 278 876 300 906 l 210 789 m 801 0 l 340 0 l 340 972 l 804 972 l 804 819 l 493 819 l 493 574 l 683 574 l 640 428 l 493 428 l 493 139 l 801 139 l 801 0 z "},"Ή":{"ha":994,"x_min":108,"x_max":940,"o":"m 210 789 l 108 789 l 172 939 q 218 981 186 971 q 244 986 233 986 q 265 981 257 986 q 299 939 293 967 q 300 931 300 935 q 278 876 300 906 l 210 789 m 940 0 l 789 0 l 789 428 l 496 428 l 496 0 l 343 0 l 343 972 l 496 972 l 496 574 l 789 574 l 789 972 l 940 972 l 940 0 z "},"Ί":{"ha":621,"x_min":108,"x_max":567,"o":"m 567 0 l 414 0 l 414 822 l 328 825 l 328 972 l 567 972 l 567 0 m 210 789 l 108 789 l 172 939 q 218 981 186 971 q 244 986 233 986 q 265 981 257 986 q 299 939 293 967 q 300 931 300 935 q 278 876 300 906 l 210 789 z "},"Ό":{"ha":908,"x_min":108,"x_max":854,"o":"m 854 703 l 854 257 q 769 51 854 117 q 564 -15 683 -15 q 358 51 444 -15 q 271 257 271 117 l 271 704 q 349 921 271 847 q 565 994 428 994 q 778 917 703 994 q 854 703 854 839 m 701 286 l 701 653 q 674 785 701 742 q 563 829 647 829 q 451 787 478 829 q 424 654 424 744 l 424 283 q 458 178 424 217 q 563 140 492 140 q 665 181 628 140 q 701 286 701 221 m 210 789 l 108 789 l 172 939 q 218 981 186 971 q 244 986 233 986 q 265 981 257 986 q 299 939 293 967 q 300 931 300 935 q 278 876 300 906 l 210 789 z "},"Ύ":{"ha":1000,"x_min":108,"x_max":946,"o":"m 210 789 l 108 789 l 172 939 q 218 981 186 971 q 244 986 233 986 q 265 981 257 986 q 299 939 293 967 q 300 931 300 935 q 278 876 300 906 l 210 789 m 738 -26 l 689 90 q 764 125 735 96 q 793 228 793 154 l 793 306 q 647 271 724 271 q 417 353 504 271 q 329 574 329 435 l 329 972 l 482 972 l 482 588 q 647 421 482 421 q 678 422 664 421 q 705 426 693 424 q 726 432 717 429 q 745 440 736 435 q 760 447 754 444 q 772 456 765 450 q 781 464 778 461 q 789 472 783 467 l 793 476 l 793 972 l 946 972 l 946 217 q 899 46 946 107 q 738 -26 851 -15 z "},"Ώ":{"ha":1007,"x_min":108,"x_max":953,"o":"m 953 0 l 636 0 l 636 140 q 651 140 638 140 q 672 139 664 139 q 696 142 681 139 q 722 149 711 144 q 744 164 732 154 q 764 188 757 174 q 776 223 771 201 q 782 272 782 244 l 782 651 q 749 775 782 731 q 653 819 715 819 l 546 819 q 441 782 474 819 q 408 651 408 744 l 408 271 q 415 215 408 239 q 433 178 421 192 q 456 155 444 164 q 486 143 468 146 q 513 140 504 140 q 538 140 522 139 q 556 140 554 140 l 556 0 l 239 0 l 263 140 l 288 140 q 257 272 257 189 l 257 699 q 322 904 257 826 q 518 982 388 982 l 674 982 q 869 904 804 982 q 935 699 935 826 l 935 272 q 929 208 935 233 q 915 164 924 182 q 904 140 906 146 l 929 140 l 953 0 m 210 789 l 108 789 l 172 939 q 218 981 186 971 q 244 986 233 986 q 265 981 257 986 q 299 939 293 967 q 300 931 300 935 q 278 876 300 906 l 210 789 z "},"ΐ":{"ha":592,"x_min":108,"x_max":538,"o":"m 393 0 l 240 0 l 240 696 l 393 696 l 393 0 m 358 797 l 257 797 l 321 947 q 367 989 335 979 q 393 994 382 994 q 414 989 406 994 q 447 947 442 975 q 449 939 449 943 q 426 885 449 914 l 358 797 m 519 771 q 510 762 519 771 q 475 753 501 753 q 431 771 449 753 q 413 815 413 789 q 431 860 413 842 q 475 878 449 878 q 519 860 501 878 q 538 815 538 842 q 519 771 538 789 m 232 814 q 214 771 232 789 q 169 753 196 753 q 126 771 144 753 q 108 814 108 789 q 126 858 108 840 q 169 876 144 876 q 214 858 196 876 q 232 814 232 840 z "},"Α":{"ha":726,"x_min":29,"x_max":718,"o":"m 718 0 l 536 0 l 479 254 l 256 254 l 201 0 l 29 0 l 257 972 l 472 972 l 718 0 m 443 417 l 364 717 l 292 417 l 443 417 z "},"Β":{"ha":764,"x_min":108,"x_max":710,"o":"m 413 0 l 108 0 l 108 972 l 392 972 q 583 908 507 972 q 660 726 660 844 q 568 533 660 596 q 567 531 567 532 l 567 529 q 669 440 628 501 q 710 285 710 379 q 694 184 710 232 q 646 94 679 136 q 553 26 613 51 q 413 0 493 0 m 261 574 l 328 574 q 444 603 407 574 q 482 703 482 632 q 447 794 482 768 q 342 819 413 819 l 261 819 l 261 574 m 261 140 l 346 140 q 488 169 442 140 q 535 288 535 197 q 358 426 535 426 l 261 426 l 261 140 z "},"Γ":{"ha":626,"x_min":108,"x_max":572,"o":"m 263 0 l 108 0 l 108 972 l 572 972 l 572 819 l 263 819 l 263 0 z "},"Δ":{"ha":739,"x_min":29,"x_max":731,"o":"m 731 0 l 29 0 l 294 972 l 447 972 l 731 0 m 524 140 l 378 669 l 236 140 l 524 140 z "},"Ε":{"ha":626,"x_min":108,"x_max":572,"o":"m 569 0 l 108 0 l 108 972 l 572 972 l 572 819 l 261 819 l 261 574 l 451 574 l 408 428 l 261 428 l 261 139 l 569 139 l 569 0 z "},"Ζ":{"ha":839,"x_min":108,"x_max":785,"o":"m 785 0 l 108 0 l 108 140 l 583 819 l 126 819 l 126 972 l 776 972 l 776 819 l 299 144 l 785 144 l 785 0 z "},"Η":{"ha":807,"x_min":111,"x_max":708,"o":"m 708 0 l 557 0 l 557 428 l 264 428 l 264 0 l 111 0 l 111 972 l 264 972 l 264 574 l 557 574 l 557 972 l 708 972 l 708 0 z "},"Θ":{"ha":746,"x_min":108,"x_max":692,"o":"m 692 703 l 692 257 q 606 51 692 117 q 401 -15 521 -15 q 195 51 282 -15 q 108 257 108 117 l 108 704 q 187 921 108 847 q 403 994 265 994 q 616 917 540 994 q 692 703 692 839 m 539 286 l 539 428 l 261 428 l 261 283 q 295 178 261 217 q 400 140 329 140 q 502 181 465 140 q 539 286 539 221 m 539 574 l 539 653 q 512 785 539 742 q 400 829 485 829 q 288 787 315 829 q 261 654 261 744 l 261 574 l 539 574 z "},"Ι":{"ha":449,"x_min":111,"x_max":350,"o":"m 350 0 l 197 0 l 197 822 l 111 825 l 111 972 l 350 972 l 350 0 z "},"Κ":{"ha":789,"x_min":108,"x_max":735,"o":"m 735 0 l 544 0 l 282 386 l 272 372 l 272 0 l 108 0 l 108 974 l 272 974 l 272 639 l 497 974 l 681 974 l 372 522 l 735 0 z "},"Λ":{"ha":739,"x_min":29,"x_max":731,"o":"m 731 0 l 556 0 l 376 631 l 201 0 l 29 0 l 307 972 l 449 972 l 731 0 z "},"Μ":{"ha":954,"x_min":111,"x_max":856,"o":"m 856 0 l 703 0 l 703 514 l 540 0 l 424 0 l 264 513 l 264 0 l 111 0 l 111 972 l 264 972 l 482 329 l 703 972 l 856 972 l 856 0 z "},"Ν":{"ha":893,"x_min":111,"x_max":794,"o":"m 794 0 l 640 0 l 264 657 l 264 0 l 111 0 l 111 972 l 264 972 l 640 319 l 640 972 l 794 972 l 794 0 z "},"Ξ":{"ha":869,"x_min":108,"x_max":815,"o":"m 651 428 l 285 428 l 285 574 l 651 574 l 651 428 m 732 819 l 339 819 q 215 757 238 819 l 108 826 q 179 939 131 904 q 310 974 228 974 l 761 974 l 732 819 m 614 0 l 163 0 l 206 140 l 558 140 q 643 156 614 140 q 688 218 672 172 l 815 147 q 744 35 793 69 q 614 0 696 0 z "},"Ο":{"ha":754,"x_min":86,"x_max":669,"o":"m 669 703 l 669 257 q 584 51 669 117 q 379 -15 499 -15 q 173 51 260 -15 q 86 257 86 117 l 86 704 q 165 921 86 847 q 381 994 243 994 q 594 917 518 994 q 669 703 669 839 m 517 286 l 517 653 q 490 785 517 742 q 378 829 463 829 q 266 787 293 829 q 239 654 239 744 l 239 283 q 273 178 239 217 q 378 140 307 140 q 480 181 443 140 q 517 286 517 221 z "},"Π":{"ha":807,"x_min":111,"x_max":708,"o":"m 708 0 l 556 0 l 556 819 l 264 819 l 264 0 l 111 0 l 111 972 l 708 972 l 708 0 z "},"Ρ":{"ha":765,"x_min":108,"x_max":711,"o":"m 261 417 l 392 417 q 473 432 439 417 q 523 466 507 447 q 548 519 539 485 q 558 574 557 554 q 558 631 558 594 q 558 640 558 638 q 517 783 558 747 q 386 819 475 819 l 261 819 l 261 417 m 261 0 l 108 0 l 108 972 l 425 972 q 641 878 571 972 q 711 643 711 785 q 438 271 711 271 l 261 271 l 261 0 z "},"Σ":{"ha":813,"x_min":108,"x_max":758,"o":"m 557 0 l 108 0 l 422 533 l 131 975 l 725 975 l 678 819 l 413 819 l 603 538 l 368 140 l 514 140 q 589 155 567 140 q 628 218 611 169 l 758 147 q 688 35 736 69 q 557 0 639 0 z "},"Τ":{"ha":721,"x_min":108,"x_max":667,"o":"m 461 0 l 308 0 l 308 818 l 108 818 l 108 972 l 667 972 l 667 818 l 461 818 l 461 0 z "},"Υ":{"ha":772,"x_min":83,"x_max":700,"o":"m 492 -26 l 443 90 q 518 125 489 96 q 547 228 547 154 l 547 306 q 401 271 478 271 q 171 353 258 271 q 83 574 83 435 l 83 972 l 236 972 l 236 588 q 401 421 236 421 q 433 422 418 421 q 459 426 447 424 q 481 432 471 429 q 499 440 490 435 q 514 447 508 444 q 526 456 519 450 q 535 464 532 461 q 542 472 538 467 l 547 476 l 547 972 l 700 972 l 700 217 q 653 46 700 107 q 492 -26 606 -15 z "},"Φ":{"ha":894,"x_min":108,"x_max":840,"o":"m 547 -49 l 394 -31 l 394 21 l 369 21 q 239 43 292 21 q 158 107 186 65 q 119 198 131 149 q 108 313 108 247 l 108 718 q 269 981 108 929 l 350 864 q 312 848 321 853 q 287 828 303 843 q 266 787 271 813 q 261 718 261 761 l 261 349 q 263 276 261 301 q 269 221 264 251 q 286 176 275 190 q 318 151 297 161 q 369 140 339 140 l 394 140 l 394 840 q 455 947 399 907 q 581 988 511 988 q 771 912 701 988 q 840 710 840 836 l 840 313 q 783 99 840 176 q 579 21 725 21 l 547 21 l 547 -49 m 547 140 l 579 140 q 631 151 610 140 q 662 175 651 161 q 678 222 672 189 q 684 277 683 254 q 685 349 685 300 l 685 631 q 672 791 685 747 q 610 835 660 835 q 592 833 600 835 q 577 831 583 832 q 566 824 571 829 q 558 817 561 819 q 553 808 556 815 q 550 799 551 801 q 548 789 549 797 q 547 778 547 781 q 547 767 547 776 q 547 757 547 758 l 547 140 z "},"Χ":{"ha":964,"x_min":108,"x_max":910,"o":"m 910 0 l 714 0 l 503 339 l 299 0 l 108 0 l 411 486 l 125 972 l 306 972 l 510 650 l 704 972 l 886 972 l 601 499 l 910 0 z "},"Ψ":{"ha":878,"x_min":75,"x_max":807,"o":"m 514 0 l 364 0 l 363 294 l 336 294 q 140 366 204 294 q 75 564 75 438 l 75 972 l 226 972 l 226 613 q 244 466 226 504 q 336 428 263 428 l 363 428 l 363 972 l 514 972 l 514 428 l 546 428 q 638 467 619 428 q 656 615 656 507 l 656 783 q 653 840 656 818 q 642 878 651 863 q 631 898 633 893 q 610 913 628 903 q 590 926 593 924 l 729 985 q 785 920 767 961 q 805 850 803 879 q 807 763 807 821 l 807 564 q 742 366 807 438 q 546 294 678 294 l 514 294 l 514 0 z "},"Ϊ":{"ha":528,"x_min":111,"x_max":429,"o":"m 244 1076 q 226 1033 244 1051 q 182 1015 208 1015 q 139 1033 157 1015 q 121 1076 121 1051 q 139 1121 121 1103 q 182 1139 157 1139 q 226 1121 208 1139 q 244 1076 244 1103 m 411 1033 q 402 1024 411 1033 q 367 1015 393 1015 q 322 1033 340 1015 q 304 1078 304 1051 q 322 1122 304 1104 q 367 1140 340 1140 q 411 1122 393 1140 q 429 1078 429 1104 q 411 1033 429 1051 m 350 0 l 197 0 l 197 822 l 111 825 l 111 972 l 350 972 l 350 0 z "},"Ϋ":{"ha":719,"x_min":10,"x_max":665,"o":"m 299 1074 q 281 1031 299 1049 q 236 1013 263 1013 q 193 1031 211 1013 q 175 1074 175 1049 q 193 1118 175 1100 q 236 1136 211 1136 q 281 1118 263 1136 q 299 1074 299 1100 m 465 1031 q 456 1022 465 1031 q 421 1013 447 1013 q 376 1031 394 1013 q 358 1075 358 1049 q 376 1119 358 1101 q 421 1138 394 1138 q 465 1119 447 1138 q 483 1075 483 1101 q 465 1031 483 1049 m 414 0 l 260 0 l 260 438 l 10 972 l 171 972 l 336 601 l 503 972 l 665 972 l 414 438 l 414 0 z "},"ά":{"ha":711,"x_min":108,"x_max":657,"o":"m 657 49 l 503 0 l 483 11 q 372 -14 433 -11 q 353 -15 363 -15 q 251 0 303 -15 q 149 77 190 17 q 108 235 108 138 l 108 492 q 138 619 108 569 q 209 685 167 668 q 306 704 251 703 q 319 704 313 704 q 400 697 364 704 q 475 675 440 688 l 488 710 l 625 675 q 615 540 615 585 l 615 107 q 657 49 624 68 m 461 153 l 461 533 q 407 551 439 544 q 342 558 375 558 q 339 560 340 560 q 283 542 306 560 q 261 488 261 524 l 261 293 q 261 262 261 271 q 263 232 261 253 q 268 202 265 211 q 278 177 271 193 q 294 155 285 161 q 319 141 304 149 q 354 133 335 133 q 401 138 374 133 q 461 153 428 142 m 431 747 l 329 747 l 393 897 q 439 939 407 929 q 465 944 454 944 q 486 939 478 944 q 519 897 514 925 q 521 889 521 893 q 499 835 521 864 l 431 747 z "},"έ":{"ha":642,"x_min":108,"x_max":588,"o":"m 414 747 l 313 747 l 376 897 q 422 939 390 929 q 449 944 438 944 q 469 939 461 944 q 503 897 497 925 q 504 889 504 893 q 482 835 504 864 l 414 747 m 542 179 l 588 32 q 351 -15 479 -15 q 181 42 244 -15 q 110 183 117 99 q 108 208 108 196 q 197 383 108 326 q 150 453 171 404 q 135 528 135 490 q 136 553 135 540 q 207 669 146 629 q 338 710 267 710 q 343 710 340 710 q 490 689 418 708 l 494 553 q 425 571 458 565 q 376 575 401 575 l 358 575 q 305 552 325 572 q 285 494 285 532 q 321 438 285 457 q 415 418 357 418 l 489 418 l 446 271 l 385 271 q 261 213 261 271 q 379 142 261 142 q 388 142 383 142 q 469 151 431 142 q 525 169 507 161 l 542 179 z "},"ή":{"ha":675,"x_min":108,"x_max":621,"o":"m 447 747 l 346 747 l 410 897 q 456 939 424 929 q 482 944 471 944 q 503 939 494 944 q 536 897 531 925 q 538 889 538 893 q 515 835 538 864 l 447 747 m 621 -292 l 469 -258 l 469 476 q 408 564 469 543 q 371 569 390 569 q 260 536 322 569 l 260 0 l 108 0 l 108 696 l 249 696 l 260 690 q 365 707 299 706 q 372 707 368 707 q 503 682 436 707 q 621 481 621 628 l 621 -292 z "},"ί":{"ha":386,"x_min":108,"x_max":332,"o":"m 242 747 l 140 747 l 204 897 q 250 939 218 929 q 276 944 265 944 q 297 939 289 944 q 331 897 325 925 q 332 889 332 893 q 310 835 332 864 l 242 747 m 261 0 l 108 0 l 108 696 l 261 696 l 261 0 z "},"ΰ":{"ha":690,"x_min":108,"x_max":636,"o":"m 293 814 q 275 771 293 789 q 231 753 257 753 q 188 771 206 753 q 169 814 169 789 q 188 858 169 840 q 231 876 206 876 q 275 858 257 876 q 293 814 293 840 m 581 771 q 572 762 581 771 q 536 753 563 753 q 492 771 510 753 q 474 815 474 789 q 492 860 474 842 q 536 878 510 878 q 581 860 563 878 q 599 815 599 842 q 581 771 599 789 m 419 797 l 318 797 l 382 947 q 428 989 396 979 q 454 994 443 994 q 475 989 467 994 q 508 947 503 975 q 510 939 510 943 q 488 885 510 914 l 419 797 m 483 315 l 483 696 l 636 696 l 636 239 q 369 -14 636 -14 q 108 239 108 -14 l 108 696 l 261 696 l 261 313 q 278 174 261 208 q 369 140 296 140 q 465 175 447 140 q 483 315 483 210 z "},"α":{"ha":711,"x_min":108,"x_max":657,"o":"m 657 49 l 503 0 l 483 11 q 372 -14 433 -11 q 353 -15 363 -15 q 251 0 303 -15 q 149 77 190 17 q 108 235 108 138 l 108 492 q 138 619 108 569 q 209 685 167 668 q 306 704 251 703 q 319 704 313 704 q 400 697 364 704 q 475 675 440 688 l 488 710 l 625 675 q 615 540 615 585 l 615 107 q 657 49 624 68 m 461 153 l 461 533 q 407 551 439 544 q 342 558 375 558 q 339 560 340 560 q 283 542 306 560 q 261 488 261 524 l 261 293 q 261 262 261 271 q 263 232 261 253 q 268 202 265 211 q 278 177 271 193 q 294 155 285 161 q 319 141 304 149 q 354 133 335 133 q 401 138 374 133 q 461 153 428 142 z "},"β":{"ha":676,"x_min":108,"x_max":622,"o":"m 258 -224 l 108 -224 l 108 746 q 166 911 108 849 q 325 974 224 974 q 442 940 392 974 q 514 861 493 907 q 529 788 529 825 q 528 761 529 775 q 481 674 521 708 q 581 599 539 653 q 622 458 622 546 l 622 203 q 609 118 622 156 q 578 57 596 81 q 527 16 561 33 q 470 -9 493 -1 q 403 -21 447 -17 q 342 -25 360 -25 q 282 -25 324 -25 q 258 -25 265 -25 l 258 -224 m 471 281 l 471 411 q 371 550 471 550 q 258 521 325 550 l 258 140 q 369 129 324 129 q 375 131 372 129 q 447 166 422 131 q 471 281 471 201 m 258 728 l 258 675 q 325 700 285 688 q 378 743 367 714 q 381 764 381 754 q 369 796 381 781 q 324 819 353 819 q 278 806 293 819 q 260 776 263 792 q 258 728 258 761 z "},"γ":{"ha":665,"x_min":10,"x_max":682,"o":"m 376 -232 l 242 -275 q 200 -179 207 -239 q 199 -149 199 -164 q 213 -69 199 -107 l 244 29 q 231 42 242 32 q 213 64 221 53 q 189 106 204 75 q 160 179 174 136 l 10 696 l 174 696 l 250 372 q 300 221 282 238 l 401 556 q 469 670 424 632 q 586 725 514 708 l 682 632 q 633 617 653 626 q 584 573 613 607 q 538 482 556 539 l 371 -69 q 357 -117 361 -96 q 351 -151 353 -139 q 353 -179 349 -164 q 358 -198 357 -194 q 367 -216 358 -201 q 376 -232 375 -231 z "},"δ":{"ha":681,"x_min":108,"x_max":626,"o":"m 626 400 l 626 256 q 369 -14 626 -14 q 173 58 238 -14 q 108 256 108 129 l 108 431 q 145 593 108 532 q 231 675 182 654 q 183 761 194 710 q 181 800 181 782 q 192 861 181 832 q 265 944 208 910 q 407 979 322 979 l 483 979 l 454 819 l 394 819 q 358 808 374 819 q 347 775 343 797 q 388 728 351 753 q 546 601 511 639 q 626 400 626 518 m 475 247 l 475 356 q 447 481 475 435 q 354 565 415 531 q 307 553 326 563 q 278 532 288 543 q 263 499 268 521 q 258 467 258 478 q 259 430 258 456 q 260 399 260 404 l 260 247 q 294 163 260 192 q 369 135 328 135 q 442 160 410 135 q 475 247 475 185 z "},"ε":{"ha":642,"x_min":108,"x_max":588,"o":"m 542 179 l 588 32 q 351 -15 479 -15 q 181 42 244 -15 q 110 183 117 99 q 108 208 108 196 q 197 383 108 326 q 150 453 171 404 q 135 528 135 490 q 136 553 135 540 q 207 669 146 629 q 338 710 267 710 q 343 710 340 710 q 490 689 418 708 l 494 553 q 425 571 458 565 q 376 575 401 575 l 358 575 q 305 552 325 572 q 285 494 285 532 q 321 438 285 457 q 415 418 357 418 l 489 418 l 446 271 l 385 271 q 261 213 261 271 q 379 142 261 142 q 388 142 383 142 q 469 151 431 142 q 525 169 507 161 l 542 179 z "},"ζ":{"ha":700,"x_min":108,"x_max":646,"o":"m 565 -254 l 413 -290 l 413 0 q 372 -1 392 -1 q 213 42 281 -1 q 113 192 129 93 q 108 246 108 218 q 117 329 108 285 q 158 467 129 406 q 197 540 176 504 q 238 608 217 576 q 277 663 260 639 q 317 713 294 686 q 352 753 340 740 q 386 790 364 767 q 413 819 408 814 l 203 819 l 203 972 l 581 972 l 646 833 q 339 461 476 700 q 269 265 269 343 q 297 185 269 217 q 414 143 332 143 q 565 167 476 143 l 565 -254 z "},"η":{"ha":675,"x_min":108,"x_max":621,"o":"m 621 -292 l 469 -258 l 469 476 q 408 564 469 543 q 371 569 390 569 q 260 536 322 569 l 260 0 l 108 0 l 108 696 l 249 696 l 260 690 q 365 707 299 706 q 372 707 368 707 q 503 682 436 707 q 621 481 621 628 l 621 -292 z "},"θ":{"ha":699,"x_min":86,"x_max":614,"o":"m 614 701 l 614 265 q 545 67 614 142 q 350 -8 476 -8 q 154 67 222 -7 q 86 265 86 142 l 86 474 q 160 608 89 563 q 113 781 113 700 q 113 789 113 785 q 179 930 115 874 q 347 986 243 986 q 547 908 479 983 q 614 701 614 833 m 464 271 l 464 554 q 299 511 361 544 q 236 432 236 478 l 236 257 q 293 165 236 192 q 347 153 319 153 l 407 168 q 464 271 464 197 m 297 674 q 464 703 385 703 q 435 803 464 768 q 356 838 406 838 q 269 794 290 838 q 264 765 264 781 q 297 674 264 728 z "},"ι":{"ha":296,"x_min":92,"x_max":244,"o":"m 244 0 l 92 0 l 92 696 l 244 696 l 244 0 z "},"κ":{"ha":722,"x_min":108,"x_max":668,"o":"m 668 133 l 622 -1 q 532 24 574 -1 q 469 75 490 50 q 408 153 447 100 l 299 304 l 261 271 l 261 0 l 108 0 l 108 711 l 261 693 l 261 463 l 475 696 l 664 696 l 411 417 l 549 222 q 614 152 588 169 q 668 133 640 135 z "},"λ":{"ha":835,"x_min":108,"x_max":781,"o":"m 781 64 l 685 -29 q 567 26 613 -12 q 500 140 522 64 l 399 475 q 349 324 381 458 l 272 0 l 108 0 l 258 517 q 288 590 272 560 q 311 632 303 621 q 330 653 319 643 q 343 667 340 664 l 311 765 q 274 833 293 817 q 204 853 254 850 l 247 972 q 254 972 250 972 q 378 939 333 972 q 451 824 424 906 l 636 214 q 699 102 663 132 q 781 64 736 72 z "},"μ":{"ha":728,"x_min":108,"x_max":674,"o":"m 674 38 l 535 -8 l 533 -6 q 526 1 531 -4 q 517 10 521 6 q 415 -17 482 -17 q 385 -15 401 -17 q 261 17 314 -6 l 261 -292 l 108 -279 l 108 696 l 261 696 l 261 154 q 314 136 268 147 q 386 128 354 128 q 394 128 390 128 q 482 271 482 133 l 482 690 l 636 708 l 636 96 q 674 38 640 57 z "},"ν":{"ha":750,"x_min":108,"x_max":696,"o":"m 478 0 l 331 0 l 108 696 l 275 696 l 404 271 l 531 696 l 696 696 l 478 0 z "},"ξ":{"ha":582,"x_min":108,"x_max":528,"o":"m 528 -267 l 376 -303 l 376 -3 q 356 -3 367 -3 q 292 3 324 -3 q 206 34 250 11 q 135 107 163 57 q 108 228 108 157 l 108 483 q 155 628 108 574 q 250 700 201 683 q 211 788 214 738 q 210 800 210 794 q 231 881 210 843 q 303 953 253 924 q 417 983 353 983 l 479 983 l 450 819 l 425 819 q 374 803 389 819 q 367 765 360 786 q 397 728 375 743 q 497 686 421 711 l 454 553 q 364 569 403 569 q 311 558 333 569 q 260 443 260 535 l 260 271 q 273 192 260 222 q 308 149 286 163 q 367 135 331 135 q 439 142 403 135 q 528 167 475 150 l 528 -267 z "},"ο":{"ha":681,"x_min":108,"x_max":626,"o":"m 626 439 l 626 256 q 563 63 626 139 q 369 -14 499 -14 q 174 63 240 -14 q 108 256 108 140 l 108 439 q 176 641 108 571 q 369 711 243 711 q 558 638 490 711 q 626 439 626 565 m 475 242 l 475 439 q 465 505 475 479 q 437 541 456 531 q 403 554 418 551 q 369 557 389 557 q 261 439 261 557 l 261 242 q 369 136 261 136 q 445 163 415 136 q 475 242 475 189 z "},"π":{"ha":710,"x_min":92,"x_max":658,"o":"m 658 86 l 568 -22 q 557 -18 564 -21 q 532 -4 550 -15 q 500 21 514 7 q 475 61 486 35 q 464 118 464 88 l 465 553 l 244 553 l 244 0 l 92 0 l 92 696 l 618 696 l 618 144 q 658 86 625 106 z "},"ρ":{"ha":681,"x_min":108,"x_max":626,"o":"m 261 -271 l 108 -293 l 108 438 q 176 633 108 561 q 368 704 244 704 q 564 630 501 704 q 626 426 626 556 l 626 239 q 562 51 626 117 q 369 -14 497 -14 q 261 6 324 -14 l 261 -271 m 472 267 l 472 413 q 447 530 472 499 q 367 561 422 561 q 288 529 314 561 q 261 414 261 497 l 261 267 q 285 166 261 197 q 369 135 310 135 q 450 165 428 135 q 472 267 472 194 z "},"ς":{"ha":604,"x_min":108,"x_max":551,"o":"m 506 -211 l 392 -147 q 413 -100 407 -125 q 414 -82 414 -90 q 408 -47 414 -65 q 368 1 399 -18 q 204 114 243 79 q 108 315 108 200 l 108 510 q 166 642 108 583 q 347 701 224 701 q 431 692 392 701 q 486 674 469 683 l 503 664 l 467 531 q 342 564 421 564 q 296 556 313 564 q 272 529 279 549 q 264 495 265 510 q 263 447 263 481 q 263 432 263 438 l 263 354 q 264 300 263 321 q 276 257 265 279 q 296 223 288 235 q 334 188 304 211 q 386 149 364 164 q 464 99 408 135 q 540 -1 522 61 q 551 -72 551 -39 q 546 -117 551 -96 q 506 -211 533 -171 z "},"σ":{"ha":799,"x_min":108,"x_max":744,"o":"m 626 431 l 626 243 q 369 -26 626 -26 q 173 45 238 -26 q 108 243 108 117 l 108 492 q 134 605 108 558 q 201 672 160 651 q 294 703 243 693 q 344 707 319 707 l 397 701 q 479 694 443 694 q 532 699 508 694 q 636 754 586 708 l 744 664 q 690 597 732 631 q 606 553 647 564 l 608 544 q 615 531 613 538 q 620 510 617 524 q 625 476 624 497 q 626 431 626 456 m 472 275 l 472 408 q 466 488 472 453 q 454 538 460 524 q 446 551 449 551 q 348 561 389 561 q 285 535 307 561 q 263 451 263 508 l 263 275 q 287 170 263 203 q 368 138 311 138 q 449 168 426 138 q 472 275 472 199 z "},"τ":{"ha":581,"x_min":108,"x_max":526,"o":"m 476 78 l 413 -28 q 283 48 329 -7 q 238 183 238 103 l 238 553 l 108 553 l 108 694 l 526 694 l 526 553 l 389 553 l 389 204 q 408 124 389 153 q 476 78 428 94 z "},"υ":{"ha":671,"x_min":92,"x_max":619,"o":"m 467 315 l 467 696 l 619 696 l 619 239 q 353 -14 619 -14 q 92 239 92 -14 l 92 696 l 244 696 l 244 313 q 262 174 244 208 q 353 140 279 140 q 449 175 431 140 q 467 315 467 210 z "},"φ":{"ha":894,"x_min":108,"x_max":840,"o":"m 549 -300 l 396 -282 l 396 -7 l 369 -7 q 173 65 238 -7 q 108 263 108 136 l 108 436 q 269 699 108 647 l 351 583 q 282 545 304 574 q 260 436 260 517 l 260 331 q 278 181 260 221 q 369 140 296 140 l 396 140 l 396 557 q 456 664 400 624 q 581 704 511 704 q 771 628 701 704 q 840 426 840 553 l 840 263 q 776 65 840 136 q 579 -7 711 -7 l 549 -7 l 549 -300 m 549 140 l 579 140 q 670 179 653 140 q 688 326 688 218 l 688 431 q 667 550 688 517 q 611 583 647 583 q 567 568 586 583 q 549 528 549 553 l 549 140 z "},"χ":{"ha":903,"x_min":108,"x_max":849,"o":"m 849 -193 l 776 -294 q 774 -294 775 -294 q 593 -161 661 -294 l 451 128 l 242 -283 l 108 -224 l 374 289 l 168 696 l 333 696 l 454 444 l 585 696 l 757 696 l 532 285 l 710 -82 q 849 -193 754 -193 z "},"ψ":{"ha":896,"x_min":108,"x_max":840,"o":"m 546 -304 l 394 -286 l 394 -7 l 369 -7 q 173 65 238 -7 q 108 263 108 136 l 108 694 l 258 694 l 258 333 q 277 182 258 224 q 369 140 296 140 l 394 140 l 394 694 l 546 694 l 546 140 l 579 140 q 671 182 653 140 q 689 333 689 224 l 689 501 q 687 546 689 526 q 680 580 685 565 q 672 604 675 594 q 658 622 668 614 q 645 634 649 631 q 630 645 642 638 q 615 654 618 653 l 763 703 q 818 638 800 679 q 838 568 836 597 q 840 481 840 539 l 840 263 q 776 65 840 136 q 579 -7 711 -7 l 546 -7 l 546 -304 z "},"ω":{"ha":882,"x_min":92,"x_max":831,"o":"m 678 271 l 678 454 q 660 556 678 525 q 599 608 642 588 l 682 694 q 831 440 831 639 l 831 261 q 607 -17 831 -17 q 461 57 510 -17 q 315 -17 410 -17 q 92 261 92 -17 l 92 440 q 240 694 92 639 l 326 608 q 265 557 285 590 q 244 454 244 524 l 244 271 q 260 168 244 196 q 311 140 276 140 q 366 167 350 140 q 383 271 382 193 l 383 415 l 535 415 l 535 271 q 552 167 536 193 q 611 140 568 140 q 663 170 649 140 q 678 271 678 200 z "},"ϊ":{"ha":388,"x_min":25,"x_max":333,"o":"m 257 0 l 104 0 l 104 696 l 257 696 l 257 0 m 149 810 q 131 767 149 785 q 86 749 113 749 q 43 767 61 749 q 25 810 25 785 q 43 854 25 836 q 86 872 61 872 q 131 854 113 872 q 149 810 149 836 m 315 767 q 306 758 315 767 q 271 749 297 749 q 226 767 244 749 q 208 811 208 785 q 226 856 208 838 q 271 874 244 874 q 315 856 297 874 q 333 811 333 838 q 315 767 333 785 z "},"ϋ":{"ha":690,"x_min":108,"x_max":636,"o":"m 350 810 q 332 767 350 785 q 288 749 314 749 q 244 767 263 749 q 226 810 226 785 q 244 854 226 836 q 288 872 263 872 q 332 854 314 872 q 350 810 350 836 m 517 767 q 508 758 517 767 q 472 749 499 749 q 428 767 446 749 q 410 811 410 785 q 428 856 410 838 q 472 874 446 874 q 517 856 499 874 q 535 811 535 838 q 517 767 535 785 m 483 315 l 483 696 l 636 696 l 636 239 q 369 -14 636 -14 q 108 239 108 -14 l 108 696 l 261 696 l 261 313 q 278 174 261 208 q 369 140 296 140 q 465 175 447 140 q 483 315 483 210 z "},"ό":{"ha":681,"x_min":108,"x_max":626,"o":"m 433 747 l 332 747 l 396 897 q 442 939 410 929 q 468 944 457 944 q 489 939 481 944 q 522 897 517 925 q 524 889 524 893 q 501 835 524 864 l 433 747 m 626 439 l 626 256 q 563 63 626 139 q 369 -14 499 -14 q 174 63 240 -14 q 108 256 108 140 l 108 439 q 176 641 108 571 q 369 711 243 711 q 558 638 490 711 q 626 439 626 565 m 475 242 l 475 439 q 465 505 475 479 q 437 541 456 531 q 403 554 418 551 q 369 557 389 557 q 261 439 261 557 l 261 242 q 369 136 261 136 q 445 163 415 136 q 475 242 475 189 z "},"ύ":{"ha":690,"x_min":108,"x_max":636,"o":"m 447 747 l 346 747 l 410 897 q 456 939 424 929 q 482 944 471 944 q 503 939 494 944 q 536 897 531 925 q 538 889 538 893 q 515 835 538 864 l 447 747 m 483 315 l 483 696 l 636 696 l 636 239 q 369 -14 636 -14 q 108 239 108 -14 l 108 696 l 261 696 l 261 313 q 278 174 261 208 q 369 140 296 140 q 465 175 447 140 q 483 315 483 210 z "},"ώ":{"ha":901,"x_min":108,"x_max":847,"o":"m 550 747 l 449 747 l 513 897 q 558 939 526 929 q 585 944 574 944 q 606 939 597 944 q 639 897 633 925 q 640 889 640 893 q 618 835 640 864 l 550 747 m 694 271 l 694 454 q 676 556 694 525 q 615 608 658 588 l 699 694 q 847 440 847 639 l 847 261 q 624 -17 847 -17 q 478 57 526 -17 q 332 -17 426 -17 q 108 261 108 -17 l 108 440 q 257 694 108 639 l 343 608 q 281 557 301 590 q 261 454 261 524 l 261 271 q 277 168 261 196 q 328 140 293 140 q 383 167 367 140 q 400 271 399 193 l 400 415 l 551 415 l 551 271 q 569 167 553 193 q 628 140 585 140 q 680 170 665 140 q 694 271 694 200 z "},"‘":{"ha":200,"x_min":6,"x_max":194,"o":"m 94 879 l 111 875 q 153 808 153 856 q 131 756 153 776 q 79 735 110 735 q 75 735 76 735 q 22 764 39 736 q 6 822 6 792 q 27 907 6 869 q 99 992 49 944 l 194 951 q 140 917 165 935 q 106 889 115 899 l 94 879 z "},"’":{"ha":200,"x_min":6,"x_max":194,"o":"m 101 728 l 6 768 q 60 803 35 785 q 94 831 85 821 l 106 840 l 89 844 q 47 911 47 864 q 69 964 47 943 q 121 985 90 985 q 125 985 124 985 q 178 956 161 983 q 194 897 194 928 q 173 813 194 850 q 101 728 151 775 z "},"‚":{"ha":247,"x_min":1,"x_max":190,"o":"m 97 -117 l 1 -76 q 56 -42 31 -60 q 92 -14 81 -24 l 101 -4 l 85 0 q 43 67 43 19 q 65 119 43 99 q 117 140 86 140 q 121 140 119 140 q 174 111 157 139 q 190 53 190 83 q 169 -32 190 6 q 97 -117 147 -69 z "},"“":{"ha":408,"x_min":6,"x_max":403,"o":"m 303 885 l 319 881 q 361 814 361 861 q 339 761 361 782 q 288 740 318 740 q 283 740 285 740 q 231 769 247 742 q 214 828 214 797 q 235 913 214 875 q 307 997 257 950 l 403 957 q 349 922 374 940 q 314 894 324 904 l 303 885 m 94 885 l 111 881 q 153 814 153 861 q 131 761 153 782 q 79 740 110 740 q 75 740 76 740 q 22 769 39 742 q 6 828 6 797 q 27 913 6 875 q 99 997 49 950 l 194 957 q 140 922 165 940 q 106 894 115 904 l 94 885 z "},"”":{"ha":408,"x_min":6,"x_max":403,"o":"m 310 729 l 214 769 q 268 804 243 786 q 303 832 293 822 l 314 842 l 297 846 q 256 913 256 865 q 278 967 256 944 q 329 986 299 986 q 333 986 332 986 q 386 957 369 985 q 403 899 403 929 q 381 814 403 851 q 310 729 360 776 m 101 729 l 6 769 q 60 804 35 786 q 94 832 85 822 l 106 842 l 89 846 q 47 913 47 865 q 69 967 47 944 q 121 986 90 986 q 125 986 124 986 q 178 957 161 985 q 194 899 194 929 q 173 814 194 851 q 101 729 151 776 z "},"„":{"ha":456,"x_min":1,"x_max":399,"o":"m 306 -117 l 210 -76 q 264 -42 239 -60 q 300 -14 289 -24 l 310 -4 l 293 0 q 251 67 251 19 q 274 119 251 99 q 325 140 294 140 q 329 140 328 140 q 382 111 365 139 q 399 53 399 83 q 377 -32 399 6 q 306 -117 356 -69 m 97 -117 l 1 -76 q 56 -42 31 -60 q 92 -14 81 -24 l 101 -4 l 85 0 q 43 67 43 19 q 65 119 43 99 q 117 140 86 140 q 121 140 119 140 q 174 111 157 139 q 190 53 190 83 q 169 -32 190 6 q 97 -117 147 -69 z "},"•":{"ha":658,"x_min":108,"x_max":604,"o":"m 531 292 q 495 256 531 292 q 356 219 458 219 q 181 292 253 219 q 108 468 108 365 q 181 643 108 571 q 356 715 253 715 q 531 643 458 715 q 604 468 604 571 q 531 292 604 365 z "},"…":{"ha":700,"x_min":1,"x_max":643,"o":"m 142 69 q 121 21 142 42 q 71 0 100 0 q 22 21 43 0 q 1 69 1 42 q 22 119 1 99 q 71 140 43 140 q 121 119 100 140 q 142 69 142 99 m 393 69 q 372 21 393 42 q 322 0 351 0 q 274 21 294 0 q 253 69 253 42 q 274 119 253 99 q 322 140 294 140 q 372 119 351 140 q 393 69 393 99 m 643 69 q 622 21 643 42 q 572 0 601 0 q 524 21 544 0 q 503 69 503 42 q 524 119 503 99 q 572 140 544 140 q 622 119 601 140 q 643 69 643 99 z "},"‰":{"ha":1458,"x_min":108,"x_max":1404,"o":"m 1346 43 q 1317 14 1346 43 q 1204 -15 1288 -15 q 1063 43 1121 -15 q 1004 185 1004 101 q 1063 326 1004 268 q 1204 385 1121 385 q 1346 326 1288 385 q 1404 185 1404 268 q 1346 43 1404 101 m 1236 153 q 1242 160 1236 153 q 1249 185 1249 167 q 1236 216 1249 203 q 1204 229 1224 229 q 1172 216 1185 229 q 1160 185 1160 203 q 1172 153 1160 167 q 1204 140 1185 140 q 1236 153 1224 140 m 224 -1 l 108 96 l 846 1035 l 969 943 l 224 -1 m 897 43 q 868 14 897 43 q 756 -15 839 -15 q 614 43 672 -15 q 556 185 556 101 q 614 326 556 268 q 756 385 672 385 q 897 326 839 385 q 956 185 956 268 q 897 43 956 101 m 790 151 q 797 158 790 151 q 803 185 803 165 q 790 218 803 204 q 756 232 778 232 q 721 218 733 232 q 708 185 708 204 q 721 151 708 165 q 756 138 733 138 q 790 151 778 138 m 465 668 q 436 639 465 668 q 324 610 407 610 q 182 668 240 610 q 124 810 124 726 q 182 951 124 893 q 324 1010 240 1010 q 465 951 407 1010 q 524 810 524 893 q 465 668 524 726 m 372 810 q 358 843 372 828 q 324 858 344 858 q 289 843 303 858 q 275 810 275 828 q 289 776 275 790 q 324 761 303 761 q 358 776 344 761 q 372 810 372 790 z "},"‹":{"ha":421,"x_min":58,"x_max":419,"o":"m 418 206 l 318 111 l 58 371 l 58 372 l 318 632 l 419 532 l 253 371 l 418 206 z "},"›":{"ha":415,"x_min":0,"x_max":361,"o":"m 101 111 l 1 206 l 167 371 l 0 532 l 101 632 l 361 372 l 361 371 l 101 111 z "},"⁄":{"ha":769,"x_min":108,"x_max":715,"o":"m 272 -158 l 108 -158 l 558 1135 l 715 1135 l 272 -158 z "},"€":{"ha":749,"x_min":108,"x_max":694,"o":"m 671 168 l 694 24 q 558 -14 626 -3 q 469 -22 514 -22 q 424 -19 447 -22 q 306 13 357 -14 q 224 99 256 40 q 193 246 193 158 l 193 275 l 108 275 l 108 421 l 193 421 l 193 488 l 108 488 l 108 633 l 193 633 l 193 692 q 223 851 193 797 q 314 943 253 906 q 463 978 376 978 q 481 978 471 978 q 660 932 578 974 l 617 793 q 476 817 553 817 q 382 785 418 817 q 346 704 346 753 l 346 633 l 553 633 l 553 488 l 346 488 l 346 421 l 553 421 l 553 275 l 346 275 l 346 249 q 351 203 346 224 q 369 171 357 183 q 394 149 382 158 q 429 136 407 139 q 467 131 451 133 q 509 133 482 129 q 551 140 536 138 q 595 149 567 142 q 635 158 624 156 q 671 168 646 161 z "},"™":{"ha":785,"x_min":146,"x_max":663,"o":"m 663 711 l 599 711 l 599 878 l 543 711 l 500 711 l 444 878 l 444 711 l 378 711 l 378 908 l 300 908 l 300 711 l 233 711 l 233 908 l 146 908 l 146 972 l 467 972 l 521 822 l 574 972 l 663 972 l 663 711 z "},"Ω":{"ha":876,"x_min":108,"x_max":822,"o":"m 822 0 l 506 0 l 506 140 q 520 140 507 140 q 542 139 533 139 q 565 142 550 139 q 591 149 581 144 q 614 164 601 154 q 633 188 626 174 q 646 223 640 201 q 651 272 651 244 l 651 651 q 618 775 651 731 q 522 819 585 819 l 415 819 q 310 782 343 819 q 278 651 278 744 l 278 271 q 284 215 278 239 q 302 178 290 192 q 326 155 314 164 q 356 143 338 146 q 383 140 374 140 q 408 140 392 139 q 425 140 424 140 l 425 0 l 108 0 l 132 140 l 157 140 q 126 272 126 189 l 126 699 q 192 904 126 826 q 388 982 257 982 l 543 982 q 739 904 674 982 q 804 699 804 826 l 804 272 q 799 208 804 233 q 784 164 793 182 q 774 140 775 146 l 799 140 l 822 0 z "},"∆":{"ha":864,"x_min":108,"x_max":810,"o":"m 810 0 l 108 0 l 374 972 l 526 972 l 810 0 m 603 140 l 457 669 l 315 140 l 603 140 z "},"ﬀ":{"ha":797,"x_min":108,"x_max":743,"o":"m 590 0 l 435 0 l 435 718 q 443 810 435 768 q 381 829 422 828 q 375 829 378 829 q 300 808 335 829 q 264 742 264 785 l 264 696 l 385 696 l 351 553 l 264 553 l 264 0 l 108 0 l 108 696 q 214 931 108 853 q 376 976 275 976 q 539 953 447 976 q 639 976 583 976 q 743 960 686 976 l 704 819 q 658 828 683 825 q 651 829 654 829 q 611 810 629 829 q 590 742 590 788 l 590 696 l 711 696 l 678 553 l 590 553 l 590 0 z "},"ﬁ":{"ha":631,"x_min":108,"x_max":576,"o":"m 576 0 l 425 0 l 425 696 l 576 696 l 576 0 m 264 0 l 108 0 l 108 718 q 172 905 108 831 q 332 986 235 979 q 351 986 342 986 q 544 928 440 986 l 424 819 q 372 847 411 842 q 357 849 364 849 q 300 832 326 849 q 264 763 264 810 l 264 696 l 385 696 l 351 553 l 264 553 l 264 0 z "},"ﬂ":{"ha":631,"x_min":108,"x_max":576,"o":"m 576 0 l 421 0 l 421 824 q 368 849 406 844 q 357 849 363 849 q 297 831 325 849 q 264 763 264 808 l 264 696 l 385 696 l 351 553 l 264 553 l 264 0 l 108 0 l 108 718 q 224 950 108 879 q 374 986 282 986 q 576 953 460 986 l 576 0 z "},"ﬄ":{"ha":953,"x_min":108,"x_max":899,"o":"m 899 0 l 743 0 l 743 821 q 683 828 718 826 q 678 829 681 829 q 619 808 647 829 q 590 742 590 785 l 590 696 l 711 696 q 694 624 706 672 q 678 553 683 576 l 590 553 l 590 0 l 435 0 l 435 718 q 443 810 435 768 q 381 829 422 828 q 375 829 378 829 q 300 808 335 829 q 264 742 264 785 l 264 696 l 385 696 q 368 624 379 672 q 351 553 357 576 l 264 553 l 264 0 l 108 0 l 108 696 q 115 774 108 742 q 244 947 140 894 q 378 976 299 976 q 539 953 449 976 q 683 981 593 981 q 899 953 772 981 l 899 0 z "}," ":{"ha":386,"x_min":0,"x_max":0,"o":""}}}
